<svg xmlns="http://www.w3.org/2000/svg" xmlns:xlink="http://www.w3.org/1999/xlink" width="439" zoomAndPan="magnify" viewBox="0 0 329.25 201.749994" height="269" preserveAspectRatio="xMidYMid meet" version="1.0"><defs><filter x="0%" y="0%" width="100%" height="100%" id="21180c0cb1"><feColorMatrix values="0 0 0 0 1 0 0 0 0 1 0 0 0 0 1 0 0 0 1 0" color-interpolation-filters="sRGB"/></filter><clipPath id="3386134f21"><path d="M 136 161 L 170 161 L 170 193.1875 L 136 193.1875 Z M 136 161 " clip-rule="nonzero"/></clipPath><mask id="1df235baa2"><g filter="url(#21180c0cb1)"><rect x="-32.925" width="395.1" fill="#000000" y="-20.174999" height="242.099993" fill-opacity="0.8"/></g></mask><clipPath id="5683a67241"><path d="M 32 0.265625 L 120.71875 0.265625 L 120.71875 52 L 32 52 Z M 32 0.265625 " clip-rule="nonzero"/></clipPath><clipPath id="6a4371d593"><rect x="0" width="121" y="0" height="70"/></clipPath><mask id="76402cfbb5"><g filter="url(#21180c0cb1)"><rect x="-32.925" width="395.1" fill="#000000" y="-20.174999" height="242.099993" fill-opacity="0.1"/></g></mask><clipPath id="fcf5326c84"><path d="M 20 0.472656 L 24 0.472656 L 24 6 L 20 6 Z M 20 0.472656 " clip-rule="nonzero"/></clipPath><clipPath id="9e21bd0be0"><path d="M 0.40625 57 L 5 57 L 5 62 L 0.40625 62 Z M 0.40625 57 " clip-rule="nonzero"/></clipPath><clipPath id="bdf26c03a3"><path d="M 21 22 L 57.875 22 L 57.875 47 L 21 47 Z M 21 22 " clip-rule="nonzero"/></clipPath><clipPath id="1afaac2110"><path d="M 12 48 L 56 48 L 56 76.621094 L 12 76.621094 Z M 12 48 " clip-rule="nonzero"/></clipPath><clipPath id="ec6865a2c8"><rect x="0" width="58" y="0" height="77"/></clipPath><clipPath id="0468c456c8"><path d="M 59.113281 84 L 107 84 L 107 112 L 59.113281 112 Z M 59.113281 84 " clip-rule="nonzero"/></clipPath></defs><g clip-path="url(#3386134f21)"><path fill="#43455e" d="M 164.460938 162.613281 C 165.890625 163.621094 167.75 165.796875 168.648438 168.398438 C 169.179688 169.933594 169.179688 170.890625 169.128906 171.207031 C 169.019531 172.960938 168.121094 173.597656 167.269531 175.292969 C 166.476562 176.886719 166.6875 177.46875 166.527344 179.378906 C 166.421875 180.386719 166.316406 181.132812 165.996094 182.5625 C 165.574219 184.367188 165.253906 184.738281 164.460938 187.445312 C 164.246094 188.132812 164.089844 188.71875 164.035156 189.035156 C 163.824219 190.363281 163.558594 191.742188 163.34375 193.070312 C 157.457031 192.113281 151.570312 191.105469 145.679688 190.152344 C 146.316406 187.339844 147.007812 184.527344 147.644531 181.714844 C 146.316406 183.09375 145.152344 184.207031 144.25 185.003906 C 141.066406 187.871094 139.847656 188.292969 138.679688 188.292969 C 138.253906 188.292969 137.035156 188.292969 136.769531 187.710938 C 136.34375 186.703125 139.792969 185.058594 143.824219 180.601562 C 145.628906 178.585938 146.160156 177.574219 146.476562 176.9375 C 147.539062 174.605469 147.539062 172.429688 147.433594 170.996094 C 147.804688 169.671875 148.121094 168.34375 148.492188 167.015625 C 153.851562 161.445312 160.90625 160.171875 164.460938 162.613281 Z M 164.460938 162.613281 " fill-opacity="0.05" fill-rule="nonzero"/></g><path fill="#43455e" d="M 267.261719 118.785156 L 168.808594 62.757812 L 139.210938 94.378906 L 128.230469 88.011719 C 126.480469 87.003906 123.613281 87.003906 121.8125 88.011719 L 66.273438 120.324219 C 66.167969 120.378906 66.058594 120.484375 65.953125 120.539062 L 64.46875 121.070312 L 65.050781 122.554688 C 65.105469 122.660156 65.105469 122.820312 65.210938 122.925781 C 65.425781 123.351562 65.796875 123.722656 66.324219 124.039062 L 156.609375 176.144531 C 158.359375 177.152344 161.222656 177.152344 163.027344 176.144531 L 218.566406 143.832031 C 219.359375 143.351562 219.785156 142.769531 219.890625 142.1875 L 266.890625 123.988281 C 269.117188 123.136719 269.382812 120.007812 267.261719 118.785156 Z M 267.261719 118.785156 " fill-opacity="0.05" fill-rule="nonzero"/><path fill="#43455e" d="M 219.203125 137.675781 C 219.253906 136.933594 64.308594 116.984375 64.308594 117.671875 L 64.308594 120.433594 C 64.308594 121.121094 64.734375 121.757812 65.636719 122.289062 L 155.917969 174.445312 C 157.667969 175.453125 160.535156 175.453125 162.335938 174.445312 L 217.875 142.132812 C 218.777344 141.601562 219.203125 140.964844 219.203125 140.277344 L 219.203125 137.515625 C 219.253906 137.570312 219.203125 137.621094 219.203125 137.675781 Z M 219.203125 137.675781 " fill-opacity="1" fill-rule="nonzero"/><path fill="#e4e1f9" d="M 217.875 135.660156 C 219.625 136.667969 219.679688 138.367188 217.875 139.375 L 162.335938 171.6875 C 160.585938 172.695312 157.722656 172.695312 155.917969 171.6875 L 65.636719 119.53125 C 63.886719 118.523438 63.832031 116.824219 65.636719 115.816406 L 121.175781 83.503906 C 122.925781 82.496094 125.789062 82.496094 127.59375 83.503906 Z M 217.875 135.660156 " fill-opacity="1" fill-rule="nonzero"/><path fill="#464eab" d="M 145.894531 141.441406 C 147.007812 142.078125 147.007812 143.140625 145.894531 143.777344 L 131.253906 152.265625 C 130.140625 152.902344 128.335938 152.902344 127.273438 152.265625 L 95.394531 133.855469 C 94.28125 133.21875 94.28125 132.15625 95.394531 131.519531 L 110.035156 123.03125 C 111.148438 122.394531 112.953125 122.394531 114.011719 123.03125 Z M 145.894531 141.441406 " fill-opacity="1" fill-rule="nonzero"/><g mask="url(#1df235baa2)"><g transform="matrix(1, 0, 0, 1, 90, 87)"><g clip-path="url(#6a4371d593)"><g clip-path="url(#5683a67241)"><path fill="#43455e" d="M 117.796875 51.367188 C 117.425781 51.367188 117.109375 51.3125 116.894531 51.152344 L 32.925781 2.65625 C 32.710938 2.550781 32.605469 2.394531 32.605469 2.234375 C 32.605469 2.074219 32.710938 1.914062 32.925781 1.808594 L 34.304688 1.011719 C 34.570312 0.855469 34.886719 0.800781 35.207031 0.800781 C 35.578125 0.800781 35.894531 0.855469 36.109375 1.011719 L 120.078125 49.507812 C 120.289062 49.613281 120.394531 49.773438 120.394531 49.933594 C 120.394531 50.09375 120.289062 50.25 120.078125 50.359375 L 118.699219 51.152344 C 118.488281 51.257812 118.167969 51.367188 117.796875 51.367188 Z M 117.796875 51.367188 " fill-opacity="1" fill-rule="nonzero"/></g><path fill="#43455e" d="M 77.695312 64.207031 C 77.324219 64.207031 77.003906 64.152344 76.792969 63.992188 L 71.964844 61.234375 C 71.753906 61.128906 71.648438 60.96875 71.648438 60.808594 C 71.648438 60.652344 71.753906 60.492188 71.964844 60.386719 L 72.761719 59.90625 C 73.027344 59.75 73.34375 59.695312 73.664062 59.695312 C 74.035156 59.695312 74.351562 59.75 74.566406 59.90625 L 79.390625 62.667969 C 79.605469 62.773438 79.710938 62.933594 79.710938 63.089844 C 79.710938 63.25 79.605469 63.410156 79.390625 63.515625 L 78.597656 63.992188 C 78.382812 64.152344 78.066406 64.207031 77.695312 64.207031 Z M 77.695312 64.207031 " fill-opacity="1" fill-rule="nonzero"/><path fill="#43455e" d="M 85.917969 68.980469 C 85.546875 68.980469 85.226562 68.929688 85.015625 68.769531 L 80.1875 66.011719 C 79.976562 65.902344 79.871094 65.746094 79.871094 65.585938 C 79.871094 65.425781 79.976562 65.265625 80.1875 65.160156 L 84.960938 62.402344 C 85.226562 62.242188 85.546875 62.191406 85.863281 62.191406 C 86.234375 62.191406 86.554688 62.242188 86.765625 62.402344 L 91.59375 65.160156 C 91.804688 65.265625 91.910156 65.425781 91.910156 65.585938 C 91.910156 65.746094 91.804688 65.902344 91.59375 66.011719 L 86.820312 68.769531 C 86.605469 68.875 86.289062 68.980469 85.917969 68.980469 Z M 85.917969 68.980469 " fill-opacity="1" fill-rule="nonzero"/><path fill="#43455e" d="M 81.671875 61.871094 C 81.300781 61.871094 80.984375 61.816406 80.773438 61.660156 L 75.945312 58.898438 C 75.730469 58.792969 75.625 58.632812 75.625 58.476562 C 75.625 58.316406 75.730469 58.15625 75.945312 58.050781 L 76.742188 57.574219 C 77.003906 57.414062 77.324219 57.359375 77.640625 57.359375 C 78.011719 57.359375 78.332031 57.414062 78.542969 57.574219 L 83.371094 60.332031 C 83.582031 60.4375 83.6875 60.597656 83.6875 60.757812 C 83.6875 60.917969 83.582031 61.074219 83.371094 61.179688 L 82.574219 61.660156 C 82.363281 61.816406 82.042969 61.871094 81.671875 61.871094 Z M 81.671875 61.871094 " fill-opacity="1" fill-rule="nonzero"/><path fill="#43455e" d="M 69.472656 59.484375 C 69.101562 59.484375 68.785156 59.429688 68.570312 59.269531 L 63.746094 56.511719 C 63.53125 56.40625 63.425781 56.246094 63.425781 56.089844 C 63.425781 55.929688 63.53125 55.769531 63.746094 55.664062 L 68.519531 52.90625 C 68.785156 52.746094 69.101562 52.691406 69.421875 52.691406 C 69.792969 52.691406 70.109375 52.746094 70.320312 52.90625 L 75.148438 55.664062 C 75.359375 55.769531 75.46875 55.929688 75.46875 56.089844 C 75.46875 56.246094 75.359375 56.40625 75.148438 56.511719 L 70.375 59.269531 C 70.164062 59.378906 69.792969 59.484375 69.472656 59.484375 Z M 69.472656 59.484375 " fill-opacity="1" fill-rule="nonzero"/><path fill="#43455e" d="M 61.25 54.707031 C 60.878906 54.707031 60.5625 54.65625 60.347656 54.496094 L 22.582031 32.6875 C 22.367188 32.582031 22.261719 32.421875 22.261719 32.265625 C 22.261719 32.105469 22.367188 31.945312 22.582031 31.839844 L 27.355469 29.082031 C 27.621094 28.921875 27.9375 28.867188 28.257812 28.867188 C 28.628906 28.867188 28.945312 28.921875 29.160156 29.082031 L 66.875 50.886719 C 67.085938 50.996094 67.191406 51.152344 67.191406 51.3125 C 67.191406 51.472656 67.085938 51.632812 66.875 51.738281 L 62.101562 54.496094 C 61.886719 54.65625 61.570312 54.707031 61.25 54.707031 Z M 61.25 54.707031 " fill-opacity="1" fill-rule="nonzero"/><path fill="#43455e" d="M 20.089844 30.9375 C 19.714844 30.9375 19.398438 30.886719 19.1875 30.726562 L 14.359375 27.96875 C 14.148438 27.859375 14.039062 27.703125 14.039062 27.542969 C 14.039062 27.382812 14.148438 27.222656 14.359375 27.117188 L 19.132812 24.359375 C 19.398438 24.199219 19.714844 24.148438 20.035156 24.148438 C 20.40625 24.148438 20.722656 24.199219 20.9375 24.359375 L 25.765625 27.117188 C 25.976562 27.222656 26.082031 27.382812 26.082031 27.542969 C 26.082031 27.703125 25.976562 27.859375 25.765625 27.96875 L 20.988281 30.726562 C 20.777344 30.886719 20.460938 30.9375 20.089844 30.9375 Z M 20.089844 30.9375 " fill-opacity="1" fill-rule="nonzero"/><path fill="#43455e" d="M 12.078125 26.320312 C 11.707031 26.320312 11.386719 26.269531 11.175781 26.109375 L 1.523438 20.539062 C 1.308594 20.433594 1.203125 20.273438 1.203125 20.113281 C 1.203125 19.953125 1.308594 19.796875 1.523438 19.691406 L 6.296875 16.929688 C 6.5625 16.769531 6.878906 16.71875 7.199219 16.71875 C 7.570312 16.71875 7.886719 16.769531 8.101562 16.929688 L 17.753906 22.5 C 17.964844 22.609375 18.074219 22.765625 18.074219 22.925781 C 18.074219 23.085938 17.964844 23.246094 17.753906 23.351562 L 12.980469 26.109375 C 12.769531 26.214844 12.394531 26.320312 12.078125 26.320312 Z M 12.078125 26.320312 " fill-opacity="1" fill-rule="nonzero"/><path fill="#43455e" d="M 31.703125 28.390625 C 31.332031 28.390625 31.015625 28.339844 30.804688 28.179688 L 25.976562 25.421875 C 25.765625 25.3125 25.65625 25.15625 25.65625 24.996094 C 25.65625 24.835938 25.765625 24.675781 25.976562 24.570312 L 30.75 21.8125 C 31.015625 21.652344 31.332031 21.601562 31.652344 21.601562 C 32.023438 21.601562 32.339844 21.652344 32.554688 21.8125 L 37.378906 24.570312 C 37.59375 24.675781 37.699219 24.835938 37.699219 24.996094 C 37.699219 25.15625 37.59375 25.3125 37.378906 25.421875 L 32.605469 28.179688 C 32.339844 28.339844 32.023438 28.390625 31.703125 28.390625 Z M 31.703125 28.390625 " fill-opacity="1" fill-rule="nonzero"/><path fill="#43455e" d="M 39.925781 33.167969 C 39.554688 33.167969 39.238281 33.113281 39.023438 32.953125 L 34.199219 30.195312 C 33.984375 30.089844 33.878906 29.929688 33.878906 29.769531 C 33.878906 29.613281 33.984375 29.453125 34.199219 29.347656 L 38.972656 26.585938 C 39.238281 26.429688 39.554688 26.375 39.875 26.375 C 40.246094 26.375 40.5625 26.429688 40.777344 26.585938 L 45.601562 29.347656 C 45.816406 29.453125 45.921875 29.613281 45.921875 29.769531 C 45.921875 29.929688 45.816406 30.089844 45.601562 30.195312 L 40.828125 32.953125 C 40.5625 33.058594 40.246094 33.167969 39.925781 33.167969 Z M 39.925781 33.167969 " fill-opacity="1" fill-rule="nonzero"/><path fill="#43455e" d="M 48.148438 37.890625 C 47.777344 37.890625 47.460938 37.835938 47.246094 37.675781 L 42.421875 34.917969 C 42.207031 34.8125 42.101562 34.652344 42.101562 34.492188 C 42.101562 34.332031 42.207031 34.175781 42.421875 34.070312 L 47.195312 31.308594 C 47.460938 31.148438 47.777344 31.097656 48.097656 31.097656 C 48.46875 31.097656 48.785156 31.148438 48.996094 31.308594 L 53.824219 34.070312 C 54.035156 34.175781 54.144531 34.332031 54.144531 34.492188 C 54.144531 34.652344 54.035156 34.8125 53.824219 34.917969 L 49.050781 37.675781 C 48.839844 37.835938 48.46875 37.890625 48.148438 37.890625 Z M 48.148438 37.890625 " fill-opacity="1" fill-rule="nonzero"/><path fill="#43455e" d="M 56.371094 42.664062 C 56 42.664062 55.679688 42.609375 55.46875 42.453125 L 50.640625 39.691406 C 50.429688 39.585938 50.324219 39.425781 50.324219 39.269531 C 50.324219 39.109375 50.429688 38.949219 50.640625 38.84375 L 55.417969 36.085938 C 55.679688 35.925781 56 35.871094 56.316406 35.871094 C 56.6875 35.871094 57.007812 35.925781 57.21875 36.085938 L 62.046875 38.84375 C 62.257812 38.949219 62.363281 39.109375 62.363281 39.269531 C 62.363281 39.425781 62.257812 39.585938 62.046875 39.691406 L 57.273438 42.453125 C 57.058594 42.558594 56.742188 42.664062 56.371094 42.664062 Z M 56.371094 42.664062 " fill-opacity="1" fill-rule="nonzero"/><path fill="#43455e" d="M 64.59375 47.386719 C 64.222656 47.386719 63.902344 47.332031 63.691406 47.175781 L 58.863281 44.414062 C 58.652344 44.308594 58.546875 44.148438 58.546875 43.992188 C 58.546875 43.832031 58.652344 43.671875 58.863281 43.566406 L 63.636719 40.808594 C 63.902344 40.648438 64.222656 40.59375 64.539062 40.59375 C 64.910156 40.59375 65.230469 40.648438 65.441406 40.808594 L 70.269531 43.566406 C 70.480469 43.671875 70.585938 43.832031 70.585938 43.992188 C 70.585938 44.148438 70.480469 44.308594 70.269531 44.414062 L 65.496094 47.175781 C 65.28125 47.332031 64.964844 47.386719 64.59375 47.386719 Z M 64.59375 47.386719 " fill-opacity="1" fill-rule="nonzero"/><path fill="#43455e" d="M 72.816406 52.160156 C 72.445312 52.160156 72.125 52.109375 71.914062 51.949219 L 67.085938 49.191406 C 66.875 49.085938 66.769531 48.925781 66.769531 48.765625 C 66.769531 48.605469 66.875 48.449219 67.085938 48.339844 L 71.859375 45.582031 C 72.125 45.421875 72.445312 45.371094 72.761719 45.371094 C 73.132812 45.371094 73.453125 45.421875 73.664062 45.582031 L 78.492188 48.339844 C 78.703125 48.449219 78.808594 48.605469 78.808594 48.765625 C 78.808594 48.925781 78.703125 49.085938 78.492188 49.191406 L 73.714844 51.949219 C 73.503906 52.109375 73.1875 52.160156 72.816406 52.160156 Z M 72.816406 52.160156 " fill-opacity="1" fill-rule="nonzero"/><path fill="#43455e" d="M 81.035156 56.9375 C 80.664062 56.9375 80.347656 56.882812 80.136719 56.722656 L 75.308594 53.964844 C 75.097656 53.859375 74.988281 53.699219 74.988281 53.542969 C 74.988281 53.382812 75.097656 53.222656 75.308594 53.117188 L 80.082031 50.359375 C 80.347656 50.199219 80.664062 50.144531 80.984375 50.144531 C 81.355469 50.144531 81.671875 50.199219 81.886719 50.359375 L 86.710938 53.117188 C 86.925781 53.222656 87.03125 53.382812 87.03125 53.542969 C 87.03125 53.699219 86.925781 53.859375 86.710938 53.964844 L 81.9375 56.722656 C 81.726562 56.832031 81.410156 56.9375 81.035156 56.9375 Z M 81.035156 56.9375 " fill-opacity="1" fill-rule="nonzero"/><path fill="#43455e" d="M 36.054688 21.707031 C 35.683594 21.707031 35.363281 21.652344 35.152344 21.492188 L 30.324219 18.734375 C 30.113281 18.628906 30.007812 18.46875 30.007812 18.308594 C 30.007812 18.152344 30.113281 17.992188 30.324219 17.886719 L 35.101562 15.125 C 35.363281 14.96875 35.683594 14.914062 36 14.914062 C 36.371094 14.914062 36.691406 14.96875 36.902344 15.125 L 41.730469 17.886719 C 41.941406 17.992188 42.046875 18.152344 42.046875 18.308594 C 42.046875 18.46875 41.941406 18.628906 41.730469 18.734375 L 36.957031 21.492188 C 36.746094 21.601562 36.371094 21.707031 36.054688 21.707031 Z M 36.054688 21.707031 " fill-opacity="1" fill-rule="nonzero"/><path fill="#43455e" d="M 44.277344 26.429688 C 43.90625 26.429688 43.585938 26.375 43.375 26.214844 L 38.546875 23.457031 C 38.335938 23.351562 38.230469 23.191406 38.230469 23.03125 C 38.230469 22.875 38.335938 22.714844 38.546875 22.609375 L 43.320312 19.847656 C 43.585938 19.691406 43.90625 19.636719 44.222656 19.636719 C 44.59375 19.636719 44.914062 19.691406 45.125 19.847656 L 49.953125 22.609375 C 50.164062 22.714844 50.269531 22.875 50.269531 23.03125 C 50.269531 23.191406 50.164062 23.351562 49.953125 23.457031 L 45.179688 26.214844 C 44.964844 26.375 44.648438 26.429688 44.277344 26.429688 Z M 44.277344 26.429688 " fill-opacity="1" fill-rule="nonzero"/><path fill="#43455e" d="M 52.5 31.203125 C 52.128906 31.203125 51.808594 31.148438 51.597656 30.992188 L 46.769531 28.230469 C 46.558594 28.125 46.453125 27.96875 46.453125 27.808594 C 46.453125 27.648438 46.558594 27.488281 46.769531 27.382812 L 51.542969 24.625 C 51.808594 24.464844 52.128906 24.410156 52.445312 24.410156 C 52.816406 24.410156 53.136719 24.464844 53.347656 24.625 L 58.175781 27.382812 C 58.386719 27.488281 58.492188 27.648438 58.492188 27.808594 C 58.492188 27.96875 58.386719 28.125 58.175781 28.230469 L 53.398438 30.992188 C 53.1875 31.097656 52.871094 31.203125 52.5 31.203125 Z M 52.5 31.203125 " fill-opacity="1" fill-rule="nonzero"/><path fill="#43455e" d="M 60.71875 35.925781 C 60.347656 35.925781 60.03125 35.871094 59.820312 35.714844 L 54.992188 32.953125 C 54.78125 32.847656 54.671875 32.6875 54.671875 32.53125 C 54.671875 32.371094 54.78125 32.210938 54.992188 32.105469 L 59.765625 29.347656 C 60.03125 29.1875 60.347656 29.132812 60.667969 29.132812 C 61.039062 29.132812 61.355469 29.1875 61.570312 29.347656 L 66.394531 32.105469 C 66.609375 32.210938 66.714844 32.371094 66.714844 32.53125 C 66.714844 32.6875 66.609375 32.847656 66.394531 32.953125 L 61.621094 35.714844 C 61.410156 35.871094 61.09375 35.925781 60.71875 35.925781 Z M 60.71875 35.925781 " fill-opacity="1" fill-rule="nonzero"/><path fill="#43455e" d="M 68.941406 40.699219 C 68.570312 40.699219 68.253906 40.648438 68.039062 40.488281 L 63.214844 37.730469 C 63 37.625 62.894531 37.464844 62.894531 37.304688 C 62.894531 37.144531 63 36.988281 63.214844 36.878906 L 67.988281 34.121094 C 68.253906 33.960938 68.570312 33.910156 68.890625 33.910156 C 69.261719 33.910156 69.578125 33.960938 69.792969 34.121094 L 74.617188 36.878906 C 74.832031 36.988281 74.9375 37.144531 74.9375 37.304688 C 74.9375 37.464844 74.832031 37.625 74.617188 37.730469 L 69.84375 40.488281 C 69.632812 40.59375 69.3125 40.699219 68.941406 40.699219 Z M 68.941406 40.699219 " fill-opacity="1" fill-rule="nonzero"/><path fill="#43455e" d="M 77.164062 45.421875 C 76.792969 45.421875 76.476562 45.371094 76.261719 45.210938 L 71.4375 42.453125 C 71.222656 42.347656 71.117188 42.1875 71.117188 42.027344 C 71.117188 41.867188 71.222656 41.710938 71.4375 41.601562 L 76.210938 38.84375 C 76.476562 38.683594 76.792969 38.632812 77.113281 38.632812 C 77.484375 38.632812 77.800781 38.683594 78.011719 38.84375 L 82.839844 41.601562 C 83.050781 41.710938 83.160156 41.867188 83.160156 42.027344 C 83.160156 42.1875 83.050781 42.347656 82.839844 42.453125 L 78.066406 45.210938 C 77.855469 45.371094 77.535156 45.421875 77.164062 45.421875 Z M 77.164062 45.421875 " fill-opacity="1" fill-rule="nonzero"/><path fill="#43455e" d="M 85.386719 50.199219 C 85.015625 50.199219 84.695312 50.144531 84.484375 49.984375 L 79.65625 47.226562 C 79.445312 47.121094 79.339844 46.960938 79.339844 46.800781 C 79.339844 46.644531 79.445312 46.484375 79.65625 46.378906 L 84.433594 43.617188 C 84.695312 43.460938 85.015625 43.40625 85.332031 43.40625 C 85.703125 43.40625 86.023438 43.460938 86.234375 43.617188 L 91.0625 46.378906 C 91.273438 46.484375 91.378906 46.644531 91.378906 46.800781 C 91.378906 46.960938 91.273438 47.121094 91.0625 47.226562 L 86.289062 49.984375 C 86.078125 50.09375 85.757812 50.199219 85.386719 50.199219 Z M 85.386719 50.199219 " fill-opacity="1" fill-rule="nonzero"/><path fill="#43455e" d="M 31.175781 9.609375 C 30.804688 9.609375 30.484375 9.554688 30.273438 9.394531 L 25.445312 6.636719 C 25.234375 6.53125 25.128906 6.371094 25.128906 6.210938 C 25.128906 6.054688 25.234375 5.894531 25.445312 5.789062 L 30.21875 3.03125 C 30.484375 2.871094 30.804688 2.816406 31.121094 2.816406 C 31.492188 2.816406 31.8125 2.871094 32.023438 3.03125 L 36.851562 5.789062 C 37.0625 5.894531 37.167969 6.054688 37.167969 6.210938 C 37.167969 6.371094 37.0625 6.53125 36.851562 6.636719 L 32.078125 9.394531 C 31.863281 9.554688 31.546875 9.609375 31.175781 9.609375 Z M 31.175781 9.609375 " fill-opacity="1" fill-rule="nonzero"/><path fill="#43455e" d="M 39.394531 14.382812 C 39.023438 14.382812 38.707031 14.332031 38.496094 14.171875 L 33.667969 11.414062 C 33.457031 11.304688 33.347656 11.148438 33.347656 10.988281 C 33.347656 10.828125 33.457031 10.667969 33.667969 10.5625 L 38.441406 7.804688 C 38.707031 7.644531 39.023438 7.59375 39.34375 7.59375 C 39.714844 7.59375 40.03125 7.644531 40.246094 7.804688 L 45.074219 10.5625 C 45.285156 10.667969 45.390625 10.828125 45.390625 10.988281 C 45.390625 11.148438 45.285156 11.304688 45.074219 11.414062 L 40.296875 14.171875 C 40.085938 14.277344 39.769531 14.382812 39.394531 14.382812 Z M 39.394531 14.382812 " fill-opacity="1" fill-rule="nonzero"/><path fill="#43455e" d="M 47.617188 19.105469 C 47.246094 19.105469 46.929688 19.054688 46.714844 18.894531 L 41.890625 16.136719 C 41.675781 16.027344 41.570312 15.871094 41.570312 15.710938 C 41.570312 15.550781 41.675781 15.390625 41.890625 15.285156 L 46.664062 12.527344 C 46.929688 12.367188 47.246094 12.316406 47.566406 12.316406 C 47.9375 12.316406 48.253906 12.367188 48.46875 12.527344 L 53.292969 15.285156 C 53.507812 15.390625 53.613281 15.550781 53.613281 15.710938 C 53.613281 15.871094 53.507812 16.027344 53.292969 16.136719 L 48.519531 18.894531 C 48.308594 19.054688 47.988281 19.105469 47.617188 19.105469 Z M 47.617188 19.105469 " fill-opacity="1" fill-rule="nonzero"/><path fill="#43455e" d="M 55.839844 23.882812 C 55.46875 23.882812 55.152344 23.828125 54.9375 23.667969 L 50.113281 20.910156 C 49.898438 20.804688 49.792969 20.644531 49.792969 20.484375 C 49.792969 20.328125 49.898438 20.167969 50.113281 20.0625 L 54.886719 17.300781 C 55.152344 17.144531 55.46875 17.089844 55.789062 17.089844 C 56.160156 17.089844 56.476562 17.144531 56.6875 17.300781 L 61.515625 20.0625 C 61.726562 20.167969 61.835938 20.328125 61.835938 20.484375 C 61.835938 20.644531 61.726562 20.804688 61.515625 20.910156 L 56.742188 23.667969 C 56.53125 23.828125 56.210938 23.882812 55.839844 23.882812 Z M 55.839844 23.882812 " fill-opacity="1" fill-rule="nonzero"/><path fill="#43455e" d="M 64.0625 28.65625 C 63.691406 28.65625 63.371094 28.605469 63.160156 28.445312 L 58.332031 25.683594 C 58.121094 25.578125 58.015625 25.421875 58.015625 25.261719 C 58.015625 25.101562 58.121094 24.941406 58.332031 24.835938 L 63.109375 22.078125 C 63.371094 21.917969 63.691406 21.863281 64.007812 21.863281 C 64.378906 21.863281 64.699219 21.917969 64.910156 22.078125 L 69.738281 24.835938 C 69.949219 24.941406 70.054688 25.101562 70.054688 25.261719 C 70.054688 25.421875 69.949219 25.578125 69.738281 25.683594 L 64.964844 28.445312 C 64.753906 28.550781 64.433594 28.65625 64.0625 28.65625 Z M 64.0625 28.65625 " fill-opacity="1" fill-rule="nonzero"/><path fill="#43455e" d="M 72.335938 33.378906 C 71.964844 33.378906 71.648438 33.324219 71.4375 33.167969 L 66.609375 30.40625 C 66.394531 30.300781 66.289062 30.140625 66.289062 29.984375 C 66.289062 29.824219 66.394531 29.664062 66.609375 29.558594 L 71.382812 26.800781 C 71.648438 26.640625 71.964844 26.585938 72.285156 26.585938 C 72.65625 26.585938 72.972656 26.640625 73.1875 26.800781 L 78.011719 29.558594 C 78.226562 29.664062 78.332031 29.824219 78.332031 29.984375 C 78.332031 30.140625 78.226562 30.300781 78.011719 30.40625 L 73.238281 33.167969 C 72.972656 33.324219 72.65625 33.378906 72.335938 33.378906 Z M 72.335938 33.378906 " fill-opacity="1" fill-rule="nonzero"/><path fill="#43455e" d="M 80.558594 38.152344 C 80.1875 38.152344 79.871094 38.101562 79.65625 37.941406 L 74.832031 35.183594 C 74.617188 35.078125 74.511719 34.917969 74.511719 34.757812 C 74.511719 34.597656 74.617188 34.441406 74.832031 34.332031 L 79.605469 31.574219 C 79.871094 31.414062 80.1875 31.363281 80.507812 31.363281 C 80.878906 31.363281 81.195312 31.414062 81.410156 31.574219 L 86.234375 34.332031 C 86.449219 34.441406 86.554688 34.597656 86.554688 34.757812 C 86.554688 34.917969 86.449219 35.078125 86.234375 35.183594 L 81.460938 37.941406 C 81.25 38.046875 80.878906 38.152344 80.558594 38.152344 Z M 80.558594 38.152344 " fill-opacity="1" fill-rule="nonzero"/><path fill="#43455e" d="M 88.78125 42.875 C 88.410156 42.875 88.09375 42.824219 87.878906 42.664062 L 83.050781 39.90625 C 82.839844 39.800781 82.734375 39.640625 82.734375 39.480469 C 82.734375 39.320312 82.839844 39.164062 83.050781 39.054688 L 87.828125 36.296875 C 88.09375 36.136719 88.410156 36.085938 88.726562 36.085938 C 89.101562 36.085938 89.417969 36.136719 89.628906 36.296875 L 94.457031 39.054688 C 94.667969 39.164062 94.777344 39.320312 94.777344 39.480469 C 94.777344 39.640625 94.667969 39.800781 94.457031 39.90625 L 89.683594 42.664062 C 89.472656 42.824219 89.101562 42.875 88.78125 42.875 Z M 88.78125 42.875 " fill-opacity="1" fill-rule="nonzero"/><path fill="#43455e" d="M 97.003906 47.652344 C 96.632812 47.652344 96.3125 47.597656 96.101562 47.4375 L 91.273438 44.679688 C 91.0625 44.574219 90.957031 44.414062 90.957031 44.253906 C 90.957031 44.097656 91.0625 43.9375 91.273438 43.832031 L 96.046875 41.074219 C 96.3125 40.914062 96.632812 40.859375 96.949219 40.859375 C 97.320312 40.859375 97.640625 40.914062 97.851562 41.074219 L 102.679688 43.832031 C 102.890625 43.9375 102.996094 44.097656 102.996094 44.253906 C 102.996094 44.414062 102.890625 44.574219 102.679688 44.679688 L 97.90625 47.4375 C 97.691406 47.546875 97.375 47.652344 97.003906 47.652344 Z M 97.003906 47.652344 " fill-opacity="1" fill-rule="nonzero"/><path fill="#43455e" d="M 23.484375 23.667969 C 23.113281 23.667969 22.792969 23.617188 22.582031 23.457031 L 9.53125 15.921875 C 9.320312 15.816406 9.214844 15.65625 9.214844 15.5 C 9.214844 15.339844 9.320312 15.179688 9.53125 15.074219 L 14.304688 12.316406 C 14.570312 12.15625 14.890625 12.101562 15.207031 12.101562 C 15.578125 12.101562 15.898438 12.15625 16.109375 12.316406 L 29.160156 19.847656 C 29.371094 19.953125 29.476562 20.113281 29.476562 20.273438 C 29.476562 20.433594 29.371094 20.589844 29.160156 20.699219 L 24.382812 23.457031 C 24.121094 23.5625 23.800781 23.667969 23.484375 23.667969 Z M 23.484375 23.667969 " fill-opacity="1" fill-rule="nonzero"/><path fill="#43455e" d="M 27.992188 17.035156 C 27.621094 17.035156 27.300781 16.984375 27.089844 16.824219 L 17.4375 11.253906 C 17.222656 11.148438 17.117188 10.988281 17.117188 10.828125 C 17.117188 10.667969 17.222656 10.511719 17.4375 10.40625 L 22.210938 7.644531 C 22.476562 7.484375 22.792969 7.433594 23.113281 7.433594 C 23.484375 7.433594 23.800781 7.484375 24.011719 7.644531 L 33.667969 13.214844 C 33.878906 13.324219 33.984375 13.480469 33.984375 13.640625 C 33.984375 13.800781 33.878906 13.960938 33.667969 14.066406 L 28.894531 16.824219 C 28.679688 16.984375 28.363281 17.035156 27.992188 17.035156 Z M 27.992188 17.035156 " fill-opacity="1" fill-rule="nonzero"/><path fill="#43455e" d="M 93.875 64.472656 C 93.503906 64.472656 93.183594 64.417969 92.972656 64.257812 L 83.316406 58.6875 C 83.105469 58.582031 83 58.421875 83 58.261719 C 83 58.105469 83.105469 57.945312 83.316406 57.839844 L 88.09375 55.078125 C 88.355469 54.921875 88.675781 54.867188 88.992188 54.867188 C 89.363281 54.867188 89.683594 54.921875 89.894531 55.078125 L 99.550781 60.652344 C 99.761719 60.757812 99.867188 60.917969 99.867188 61.074219 C 99.867188 61.234375 99.761719 61.394531 99.550781 61.5 L 94.777344 64.257812 C 94.5625 64.363281 94.246094 64.472656 93.875 64.472656 Z M 93.875 64.472656 " fill-opacity="1" fill-rule="nonzero"/><path fill="#43455e" d="M 101.882812 59.695312 C 101.511719 59.695312 101.195312 59.644531 100.980469 59.484375 L 87.933594 51.949219 C 87.71875 51.84375 87.613281 51.683594 87.613281 51.523438 C 87.613281 51.367188 87.71875 51.207031 87.933594 51.101562 L 92.707031 48.339844 C 92.972656 48.183594 93.289062 48.128906 93.609375 48.128906 C 93.980469 48.128906 94.296875 48.183594 94.511719 48.339844 L 107.558594 55.875 C 107.773438 55.980469 107.878906 56.140625 107.878906 56.300781 C 107.878906 56.460938 107.773438 56.617188 107.558594 56.722656 L 102.785156 59.484375 C 102.519531 59.589844 102.203125 59.695312 101.882812 59.695312 Z M 101.882812 59.695312 " fill-opacity="1" fill-rule="nonzero"/><path fill="#43455e" d="M 110.050781 55.1875 C 109.679688 55.1875 109.363281 55.132812 109.152344 54.972656 L 99.496094 49.402344 C 99.285156 49.296875 99.179688 49.136719 99.179688 48.976562 C 99.179688 48.820312 99.285156 48.660156 99.496094 48.554688 L 104.269531 45.792969 C 104.535156 45.636719 104.855469 45.582031 105.171875 45.582031 C 105.542969 45.582031 105.863281 45.636719 106.074219 45.792969 L 115.726562 51.367188 C 115.941406 51.472656 116.046875 51.632812 116.046875 51.789062 C 116.046875 51.949219 115.941406 52.109375 115.726562 52.214844 L 110.953125 54.972656 C 110.742188 55.078125 110.371094 55.1875 110.050781 55.1875 Z M 110.050781 55.1875 " fill-opacity="1" fill-rule="nonzero"/></g></g></g><path fill="#e4e1f9" d="M 245.722656 61.644531 L 155.386719 9.488281 C 154.910156 9.222656 154.433594 9.113281 153.957031 9.0625 L 152.523438 9.0625 C 151.144531 9.0625 150.191406 10.335938 149.554688 12.03125 L 217.980469 135.820312 C 218.511719 136.136719 219.097656 136.242188 219.679688 136.191406 C 219.574219 136.191406 219.519531 136.191406 219.414062 136.191406 L 220.847656 136.191406 C 222.226562 136.191406 223.5 135.183594 224.082031 133.539062 L 247.367188 67.585938 C 248.269531 65.355469 247.476562 62.652344 245.722656 61.644531 Z M 245.722656 61.644531 " fill-opacity="1" fill-rule="nonzero"/><path fill="#43455e" d="M 244.292969 61.644531 C 246.042969 62.652344 246.839844 65.355469 246.042969 67.636719 L 222.757812 133.589844 C 221.960938 135.871094 219.839844 136.878906 218.089844 135.871094 L 127.804688 83.714844 C 126.054688 82.707031 125.257812 80 126.054688 77.71875 L 149.339844 11.769531 C 150.136719 9.488281 152.257812 8.476562 154.007812 9.488281 Z M 244.292969 61.644531 " fill-opacity="1" fill-rule="nonzero"/><path fill="#464eab" d="M 241.800781 65.78125 L 219.253906 129.664062 L 130.5625 78.460938 L 153.109375 14.527344 Z M 241.800781 65.78125 " fill-opacity="1" fill-rule="nonzero"/><path fill="#43455e" d="M 244.238281 65.515625 L 220.6875 132.210938 L 128.125 78.726562 Z M 244.238281 65.515625 " fill-opacity="0.2" fill-rule="nonzero"/><g mask="url(#76402cfbb5)"><g transform="matrix(1, 0, 0, 1, 155, 31)"><g clip-path="url(#ec6865a2c8)"><path fill="#e4e1f9" d="M 17.839844 19.554688 L 16.726562 22.683594 L 14.339844 21.25 L 15.453125 18.175781 Z M 17.839844 19.554688 " fill-opacity="1" fill-rule="nonzero"/><path fill="#e4e1f9" d="M 19.378906 15.257812 L 18.265625 18.332031 L 15.878906 16.953125 L 16.9375 13.875 Z M 19.378906 15.257812 " fill-opacity="1" fill-rule="nonzero"/><path fill="#e4e1f9" d="M 20.863281 10.90625 L 19.804688 14.035156 L 17.363281 12.65625 L 18.476562 9.527344 Z M 20.863281 10.90625 " fill-opacity="1" fill-rule="nonzero"/><path fill="#e4e1f9" d="M 22.402344 6.605469 L 21.289062 9.738281 L 18.902344 8.304688 L 20.015625 5.226562 Z M 22.402344 6.605469 " fill-opacity="1" fill-rule="nonzero"/><g clip-path="url(#fcf5326c84)"><path fill="#e4e1f9" d="M 23.941406 2.308594 L 22.828125 5.386719 L 20.441406 4.007812 L 21.5 0.878906 Z M 23.941406 2.308594 " fill-opacity="1" fill-rule="nonzero"/></g><path fill="#e4e1f9" d="M 16.300781 23.851562 L 15.242188 26.980469 L 12.800781 25.601562 L 13.914062 22.472656 Z M 16.300781 23.851562 " fill-opacity="1" fill-rule="nonzero"/><path fill="#e4e1f9" d="M 11.742188 36.796875 L 10.625 39.929688 L 8.238281 38.546875 L 9.351562 35.417969 Z M 11.742188 36.796875 " fill-opacity="1" fill-rule="nonzero"/><path fill="#e4e1f9" d="M 13.277344 32.5 L 12.164062 35.628906 L 9.777344 34.199219 L 10.839844 31.121094 Z M 13.277344 32.5 " fill-opacity="1" fill-rule="nonzero"/><path fill="#e4e1f9" d="M 14.816406 28.203125 L 13.703125 31.28125 L 11.261719 29.898438 L 12.375 26.824219 Z M 14.816406 28.203125 " fill-opacity="1" fill-rule="nonzero"/><path fill="#e4e1f9" d="M 7.179688 49.742188 L 6.0625 52.875 L 3.675781 51.496094 L 4.792969 48.363281 Z M 7.179688 49.742188 " fill-opacity="1" fill-rule="nonzero"/><path fill="#e4e1f9" d="M 8.714844 45.445312 L 7.601562 48.578125 L 5.214844 47.144531 L 6.277344 44.066406 Z M 8.714844 45.445312 " fill-opacity="1" fill-rule="nonzero"/><path fill="#e4e1f9" d="M 10.203125 41.148438 L 9.140625 44.226562 L 6.699219 42.847656 L 7.816406 39.769531 Z M 10.203125 41.148438 " fill-opacity="1" fill-rule="nonzero"/><g clip-path="url(#9e21bd0be0)"><path fill="#e4e1f9" d="M 4.15625 58.394531 L 3.039062 61.523438 L 0.601562 60.089844 L 1.714844 57.011719 Z M 4.15625 58.394531 " fill-opacity="1" fill-rule="nonzero"/></g><path fill="#e4e1f9" d="M 5.640625 54.09375 L 4.578125 57.171875 L 2.140625 55.792969 L 3.253906 52.714844 Z M 5.640625 54.09375 " fill-opacity="1" fill-rule="nonzero"/><path fill="#e4e1f9" d="M 50.144531 23.003906 L 49.03125 26.078125 L 24.101562 11.699219 L 25.214844 8.570312 Z M 50.144531 23.003906 " fill-opacity="1" fill-rule="nonzero"/><path fill="#e4e1f9" d="M 28.503906 15.679688 L 27.386719 18.8125 L 22.5625 16 L 23.675781 12.921875 Z M 28.503906 15.679688 " fill-opacity="1" fill-rule="nonzero"/><path fill="#e4e1f9" d="M 46.804688 15.894531 L 45.742188 18.96875 L 25.636719 7.402344 L 26.699219 4.273438 Z M 46.804688 15.894531 " fill-opacity="1" fill-rule="nonzero"/><path fill="#e4e1f9" d="M 49.507812 33.03125 L 48.394531 36.109375 L 23.464844 21.730469 L 24.578125 18.597656 Z M 49.507812 33.03125 " fill-opacity="1" fill-rule="nonzero"/><path fill="#e4e1f9" d="M 22.402344 32.976562 L 21.289062 36.054688 L 16.460938 33.296875 L 17.574219 30.164062 Z M 22.402344 32.976562 " fill-opacity="1" fill-rule="nonzero"/><path fill="#e4e1f9" d="M 33.753906 44.703125 L 32.640625 47.832031 L 14.976562 37.59375 L 16.035156 34.464844 Z M 33.753906 44.703125 " fill-opacity="1" fill-rule="nonzero"/><path fill="#e4e1f9" d="M 53.699219 45.816406 L 52.585938 48.949219 L 20.441406 30.378906 L 21.5 27.246094 Z M 53.699219 45.816406 " fill-opacity="1" fill-rule="nonzero"/><g clip-path="url(#bdf26c03a3)"><path fill="#e4e1f9" d="M 57.625 42.898438 L 56.511719 46.03125 L 21.925781 26.027344 L 23.039062 22.949219 Z M 57.625 42.898438 " fill-opacity="1" fill-rule="nonzero"/></g><path fill="#e4e1f9" d="M 30.09375 63.378906 L 28.980469 66.457031 L 13.703125 57.648438 L 14.765625 54.519531 Z M 30.09375 63.378906 " fill-opacity="1" fill-rule="nonzero"/><path fill="#e4e1f9" d="M 35.769531 71.871094 L 34.707031 74.945312 L 12.164062 61.949219 L 13.277344 58.871094 Z M 35.769531 71.871094 " fill-opacity="1" fill-rule="nonzero"/><path fill="#e4e1f9" d="M 49.136719 58.765625 L 48.023438 61.894531 L 15.824219 43.324219 L 16.9375 40.195312 Z M 49.136719 58.765625 " fill-opacity="1" fill-rule="nonzero"/><path fill="#e4e1f9" d="M 49.984375 64.496094 L 48.925781 67.570312 L 14.339844 47.621094 L 15.398438 44.492188 Z M 49.984375 64.496094 " fill-opacity="1" fill-rule="nonzero"/><g clip-path="url(#1afaac2110)"><path fill="#e4e1f9" d="M 55.714844 72.984375 L 54.601562 76.0625 L 12.800781 51.917969 L 13.914062 48.84375 Z M 55.714844 72.984375 " fill-opacity="1" fill-rule="nonzero"/></g><path fill="#e4e1f9" d="M 14.179688 64.546875 L 13.066406 67.679688 L 8.238281 64.867188 L 9.351562 61.789062 Z M 14.179688 64.546875 " fill-opacity="1" fill-rule="nonzero"/></g></g></g><path fill="#e4e1f9" d="M 154.273438 32.140625 L 154.222656 34.902344 L 151.835938 33.523438 L 151.835938 30.761719 Z M 154.273438 32.140625 " fill-opacity="1" fill-rule="nonzero"/><path fill="#e4e1f9" d="M 154.222656 39.835938 L 154.222656 42.648438 L 151.835938 41.214844 L 151.835938 38.457031 Z M 154.222656 39.835938 " fill-opacity="1" fill-rule="nonzero"/><path fill="#e4e1f9" d="M 154.222656 36.015625 L 154.222656 38.773438 L 151.835938 37.394531 L 151.835938 34.582031 Z M 154.222656 36.015625 " fill-opacity="1" fill-rule="nonzero"/><path fill="#e4e1f9" d="M 154.167969 55.277344 L 154.167969 58.035156 L 151.78125 56.65625 L 151.78125 53.894531 Z M 154.167969 55.277344 " fill-opacity="1" fill-rule="nonzero"/><path fill="#e4e1f9" d="M 154.222656 51.402344 L 154.167969 54.214844 L 151.78125 52.78125 L 151.78125 50.023438 Z M 154.222656 51.402344 " fill-opacity="1" fill-rule="nonzero"/><path fill="#e4e1f9" d="M 154.222656 47.582031 L 154.222656 50.339844 L 151.78125 48.960938 L 151.78125 46.203125 Z M 154.222656 47.582031 " fill-opacity="1" fill-rule="nonzero"/><path fill="#e4e1f9" d="M 154.222656 43.710938 L 154.222656 46.46875 L 151.78125 45.089844 L 151.835938 42.328125 Z M 154.222656 43.710938 " fill-opacity="1" fill-rule="nonzero"/><path fill="#e4e1f9" d="M 154.167969 59.148438 L 154.167969 61.910156 L 151.78125 60.527344 L 151.78125 57.769531 Z M 154.167969 59.148438 " fill-opacity="1" fill-rule="nonzero"/><path fill="#e4e1f9" d="M 154.117188 78.410156 L 154.117188 81.167969 L 151.726562 79.789062 L 151.726562 77.03125 Z M 154.117188 78.410156 " fill-opacity="1" fill-rule="nonzero"/><path fill="#e4e1f9" d="M 154.117188 74.589844 L 154.117188 77.347656 L 151.726562 75.96875 L 151.726562 73.15625 Z M 154.117188 74.589844 " fill-opacity="1" fill-rule="nonzero"/><path fill="#e4e1f9" d="M 154.167969 70.714844 L 154.117188 73.476562 L 151.726562 72.09375 L 151.726562 69.335938 Z M 154.167969 70.714844 " fill-opacity="1" fill-rule="nonzero"/><path fill="#e4e1f9" d="M 154.167969 66.84375 L 154.167969 69.601562 L 151.726562 68.222656 L 151.726562 65.464844 Z M 154.167969 66.84375 " fill-opacity="1" fill-rule="nonzero"/><path fill="#e4e1f9" d="M 154.167969 62.96875 L 154.167969 65.78125 L 151.726562 64.347656 L 151.78125 61.589844 Z M 154.167969 62.96875 " fill-opacity="1" fill-rule="nonzero"/><path fill="#e4e1f9" d="M 154.117188 82.28125 L 154.117188 85.042969 L 151.675781 83.664062 L 151.726562 80.902344 Z M 154.117188 82.28125 " fill-opacity="1" fill-rule="nonzero"/><path fill="#fec9b7" d="M 161.964844 44.609375 L 161.964844 47.371094 L 157.140625 44.558594 L 157.140625 41.800781 Z M 161.964844 44.609375 " fill-opacity="1" fill-rule="nonzero"/><path fill="#fec9b7" d="M 164.246094 88.382812 L 164.246094 91.195312 L 159.421875 88.382812 L 159.421875 85.625 Z M 164.246094 88.382812 " fill-opacity="1" fill-rule="nonzero"/><path fill="#fec9b7" d="M 177.136719 88.121094 L 177.136719 90.878906 L 161.859375 82.070312 L 161.859375 79.3125 Z M 177.136719 88.121094 " fill-opacity="1" fill-rule="nonzero"/><path fill="#fec9b7" d="M 161.914062 60 L 161.914062 62.808594 L 157.085938 60 L 157.085938 57.238281 Z M 161.914062 60 " fill-opacity="1" fill-rule="nonzero"/><path fill="#e4e1f9" d="M 184.351562 96.183594 L 184.351562 98.941406 L 161.859375 85.945312 L 161.859375 83.132812 Z M 184.351562 96.183594 " fill-opacity="1" fill-rule="nonzero"/><path fill="#fec9b7" d="M 174.75 71.300781 L 174.75 74.058594 L 157.085938 63.871094 L 157.085938 61.113281 Z M 174.75 71.300781 " fill-opacity="1" fill-rule="nonzero"/><path fill="#fec9b7" d="M 194.058594 90.1875 L 194.058594 92.949219 L 159.472656 72.945312 L 159.472656 70.183594 Z M 194.058594 90.1875 " fill-opacity="1" fill-rule="nonzero"/><path fill="#e4e1f9" d="M 191.671875 84.9375 L 191.617188 87.695312 L 159.472656 69.125 L 159.472656 66.3125 Z M 191.671875 84.9375 " fill-opacity="1" fill-rule="nonzero"/><path fill="#e4e1f9" d="M 201.273438 98.199219 L 201.273438 100.960938 L 159.421875 76.816406 L 159.472656 74.058594 Z M 201.273438 98.199219 " fill-opacity="1" fill-rule="nonzero"/><path fill="#fec9b7" d="M 184.457031 61.429688 L 184.457031 64.242188 L 159.527344 49.8125 L 159.527344 47.050781 Z M 184.457031 61.429688 " fill-opacity="1" fill-rule="nonzero"/><path fill="#fec9b7" d="M 191.671875 73.367188 L 191.671875 76.128906 L 159.527344 57.558594 L 159.527344 54.746094 Z M 191.671875 73.367188 " fill-opacity="1" fill-rule="nonzero"/><path fill="#e4e1f9" d="M 194.113281 70.875 L 194.113281 73.632812 L 159.527344 53.683594 L 159.527344 50.925781 Z M 194.113281 70.875 " fill-opacity="1" fill-rule="nonzero"/><path fill="#e4e1f9" d="M 182.070312 52.359375 L 182.070312 55.117188 L 157.140625 40.738281 L 157.140625 37.925781 Z M 182.070312 52.359375 " fill-opacity="1" fill-rule="nonzero"/><path fill="#fec9b7" d="M 177.242188 45.726562 L 177.242188 48.484375 L 157.140625 36.863281 L 157.140625 34.105469 Z M 177.242188 45.726562 " fill-opacity="1" fill-rule="nonzero"/><path fill="#43455e" d="M 256.121094 160.808594 L 253.574219 159.324219 C 253.789062 159.269531 254 159.21875 254.210938 159.113281 C 254.902344 158.6875 254.902344 158.050781 254.210938 157.679688 L 232.039062 144.679688 C 231.5625 144.414062 230.871094 144.308594 230.234375 144.414062 L 230.183594 144.414062 C 230.128906 144.414062 230.074219 144.414062 230.023438 144.46875 L 228.855469 144.734375 L 228.75 144.734375 C 228.589844 144.785156 228.378906 144.839844 228.273438 144.945312 C 227.582031 145.371094 227.582031 146.007812 228.273438 146.378906 L 250.445312 159.324219 C 250.921875 159.589844 251.664062 159.695312 252.25 159.589844 L 255.644531 161.550781 C 256.492188 162.03125 256.96875 162.933594 257.023438 163.886719 C 257.023438 164.84375 256.546875 165.742188 255.75 166.273438 L 253.679688 167.546875 C 250.816406 169.351562 247.210938 169.40625 244.238281 167.707031 L 215.699219 151.207031 L 216.496094 150.726562 C 217.132812 150.355469 217.132812 149.773438 216.496094 149.402344 L 211.5625 146.535156 L 206.789062 149.296875 L 211.722656 152.160156 C 212.359375 152.53125 213.367188 152.53125 214.003906 152.160156 L 214.691406 151.738281 L 243.707031 168.554688 C 245.300781 169.457031 247.050781 169.9375 248.800781 169.9375 C 250.65625 169.9375 252.515625 169.40625 254.160156 168.398438 L 256.226562 167.125 C 257.339844 166.433594 257.976562 165.214844 257.976562 163.941406 C 257.925781 162.613281 257.234375 161.445312 256.121094 160.808594 Z M 256.121094 160.808594 " fill-opacity="0.05" fill-rule="nonzero"/><path fill="#e4e1f9" d="M 250.179688 102.976562 L 234.480469 93.902344 C 233.894531 93.585938 233.417969 93.476562 232.992188 93.476562 C 232.515625 93.476562 232.199219 93.636719 231.984375 93.742188 L 231.828125 93.847656 C 231.773438 93.902344 231.71875 93.902344 231.71875 93.957031 C 230.820312 94.59375 230.820312 95.652344 230.765625 96.078125 L 230.660156 138.789062 C 230.660156 139.53125 230.871094 140.433594 231.347656 141.335938 C 231.828125 142.1875 232.515625 143.035156 233.472656 143.617188 L 249.171875 152.691406 C 250.5 153.433594 251.347656 153.011719 251.613281 152.902344 L 251.664062 152.851562 L 251.773438 152.796875 C 251.824219 152.746094 251.878906 152.691406 251.929688 152.691406 C 252.726562 152.054688 252.78125 151.046875 252.78125 150.621094 L 252.886719 107.910156 C 252.9375 106.265625 252.089844 104.144531 250.179688 102.976562 Z M 250.179688 102.976562 " fill-opacity="1" fill-rule="nonzero"/><path fill="#43455e" d="M 248.855469 104.671875 C 249.914062 105.257812 250.710938 106.742188 250.710938 107.910156 L 250.605469 149.5625 C 250.605469 150.726562 249.757812 151.207031 248.75 150.621094 L 233.046875 141.550781 C 231.984375 140.964844 231.191406 139.480469 231.191406 138.3125 L 231.296875 96.660156 C 231.296875 95.496094 232.144531 94.964844 233.152344 95.601562 L 235.328125 96.875 C 235.644531 97.03125 235.859375 97.457031 235.859375 97.777344 L 235.859375 98.253906 C 235.859375 98.941406 236.335938 99.738281 236.917969 100.109375 L 245.035156 104.78125 C 245.617188 105.097656 246.097656 104.832031 246.097656 104.144531 L 246.097656 103.664062 C 246.097656 103.347656 246.359375 103.1875 246.625 103.347656 Z M 248.855469 104.671875 " fill-opacity="1" fill-rule="nonzero"/><path fill="#43455e" d="M 243.65625 102.074219 C 243.816406 102.179688 243.972656 102.445312 243.972656 102.605469 C 243.972656 102.816406 243.816406 102.871094 243.65625 102.761719 L 238.246094 99.632812 C 238.085938 99.527344 237.925781 99.261719 237.925781 99.101562 C 237.925781 98.890625 238.085938 98.835938 238.246094 98.941406 Z M 243.65625 102.074219 " fill-opacity="0.5" fill-rule="nonzero"/><path fill="#fec9b7" d="M 237.925781 136.613281 L 237.925781 141.441406 L 232.09375 138.046875 L 232.09375 133.21875 Z M 237.925781 136.613281 " fill-opacity="1" fill-rule="nonzero"/><path fill="#fec9b7" d="M 237.925781 130.300781 L 237.925781 135.128906 L 232.09375 131.734375 L 232.09375 126.90625 Z M 237.925781 130.300781 " fill-opacity="1" fill-rule="nonzero"/><path fill="#e4e1f9" d="M 247.210938 125.789062 L 247.210938 127.382812 L 234.265625 119.902344 L 234.265625 118.308594 Z M 247.210938 125.789062 " fill-opacity="1" fill-rule="nonzero"/><path fill="#fc5135" d="M 244.238281 127.328125 L 244.238281 130.460938 L 237.183594 126.425781 L 237.183594 123.242188 Z M 244.238281 127.328125 " fill-opacity="1" fill-rule="nonzero"/><path fill="#e4e1f9" d="M 248.589844 123.828125 L 248.589844 125.417969 L 232.886719 116.398438 L 232.886719 114.753906 Z M 248.589844 123.828125 " fill-opacity="1" fill-rule="nonzero"/><path fill="#e4e1f9" d="M 248.21875 118.46875 L 248.21875 119.636719 L 238.722656 114.117188 L 238.722656 113.003906 Z M 248.21875 118.46875 " fill-opacity="1" fill-rule="nonzero"/><path fill="#e4e1f9" d="M 247.261719 115.976562 L 247.261719 117.140625 L 238.722656 112.207031 L 238.722656 111.039062 Z M 247.261719 115.976562 " fill-opacity="1" fill-rule="nonzero"/><path fill="#e4e1f9" d="M 249.226562 115.179688 L 249.226562 116.347656 L 238.722656 110.246094 L 238.722656 109.128906 Z M 249.226562 115.179688 " fill-opacity="1" fill-rule="nonzero"/><path fill="#e4e1f9" d="M 239.675781 103.824219 L 239.675781 105.152344 L 232.039062 100.746094 L 232.039062 99.367188 Z M 239.675781 103.824219 " fill-opacity="1" fill-rule="nonzero"/><path fill="#464eab" d="M 234.585938 106.316406 C 235.964844 107.113281 237.078125 109.078125 237.078125 110.667969 C 237.078125 112.261719 235.964844 112.898438 234.53125 112.101562 C 233.152344 111.304688 232.039062 109.34375 232.039062 107.75 C 232.039062 106.160156 233.152344 105.523438 234.585938 106.316406 Z M 234.585938 106.316406 " fill-opacity="1" fill-rule="nonzero"/><path fill="#e4e1f9" d="M 249.226562 110.296875 L 249.226562 110.828125 L 246.519531 109.289062 L 246.574219 108.707031 Z M 249.226562 110.296875 " fill-opacity="1" fill-rule="nonzero"/><path fill="#e4e1f9" d="M 249.277344 109.128906 L 249.226562 109.714844 L 246.574219 108.175781 L 246.574219 107.589844 Z M 249.277344 109.128906 " fill-opacity="1" fill-rule="nonzero"/><path fill="#e4e1f9" d="M 245.246094 137.359375 L 245.246094 138.523438 L 238.777344 134.8125 L 238.777344 133.589844 Z M 245.246094 137.359375 " fill-opacity="1" fill-rule="nonzero"/><path fill="#e4e1f9" d="M 248.695312 137.304688 L 248.695312 138.523438 L 238.777344 132.792969 L 238.777344 131.574219 Z M 248.695312 137.304688 " fill-opacity="1" fill-rule="nonzero"/><path fill="#e4e1f9" d="M 246.203125 144.203125 L 246.203125 145.421875 L 238.777344 141.125 L 238.777344 139.90625 Z M 246.203125 144.203125 " fill-opacity="1" fill-rule="nonzero"/><path fill="#e4e1f9" d="M 243.550781 140.648438 L 243.550781 141.816406 L 238.777344 139.054688 L 238.777344 137.886719 Z M 243.550781 140.648438 " fill-opacity="1" fill-rule="nonzero"/><path fill="#43455e" d="M 216.390625 146.058594 L 212.199219 144.308594 L 207.425781 145.792969 L 207.425781 147.386719 L 212.359375 150.25 C 212.996094 150.621094 214.003906 150.621094 214.640625 150.25 L 217.132812 148.816406 C 217.453125 148.660156 217.609375 148.394531 217.609375 148.179688 L 217.609375 146.589844 C 217.609375 146.644531 217.609375 146.644531 217.609375 146.695312 C 217.609375 146.378906 216.761719 146.269531 216.390625 146.058594 Z M 216.390625 146.058594 " fill-opacity="1" fill-rule="nonzero"/><path fill="#e4e1f9" d="M 217.132812 145.898438 C 217.769531 146.269531 217.769531 146.855469 217.132812 147.226562 L 214.640625 148.660156 C 214.003906 149.03125 212.996094 149.03125 212.359375 148.660156 L 207.425781 145.792969 L 212.199219 143.035156 Z M 217.132812 145.898438 " fill-opacity="1" fill-rule="nonzero"/><path fill="#464eab" d="M 248.75 166.753906 C 246.996094 166.753906 245.246094 166.273438 243.65625 165.371094 L 215.808594 149.191406 C 215.59375 149.03125 215.488281 148.765625 215.648438 148.554688 C 215.808594 148.339844 216.070312 148.234375 216.285156 148.394531 L 244.132812 164.578125 C 246.945312 166.222656 250.5 166.222656 253.308594 164.578125 L 256.597656 162.667969 C 259.410156 161.023438 261.160156 157.996094 261.160156 154.761719 L 261.160156 123.296875 C 261.160156 120.007812 259.410156 116.984375 256.597656 115.390625 L 251.878906 112.632812 C 251.664062 112.472656 251.558594 112.207031 251.71875 111.996094 C 251.878906 111.785156 252.144531 111.675781 252.355469 111.835938 L 257.078125 114.59375 C 260.207031 116.398438 262.117188 119.742188 262.117188 123.351562 L 262.117188 154.8125 C 262.117188 158.421875 260.207031 161.765625 257.078125 163.570312 L 253.789062 165.480469 C 252.25 166.273438 250.5 166.753906 248.75 166.753906 Z M 248.75 166.753906 " fill-opacity="1" fill-rule="nonzero"/><path fill="#43455e" d="M 107.382812 86.050781 C 107.328125 85.945312 107.222656 85.890625 107.117188 85.890625 L 99.054688 87.429688 L 62.453125 106.054688 C 61.339844 106.582031 60.492188 107.699219 60.492188 109.023438 C 60.4375 110.882812 61.921875 112.421875 63.78125 112.472656 C 64.46875 112.472656 65.160156 112.3125 65.6875 111.941406 L 101.175781 91.300781 L 107.382812 86.367188 C 107.4375 86.210938 107.4375 86.101562 107.382812 86.050781 Z M 107.382812 86.050781 " fill-opacity="0.05" fill-rule="nonzero"/><g clip-path="url(#0468c456c8)"><path fill="#e4e1f9" d="M 106.109375 84.722656 C 106.054688 84.617188 105.949219 84.5625 105.84375 84.5625 L 97.726562 86.738281 L 61.128906 105.363281 C 60.011719 105.894531 59.164062 107.007812 59.164062 108.335938 C 59.113281 110.191406 60.597656 111.730469 62.453125 111.785156 C 63.144531 111.785156 63.832031 111.625 64.363281 111.253906 L 99.851562 90.613281 L 106.054688 84.988281 C 106.164062 84.9375 106.164062 84.828125 106.109375 84.722656 Z M 106.109375 84.722656 " fill-opacity="1" fill-rule="nonzero"/></g><path fill="#fec9b7" d="M 106.109375 84.722656 C 106.054688 84.617188 105.949219 84.5625 105.84375 84.5625 L 105.15625 84.722656 C 105.207031 84.988281 105.367188 85.253906 105.578125 85.414062 L 106.054688 84.988281 C 106.164062 84.9375 106.164062 84.828125 106.109375 84.722656 Z M 106.109375 84.722656 " fill-opacity="1" fill-rule="nonzero"/><path fill="#43455e" d="M 61.445312 104.460938 L 61.445312 105.097656 C 61.445312 105.308594 61.550781 105.46875 61.816406 105.628906 L 62.929688 106.316406 C 63.410156 106.636719 64.257812 106.636719 64.734375 106.371094 L 79.320312 98.414062 C 79.585938 98.253906 79.691406 98.09375 79.691406 97.882812 L 79.691406 97.246094 L 79.691406 97.296875 C 79.746094 97.085938 61.5 104.25 61.445312 104.460938 Z M 61.445312 104.460938 " fill-opacity="1" fill-rule="nonzero"/><path fill="#464eab" d="M 79.375 96.714844 C 79.851562 97.03125 79.851562 97.511719 79.375 97.777344 L 64.789062 105.734375 C 64.308594 106 63.460938 106 62.984375 105.679688 L 61.871094 104.992188 C 61.390625 104.671875 61.390625 104.195312 61.871094 103.929688 L 76.457031 95.972656 C 76.933594 95.707031 77.785156 95.707031 78.261719 96.023438 Z M 79.375 96.714844 " fill-opacity="1" fill-rule="nonzero"/><path fill="#43455e" d="M 194.695312 172.324219 C 192.148438 172.003906 190.875 171.84375 189.65625 171.421875 C 189.445312 171.367188 187.800781 170.785156 185.570312 170.414062 C 184.667969 170.253906 184.140625 170.199219 183.609375 170.414062 C 182.386719 170.890625 181.488281 172.324219 181.859375 173.171875 C 182.015625 173.597656 182.441406 173.597656 184.351562 174.339844 C 185.199219 174.65625 186.101562 174.976562 186.84375 175.347656 C 187.90625 175.878906 188.4375 176.355469 189.816406 177.523438 C 190.980469 178.476562 192.625 179.859375 193.476562 180.496094 C 194.90625 181.609375 196.179688 182.296875 198.726562 183.625 C 202.863281 185.800781 204.933594 186.914062 206.734375 187.285156 C 210.023438 187.921875 213.84375 187.605469 214.269531 186.277344 C 214.535156 185.429688 213.15625 184.949219 212.941406 182.988281 C 212.835938 182.140625 213.101562 181.925781 213.261719 179.539062 C 213.3125 178.585938 213.3125 178.105469 213.261719 177.789062 C 212.996094 176.675781 212.199219 175.824219 210.980469 175.027344 C 208.0625 173.066406 204.71875 172.589844 204.03125 172.480469 C 199.894531 171.953125 199.628906 172.90625 194.695312 172.324219 Z M 194.695312 172.324219 " fill-opacity="0.05" fill-rule="nonzero"/><path fill="#e4e1f9" d="M 204.507812 126.054688 C 204.773438 126.214844 205.464844 126.640625 205.992188 127.4375 C 206.257812 127.859375 206.683594 128.550781 206.472656 129.132812 C 206.152344 129.980469 204.347656 129.980469 203.660156 129.980469 C 202.652344 129.980469 201.21875 129.980469 200.265625 128.921875 C 200.160156 128.761719 199.152344 127.753906 199.46875 126.851562 C 199.839844 125.527344 202.703125 125.101562 204.507812 126.054688 Z M 204.507812 126.054688 " fill-opacity="1" fill-rule="nonzero"/><path fill="#e4e1f9" d="M 205.464844 127.699219 C 205.410156 127.808594 205.304688 127.914062 205.199219 128.019531 C 205.039062 128.125 204.828125 128.125 204.667969 128.230469 C 203.871094 128.550781 203.128906 128.445312 202.597656 128.335938 C 201.960938 128.230469 201.324219 128.125 200.742188 127.542969 C 200.582031 127.382812 200.210938 127.171875 200.105469 126.851562 C 200.105469 126.746094 200.050781 126.640625 200.105469 126.535156 C 200.105469 126.320312 200.210938 126.214844 200.371094 126.054688 C 200.53125 125.898438 200.6875 125.84375 200.796875 125.738281 C 201.855469 125.101562 203.660156 125.046875 204.773438 126.054688 C 204.773438 126.054688 205.039062 126.320312 205.304688 126.640625 C 205.464844 126.957031 205.621094 127.382812 205.464844 127.699219 Z M 205.464844 127.699219 " fill-opacity="1" fill-rule="nonzero"/><path fill="#43455e" d="M 212.785156 177.734375 C 212.730469 177.523438 212.625 177.3125 212.519531 177.152344 C 212.253906 176.832031 211.933594 176.675781 211.828125 176.621094 C 211.351562 176.410156 210.875 176.410156 210.554688 176.460938 C 209.175781 176.675781 208.0625 177.257812 207.480469 177.574219 C 204.402344 179.273438 203.765625 179.273438 203.449219 180.175781 C 203.339844 180.441406 203.339844 180.707031 203.339844 181.023438 C 203.339844 181.34375 203.449219 181.660156 203.660156 181.925781 C 204.242188 182.722656 205.410156 182.667969 205.78125 182.667969 C 206.578125 182.617188 207.214844 182.296875 207.480469 182.140625 C 207.480469 181.925781 207.480469 181.769531 207.425781 181.554688 C 207.636719 181.554688 208.007812 181.503906 208.378906 181.449219 C 209.601562 181.289062 210.449219 181.183594 211.191406 180.546875 C 211.511719 180.28125 211.667969 180.015625 212.039062 179.484375 C 212.625 178.691406 212.890625 178.265625 212.785156 177.734375 Z M 212.785156 177.734375 " fill-opacity="1" fill-rule="nonzero"/><path fill="#43455e" d="M 204.136719 172.429688 C 204.085938 172.21875 203.976562 172.003906 203.871094 171.84375 C 203.605469 171.527344 203.289062 171.367188 203.183594 171.316406 C 202.703125 171.101562 202.226562 171.101562 201.910156 171.15625 C 200.53125 171.367188 199.417969 171.953125 198.832031 172.269531 C 195.757812 173.96875 195.121094 173.96875 194.800781 174.871094 C 194.695312 175.136719 194.695312 175.402344 194.695312 175.71875 C 194.695312 176.039062 194.800781 176.355469 195.011719 176.621094 C 195.597656 177.417969 196.765625 177.363281 197.136719 177.363281 C 197.929688 177.3125 198.566406 176.992188 198.832031 176.832031 C 198.832031 176.621094 198.832031 176.460938 198.78125 176.25 C 198.992188 176.25 199.363281 176.195312 199.734375 176.144531 C 200.953125 175.984375 201.804688 175.878906 202.546875 175.242188 C 202.863281 174.976562 203.023438 174.710938 203.394531 174.179688 C 203.925781 173.382812 204.242188 172.960938 204.136719 172.429688 Z M 204.136719 172.429688 " fill-opacity="1" fill-rule="nonzero"/><path fill="#464eab" d="M 196.5 148.925781 C 196.65625 152.796875 196.285156 155.820312 195.914062 157.839844 C 195.4375 160.277344 195.066406 160.914062 194.800781 163.355469 C 194.535156 165.691406 194.800781 165.957031 194.800781 170.519531 C 194.800781 174.710938 194.589844 175.984375 195.332031 176.355469 C 196.5 176.9375 198.832031 174.816406 199.097656 174.550781 C 199.574219 174.074219 200 173.703125 200.265625 173.117188 C 200.902344 171.6875 200.265625 170.414062 200 168.769531 C 199.789062 167.496094 200 166.222656 200.425781 163.621094 C 201.167969 159.164062 202.386719 158.261719 203.078125 154.8125 C 203.449219 153.011719 203.710938 150.410156 203.078125 147.066406 C 201.804688 146.589844 200.476562 146.058594 199.203125 145.582031 C 198.25 146.75 197.398438 147.808594 196.5 148.925781 Z M 196.5 148.925781 " fill-opacity="1" fill-rule="nonzero"/><path fill="#464eab" d="M 200.371094 149.5625 C 200.742188 150.675781 201.273438 152.160156 201.75 154.019531 C 202.863281 158.421875 202.96875 161.921875 203.023438 163.195312 C 203.078125 165.480469 202.863281 165.480469 202.703125 169.40625 C 202.386719 175.664062 202.175781 180.917969 204.03125 181.609375 C 204.613281 181.820312 205.199219 181.503906 205.992188 181.132812 C 207.160156 180.546875 208.488281 179.328125 208.699219 177.789062 C 208.859375 176.566406 208.222656 176.460938 207.902344 174.550781 C 207.691406 173.332031 207.902344 172.746094 208.117188 170.414062 C 208.378906 167.917969 208.222656 167.761719 208.433594 165.796875 C 208.699219 162.71875 209.230469 161.128906 209.496094 159.375 C 209.867188 157.148438 210.132812 153.859375 209.230469 149.507812 C 206.257812 149.453125 203.289062 149.507812 200.371094 149.5625 Z M 200.371094 149.5625 " fill-opacity="1" fill-rule="nonzero"/><path fill="#fec9b7" d="M 195.226562 141.335938 C 195.382812 142.929688 197.773438 143.988281 198.832031 143.40625 C 199.308594 143.140625 199.417969 142.558594 199.46875 142.398438 C 199.679688 141.441406 198.886719 140.59375 198.460938 140.117188 C 197.929688 139.585938 197.453125 139.054688 196.816406 139.109375 C 195.914062 139.214844 195.171875 140.382812 195.226562 141.335938 Z M 195.226562 141.335938 " fill-opacity="1" fill-rule="nonzero"/><path fill="#e4e1f9" d="M 194.640625 141.179688 C 194.695312 141.441406 194.855469 141.707031 195.171875 141.816406 C 196.234375 142.238281 198.25 140.167969 197.878906 139.375 C 197.773438 139.109375 197.398438 139.003906 197.292969 138.949219 C 196.074219 138.632812 194.375 140.167969 194.640625 141.179688 Z M 194.640625 141.179688 " fill-opacity="1" fill-rule="nonzero"/><path fill="#43455e" d="M 195.914062 135.925781 C 195.382812 135.183594 194.695312 134.066406 194.003906 132.582031 C 195.277344 132 195.914062 131.628906 196.128906 131.46875 C 197.984375 129.558594 197.292969 126.269531 197.136719 125.632812 C 196.921875 125.632812 196.605469 125.578125 196.234375 125.632812 C 194.960938 125.84375 194.375 126.800781 193.316406 127.808594 C 191.300781 129.824219 190.238281 129.558594 189.445312 131.148438 C 189.285156 131.519531 188.859375 132.371094 189.179688 133.324219 C 189.230469 133.484375 189.335938 133.695312 189.445312 133.800781 C 189.921875 134.546875 191.140625 135.660156 192.359375 138.101562 C 193.210938 139.796875 193.582031 141.230469 194.589844 141.335938 C 195.121094 141.390625 195.597656 141.125 196.074219 140.804688 C 196.390625 140.59375 197.398438 140.011719 197.613281 139.109375 C 197.773438 138.3125 197.027344 137.570312 195.914062 135.925781 Z M 195.914062 135.925781 " fill-opacity="1" fill-rule="nonzero"/><path fill="#fec9b7" d="M 205.09375 127.171875 C 205.039062 127.59375 205.144531 127.808594 205.25 128.019531 C 205.09375 128.125 204.878906 128.230469 204.71875 128.285156 C 203.925781 128.601562 203.183594 128.496094 202.652344 128.390625 C 202.015625 128.285156 201.324219 128.179688 200.742188 127.59375 C 200.582031 127.4375 200.265625 127.171875 200.160156 126.800781 C 200.265625 126.746094 200.316406 126.640625 200.371094 126.535156 C 200.476562 126.375 200.425781 126.164062 200.425781 126.003906 C 200.371094 125.738281 200.160156 125.417969 200.210938 125.046875 C 200.371094 123.667969 203.074219 122.023438 204.878906 122.980469 C 205.621094 123.351562 206.363281 124.304688 206.207031 125.101562 C 206.101562 125.738281 205.570312 125.949219 205.304688 126.535156 C 205.144531 126.800781 205.09375 126.957031 205.09375 127.171875 Z M 205.09375 127.171875 " fill-opacity="1" fill-rule="nonzero"/><path fill="#43455e" d="M 209.015625 151.207031 C 207.902344 152.53125 205.941406 152.636719 204.242188 152.691406 C 203.289062 152.746094 199.894531 152.851562 199.203125 151.257812 C 198.992188 150.835938 199.042969 150.25 199.152344 149.03125 C 199.203125 148.289062 199.308594 147.652344 199.417969 147.171875 C 199.203125 147.4375 198.992188 147.863281 198.78125 148.339844 C 198.25 149.5625 198.355469 150.355469 197.929688 150.464844 C 197.453125 150.621094 196.765625 149.71875 196.710938 149.613281 C 196.074219 148.765625 196.074219 147.863281 196.074219 147.386719 C 196.074219 145.316406 196.445312 143.617188 196.550781 143.035156 C 197.292969 139.425781 196.605469 136.347656 196.390625 135.339844 C 196.019531 133.75 195.808594 132.742188 195.226562 131.46875 C 194.855469 130.617188 194.589844 130.355469 194.484375 129.609375 C 194.429688 129.398438 194.164062 127.4375 195.4375 126.269531 C 195.597656 126.109375 195.96875 125.789062 196.5 125.632812 C 197.136719 125.417969 197.558594 125.578125 198.621094 125.632812 C 198.78125 125.632812 198.992188 125.683594 199.203125 125.683594 C 199.574219 125.683594 199.945312 125.738281 200.425781 125.683594 C 200.316406 125.738281 199.417969 126.214844 199.417969 126.800781 C 199.417969 127.222656 199.789062 127.488281 200.371094 127.859375 C 200.902344 128.179688 201.589844 128.707031 202.492188 128.921875 C 204.878906 129.503906 205.941406 128.285156 207.214844 129.132812 C 207.796875 129.558594 208.117188 130.246094 208.117188 130.300781 C 208.273438 130.566406 208.644531 130.9375 208.699219 131.414062 C 208.753906 131.628906 208.804688 131.890625 208.804688 132.15625 C 209.175781 135.289062 209.230469 142.824219 209.386719 146.429688 C 209.652344 149.03125 209.867188 150.144531 209.015625 151.207031 Z M 209.015625 151.207031 " fill-opacity="1" fill-rule="nonzero"/><path fill="#fec9b7" d="M 208.167969 152.957031 C 208.0625 153.273438 208.007812 153.699219 207.957031 154.230469 C 207.957031 154.707031 208.007812 155.132812 208.0625 155.449219 C 207.957031 155.238281 207.796875 155.027344 207.746094 155.078125 C 207.585938 155.132812 207.480469 155.769531 207.691406 156.300781 C 208.0625 157.09375 209.175781 157.308594 210.023438 157.148438 C 210.183594 157.09375 210.980469 156.9375 211.191406 156.457031 C 211.246094 156.351562 211.246094 156.300781 211.246094 155.609375 C 211.246094 155.34375 211.246094 155.132812 211.246094 154.921875 C 211.351562 154.921875 211.457031 154.921875 211.5625 154.8125 C 211.617188 154.761719 211.722656 154.601562 211.667969 154.070312 C 211.617188 153.648438 211.5625 153.222656 211.296875 152.691406 C 211.140625 152.425781 211.03125 152.265625 210.875 152.160156 C 209.972656 152.425781 209.070312 152.691406 208.167969 152.957031 Z M 208.167969 152.957031 " fill-opacity="1" fill-rule="nonzero"/><path fill="#e4e1f9" d="M 207.902344 152.214844 C 207.636719 152.480469 207.691406 153.117188 207.957031 153.433594 C 208.59375 154.175781 210.820312 153.804688 211.351562 152.691406 C 211.511719 152.320312 211.5625 151.789062 211.351562 151.628906 C 211.085938 151.417969 210.660156 151.894531 209.707031 152.109375 C 208.699219 152.265625 208.222656 151.894531 207.902344 152.214844 Z M 207.902344 152.214844 " fill-opacity="1" fill-rule="nonzero"/><path fill="#43455e" d="M 208.910156 132.6875 C 208.433594 132.847656 207.902344 133.058594 207.371094 133.324219 C 205.675781 134.226562 204.613281 135.554688 204.085938 136.402344 C 204.5625 137.410156 205.199219 139.054688 205.78125 141.125 C 207.585938 147.917969 206.207031 152.425781 208.167969 153.328125 C 209.175781 153.804688 210.714844 153.117188 211.296875 152.214844 C 211.777344 151.472656 211.5625 150.675781 211.351562 149.242188 C 210.925781 146.589844 211.402344 147.492188 210.925781 144.203125 C 210.449219 140.914062 210.078125 140.167969 209.441406 136.402344 C 209.175781 134.8125 209.015625 133.484375 208.910156 132.6875 Z M 208.910156 132.6875 " fill-opacity="1" fill-rule="nonzero"/><path fill="#43455e" d="M 208.910156 132.265625 C 208.699219 131.945312 208.644531 131.042969 207.902344 130.566406 C 207.425781 130.246094 206.949219 130.300781 206.628906 130.355469 C 206.046875 130.40625 202.015625 130.566406 199.789062 128.867188 C 199.628906 128.761719 198.195312 127.648438 198.460938 126.640625 C 198.515625 126.480469 198.621094 126.109375 199.257812 125.738281 C 199.628906 125.738281 200 125.789062 200.476562 125.738281 C 200.371094 125.789062 199.628906 126.214844 199.628906 126.800781 C 199.628906 126.957031 199.679688 127.328125 200.6875 127.964844 C 201.324219 128.390625 201.75 128.65625 202.597656 128.867188 C 205.09375 129.503906 206.3125 128.179688 207.53125 129.082031 C 207.796875 129.292969 208.273438 129.769531 208.539062 130.40625 C 208.699219 130.777344 208.804688 131.203125 208.859375 131.46875 C 208.859375 131.785156 208.859375 132.050781 208.910156 132.265625 Z M 208.910156 132.265625 " fill-opacity="1" fill-rule="nonzero"/><path fill="#fec9b7" d="M 206.257812 119.847656 C 206.472656 120.058594 207.054688 120.484375 207.265625 121.28125 C 207.371094 121.707031 207.265625 121.8125 207.320312 122.660156 C 207.371094 123.933594 207.585938 123.933594 207.480469 124.464844 C 207.320312 125.207031 206.789062 125.84375 206.101562 126.214844 C 205.515625 126.480469 205.039062 126.425781 204.773438 126.425781 C 203.023438 126.320312 201.910156 124.730469 201.75 124.515625 C 201.058594 123.507812 200.050781 121.175781 201.324219 119.742188 C 202.597656 118.363281 205.09375 118.894531 206.257812 119.847656 Z M 206.257812 119.847656 " fill-opacity="1" fill-rule="nonzero"/><path fill="#fc5135" d="M 206.949219 119.953125 C 206.949219 120.273438 206.734375 120.324219 206.363281 121.28125 C 206.207031 121.652344 206.152344 121.863281 206.101562 122.078125 C 205.992188 122.714844 206.207031 122.871094 206.101562 123.617188 C 206.101562 123.722656 205.992188 124.570312 205.726562 124.625 C 205.515625 124.625 205.464844 124.253906 205.144531 124.199219 C 205.09375 124.199219 204.878906 124.199219 204.347656 124.835938 C 203.871094 125.472656 203.925781 125.632812 203.605469 125.898438 C 203.339844 126.164062 202.96875 126.214844 202.332031 126.320312 C 201.695312 126.425781 201.273438 126.480469 200.796875 126.320312 C 200.265625 126.164062 199.894531 125.789062 199.789062 125.632812 C 199.308594 125.152344 199.203125 124.625 198.992188 123.722656 C 198.78125 122.765625 198.78125 122.023438 198.78125 121.546875 C 198.78125 121.121094 198.832031 120.804688 198.9375 120.378906 C 199.042969 120.058594 199.257812 119.371094 199.839844 118.894531 C 200.265625 118.574219 200.6875 118.46875 201.589844 118.257812 C 201.75 118.203125 201.695312 118.257812 203.074219 117.992188 C 203.976562 117.832031 203.976562 117.832031 204.085938 117.832031 C 204.984375 117.832031 205.675781 118.308594 205.835938 118.414062 C 206.257812 118.628906 207 119.210938 206.949219 119.953125 Z M 206.949219 119.953125 " fill-opacity="1" fill-rule="nonzero"/><path fill="#43455e" d="M 169.128906 171.207031 C 169.074219 171.84375 168.914062 172.375 168.703125 172.855469 L 162.972656 176.195312 C 161.222656 177.203125 158.359375 177.203125 156.554688 176.195312 L 147.484375 170.945312 C 147.855469 169.617188 148.175781 168.34375 148.546875 167.015625 C 153.796875 161.445312 160.851562 160.171875 164.460938 162.613281 C 165.890625 163.621094 167.75 165.796875 168.648438 168.398438 C 169.234375 169.988281 169.179688 170.890625 169.128906 171.207031 Z M 169.128906 171.207031 " fill-opacity="0.05" fill-rule="nonzero"/><path fill="#43455e" d="M 143.773438 183.625 C 143.613281 183.09375 143.292969 182.617188 143.082031 182.351562 C 141.703125 182.296875 140.269531 182.191406 138.890625 182.140625 C 138.625 182.828125 138.359375 183.359375 138.148438 183.675781 C 137.460938 184.792969 136.769531 185.164062 136.609375 186.171875 L 136.609375 186.222656 C 136.558594 186.488281 136.558594 186.753906 136.664062 187.019531 C 137.035156 187.65625 138.203125 187.710938 138.890625 187.605469 C 140.269531 187.390625 140.21875 186.597656 142.605469 185.324219 C 143.082031 185.058594 143.398438 184.898438 143.613281 184.632812 C 143.664062 184.578125 143.664062 184.527344 143.71875 184.421875 C 143.878906 184.207031 143.878906 183.941406 143.773438 183.625 Z M 143.773438 183.625 " fill-opacity="1" fill-rule="nonzero"/><path fill="#43455e" d="M 165.097656 186.117188 C 165.042969 185.746094 164.9375 185.164062 164.9375 184.472656 C 163.824219 184.3125 162.707031 184.207031 161.59375 184.050781 C 161.542969 184.421875 161.4375 184.949219 161.488281 185.640625 C 161.542969 186.277344 161.648438 186.382812 161.699219 187.019531 C 161.753906 187.550781 161.699219 187.871094 161.648438 188.082031 C 161.648438 188.242188 161.59375 188.347656 161.59375 188.453125 C 161.59375 188.558594 161.648438 188.664062 161.699219 188.824219 C 162.019531 189.40625 162.65625 189.621094 162.867188 189.671875 C 163.453125 189.832031 164.351562 189.832031 164.882812 189.25 C 165.203125 188.878906 165.308594 188.453125 165.359375 188.082031 C 165.359375 188.027344 165.359375 187.921875 165.359375 187.871094 C 165.414062 187.234375 165.253906 186.96875 165.097656 186.117188 Z M 165.097656 186.117188 " fill-opacity="1" fill-rule="nonzero"/><path fill="#464eab" d="M 138.414062 182.191406 C 138.839844 182.511719 139.421875 182.777344 140.058594 183.039062 C 141.757812 183.675781 143.292969 183.519531 144.144531 183.359375 C 144.035156 181.238281 144.410156 179.644531 144.726562 178.585938 C 145.363281 176.621094 146.105469 175.773438 147.113281 173.332031 C 147.804688 171.632812 148.175781 170.199219 148.386719 169.246094 C 149.339844 169.035156 150.347656 168.820312 151.410156 168.554688 C 153.957031 167.867188 156.183594 166.964844 158.039062 166.0625 C 157.351562 165.53125 156.503906 164.84375 155.707031 163.886719 C 154.378906 162.347656 153.691406 160.808594 153.320312 159.75 C 152.3125 160.226562 150.878906 160.96875 149.078125 161.921875 C 146.371094 163.355469 145.042969 164.097656 144.566406 164.523438 C 142.976562 166.0625 142.339844 168.554688 141.171875 173.492188 C 140.75 175.1875 140.640625 175.929688 140.113281 177.628906 C 139.582031 179.59375 138.890625 181.183594 138.414062 182.191406 Z M 138.414062 182.191406 " fill-opacity="1" fill-rule="nonzero"/><path fill="#464eab" d="M 153.902344 158.421875 C 153.371094 159.589844 153.371094 160.542969 153.425781 161.074219 C 153.796875 164.578125 158.148438 166.222656 158.304688 166.273438 C 158.730469 166.433594 159.101562 166.539062 159.421875 166.59375 C 159.578125 167.015625 159.792969 167.652344 160.003906 168.449219 C 160.585938 170.679688 160.585938 172.429688 160.640625 173.171875 C 160.691406 175.558594 160.90625 179.484375 161.277344 184.738281 C 162.074219 184.949219 163.132812 185.109375 164.351562 185.058594 C 164.988281 185.058594 165.519531 184.949219 165.996094 184.84375 C 165.996094 183.730469 165.996094 181.980469 165.996094 179.859375 C 165.996094 175.507812 166.050781 175.613281 166.050781 173.914062 C 165.945312 169.882812 165.679688 169.722656 165.785156 167.070312 C 165.890625 164.84375 166.105469 164.523438 165.945312 163.355469 C 165.625 161.074219 164.351562 159.375 163.292969 158.210938 C 160.164062 158.316406 157.03125 158.367188 153.902344 158.421875 Z M 153.902344 158.421875 " fill-opacity="1" fill-rule="nonzero"/><path fill="#fec9b7" d="M 156.34375 145.316406 C 155.125 145.371094 154.539062 145.421875 154.167969 145.792969 C 153.160156 146.800781 153.902344 150.089844 156.023438 151.257812 C 157.617188 152.160156 159.367188 151.472656 159.683594 151.363281 C 160.054688 151.207031 161.914062 150.464844 162.390625 148.605469 C 162.445312 148.339844 162.761719 147.066406 162.070312 146.269531 C 161.808594 145.953125 161.488281 145.898438 158.890625 145.527344 C 157.296875 145.316406 156.925781 145.261719 156.34375 145.316406 Z M 156.34375 145.316406 " fill-opacity="1" fill-rule="nonzero"/><path fill="#43455e" d="M 156.34375 145.316406 C 155.125 145.371094 154.539062 145.421875 154.167969 145.792969 C 153.160156 146.800781 153.902344 150.089844 156.023438 151.257812 C 157.617188 152.160156 159.367188 151.472656 159.683594 151.363281 C 160.054688 151.207031 161.914062 150.464844 162.390625 148.605469 C 162.445312 148.339844 162.761719 147.066406 162.070312 146.269531 C 161.808594 145.953125 161.488281 145.898438 158.890625 145.527344 C 157.296875 145.316406 156.925781 145.261719 156.34375 145.316406 Z M 156.34375 145.316406 " fill-opacity="0.05" fill-rule="nonzero"/><path fill="#fec9b7" d="M 147.378906 152.265625 C 145.308594 153.59375 145.257812 154.546875 145.257812 154.921875 C 145.363281 156.511719 148.492188 158.261719 148.96875 158.527344 C 149.449219 158.792969 150.085938 159.058594 150.457031 159.75 C 150.828125 160.386719 150.667969 160.757812 151.09375 161.339844 C 151.199219 161.445312 151.621094 162.03125 152.363281 162.296875 C 153.371094 162.613281 154.753906 162.296875 154.964844 161.605469 C 155.230469 160.757812 153.691406 159.535156 153.054688 159.113281 C 152.523438 158.738281 152.472656 158.847656 151.941406 158.476562 C 151.304688 157.996094 150.984375 157.574219 150.191406 156.511719 C 149.871094 156.140625 149.449219 155.554688 148.863281 154.8125 C 149.078125 154.546875 149.339844 154.28125 149.554688 154.019531 C 148.863281 153.382812 148.121094 152.851562 147.378906 152.265625 Z M 147.378906 152.265625 " fill-opacity="1" fill-rule="nonzero"/><path fill="#fc5135" d="M 165.253906 152.160156 C 166.105469 150.886719 167.164062 150.464844 167.058594 149.402344 C 166.953125 147.757812 164.140625 146.324219 162.335938 146.007812 C 162.125 145.953125 161.699219 145.898438 160.851562 145.792969 C 159.738281 145.632812 158.835938 145.527344 158.359375 145.476562 C 156.875 145.210938 156.023438 144.996094 154.644531 145.15625 C 153.796875 145.210938 153.160156 145.421875 152.683594 145.527344 C 152.628906 145.527344 152.523438 145.582031 152.363281 145.632812 C 150.878906 146.164062 150.085938 147.332031 148.863281 149.136719 C 147.910156 150.570312 147.113281 151.738281 146.6875 152.425781 C 147.058594 152.851562 147.539062 153.328125 148.175781 153.804688 C 148.703125 154.175781 149.183594 154.441406 149.605469 154.601562 C 150.136719 154.175781 150.933594 153.59375 151.941406 152.851562 C 152.523438 152.425781 152.734375 152.320312 152.894531 152.214844 C 153.371094 153.59375 153.746094 155.503906 153.425781 158.15625 C 153.53125 158.582031 153.746094 158.898438 153.957031 159.164062 C 156.503906 162.71875 164.832031 160.386719 165.519531 160.171875 C 163.875 155.820312 164.40625 153.488281 165.253906 152.160156 Z M 159.632812 150.78125 C 159.527344 150.835938 157.988281 151.417969 156.609375 150.621094 C 155.496094 149.933594 155.175781 148.710938 155.070312 148.234375 C 154.910156 147.597656 154.753906 146.800781 155.125 146.164062 C 155.917969 144.996094 158.199219 145.476562 159.949219 145.847656 C 161.382812 146.113281 161.59375 146.429688 161.699219 146.535156 C 162.390625 147.542969 161.4375 149.984375 159.632812 150.78125 Z M 159.632812 150.78125 " fill-opacity="1" fill-rule="nonzero"/><path fill="#fec9b7" d="M 154.859375 144.890625 C 154.539062 145.476562 154.644531 146.113281 154.964844 147.332031 C 155.230469 148.5 155.441406 149.347656 156.132812 149.984375 C 156.34375 150.144531 156.875 150.621094 157.5625 150.515625 C 157.667969 150.515625 157.777344 150.464844 157.882812 150.410156 C 158.941406 149.933594 159.632812 148.5 159.632812 148.394531 C 159.898438 147.757812 160.214844 146.75 160.640625 146.535156 C 160.691406 146.535156 160.800781 146.484375 160.851562 146.324219 C 160.957031 146.164062 160.90625 146.058594 160.957031 145.847656 C 161.011719 145.476562 161.171875 145.476562 161.277344 145.050781 C 161.328125 144.839844 161.328125 144.679688 161.277344 144.574219 C 161.117188 144.46875 160.746094 144.679688 160.585938 144.734375 C 159.472656 145.261719 158.304688 143.617188 156.660156 143.777344 C 156.023438 143.882812 155.230469 144.253906 154.859375 144.890625 Z M 154.859375 144.890625 " fill-opacity="1" fill-rule="nonzero"/><path fill="#43455e" d="M 158.148438 140.222656 C 156.449219 140.0625 155.335938 141.550781 155.175781 141.761719 C 153.957031 143.40625 154.644531 145.371094 154.699219 145.527344 C 154.804688 145.476562 154.964844 145.371094 155.175781 145.371094 C 155.496094 145.421875 155.601562 145.742188 155.8125 145.953125 C 156.554688 146.589844 158.464844 145.15625 159.046875 145.792969 C 159.15625 145.898438 159.15625 146.058594 159.421875 146.269531 C 159.472656 146.324219 159.898438 146.644531 160.109375 146.484375 C 160.480469 146.324219 160.109375 145.476562 160.585938 144.890625 C 160.746094 144.734375 160.800781 144.734375 160.90625 144.574219 C 160.957031 144.46875 161.171875 144.148438 161.0625 143.40625 C 161.011719 143.140625 160.90625 142.558594 160.480469 141.921875 C 160.320312 141.550781 159.527344 140.382812 158.148438 140.222656 Z M 158.148438 140.222656 " fill-opacity="1" fill-rule="nonzero"/><path fill="#43455e" d="M 166.582031 161.023438 L 166.742188 161.605469 L 164.832031 169.5625 L 164.195312 169.671875 Z M 166.582031 161.023438 " fill-opacity="1" fill-rule="nonzero"/><path fill="#e4e1f9" d="M 164.566406 169.191406 L 166.582031 161.023438 L 150.71875 158.367188 L 147.273438 165.054688 Z M 164.566406 169.191406 " fill-opacity="1" fill-rule="nonzero"/><path fill="#fec9b7" d="M 153 159.058594 C 152.472656 158.6875 152.417969 158.792969 151.886719 158.421875 C 151.515625 158.15625 151.304688 157.890625 150.984375 157.574219 L 147.433594 157.574219 C 148.121094 158.050781 148.703125 158.367188 148.917969 158.476562 C 149.394531 158.738281 150.03125 159.003906 150.402344 159.695312 C 150.773438 160.332031 150.613281 160.703125 151.039062 161.285156 C 151.144531 161.394531 151.570312 161.976562 152.3125 162.242188 C 153.320312 162.558594 154.699219 162.242188 154.910156 161.550781 C 155.230469 160.703125 153.636719 159.484375 153 159.058594 Z M 153 159.058594 " fill-opacity="1" fill-rule="nonzero"/><path fill="#fec9b7" d="M 164.460938 156.351562 C 164.671875 157.148438 164.832031 157.945312 165.042969 158.738281 C 164.40625 159.429688 163.875 160.066406 163.558594 160.492188 C 163.082031 161.128906 162.921875 161.394531 162.445312 161.605469 C 161.914062 161.871094 161.648438 161.660156 161.0625 161.921875 C 160.375 162.1875 159.898438 162.773438 159.949219 162.878906 C 160.054688 163.039062 160.90625 162.613281 160.957031 162.71875 C 161.011719 162.824219 159.84375 163.25 159.738281 163.941406 C 159.632812 164.523438 160.375 165.371094 161.0625 165.480469 C 161.964844 165.585938 162.335938 164.46875 164.035156 162.824219 C 166.316406 160.648438 168.171875 160.386719 168.226562 159.003906 C 168.226562 158.6875 168.171875 157.945312 167.960938 157.253906 C 167.855469 156.777344 167.695312 156.40625 167.589844 156.140625 C 166.527344 156.246094 165.519531 156.300781 164.460938 156.351562 Z M 164.460938 156.351562 " fill-opacity="1" fill-rule="nonzero"/><path fill="#fc5135" d="M 166.050781 147.863281 C 165.574219 147.863281 165.414062 148.5 164.035156 150.675781 C 163.609375 151.363281 163.453125 151.578125 163.292969 152.054688 C 163.132812 152.636719 163.1875 153.117188 163.34375 154.070312 C 163.503906 154.867188 163.714844 155.820312 164.035156 156.988281 C 164.460938 157.148438 165.203125 157.308594 166.105469 157.253906 C 166.898438 157.203125 167.535156 156.9375 167.960938 156.722656 C 167.960938 156.140625 167.90625 155.292969 167.90625 154.285156 C 167.855469 152.957031 167.800781 152.214844 167.695312 151.3125 C 167.535156 150.039062 167.324219 149.402344 166.953125 148.816406 C 166.6875 148.339844 166.421875 147.917969 166.050781 147.863281 Z M 166.050781 147.863281 " fill-opacity="1" fill-rule="nonzero"/><path fill="#464eab" d="M 151.621094 164.683594 L 146 158.847656 L 146.425781 158.367188 L 163.980469 161.285156 L 164.566406 169.191406 L 164.195312 169.671875 Z M 151.621094 164.683594 " fill-opacity="1" fill-rule="nonzero"/><path fill="#43455e" d="M 146 158.847656 C 146.210938 161.445312 146.425781 164.046875 146.636719 166.644531 C 152.472656 167.652344 158.304688 168.664062 164.140625 169.671875 C 163.929688 167.015625 163.769531 164.3125 163.558594 161.660156 C 157.722656 160.703125 151.886719 159.800781 146 158.847656 Z M 146 158.847656 " fill-opacity="1" fill-rule="nonzero"/></svg>