<svg xmlns="http://www.w3.org/2000/svg" xmlns:xlink="http://www.w3.org/1999/xlink" width="439" zoomAndPan="magnify" viewBox="0 0 329.25 201.749994" height="269" preserveAspectRatio="xMidYMid meet" version="1.0"><defs><clipPath id="8a9db040d8"><path d="M 92.648438 88 L 230 88 L 230 193 L 92.648438 193 Z M 92.648438 88 " clip-rule="nonzero"/></clipPath><clipPath id="598d48d306"><path d="M 94 8.359375 L 235 8.359375 L 235 181 L 94 181 Z M 94 8.359375 " clip-rule="nonzero"/></clipPath><clipPath id="214574b242"><path d="M 99.421875 11.507812 L 235.457031 11.507812 L 235.457031 193.1875 L 99.421875 193.1875 Z M 99.421875 11.507812 " clip-rule="nonzero"/></clipPath><clipPath id="2e33cf4658"><path d="M 92.648438 85 L 101 85 L 101 92 L 92.648438 92 Z M 92.648438 85 " clip-rule="nonzero"/></clipPath></defs><g clip-path="url(#8a9db040d8)"><path fill="#b0acdd" d="M 123.183594 121.464844 L 128.667969 118.320312 L 128.667969 120.675781 L 123.183594 123.84375 Z M 132.730469 116.058594 L 138.21875 112.914062 L 138.21875 115.242188 L 132.730469 118.390625 Z M 142.507812 110.628906 L 147.992188 107.527344 L 147.992188 109.882812 L 142.507812 113.003906 Z M 142.640625 187.582031 L 142.640625 180.476562 L 208.925781 142.351562 L 208.925781 149.5 Z M 229.449219 102.167969 L 229.449219 105.332031 L 213.394531 114.859375 L 213.394531 111.714844 Z M 213.625 103.273438 L 213.625 100.128906 L 229.671875 90.582031 L 229.671875 93.75 Z M 209.671875 103.5 L 209.671875 106.667969 L 193.617188 116.195312 L 193.617188 113.050781 Z M 193.847656 104.609375 L 193.847656 101.464844 L 209.894531 91.917969 L 209.894531 95.082031 Z M 136.367188 175.183594 C 136.109375 174.773438 135.878906 174.359375 135.667969 173.9375 C 145.945312 168.054688 157.046875 161.636719 168.964844 154.683594 C 181.746094 147.230469 192.6875 140.804688 201.792969 135.402344 C 202.03125 135.976562 202.328125 136.535156 202.675781 137.078125 Z M 92.75 88.273438 L 99.476562 91.960938 L 99.476562 192.761719 C 95.714844 190.5 93.667969 189.15625 93.335938 188.734375 C 93.15625 188.523438 93.085938 188.230469 93.132812 187.851562 C 93.195312 187.277344 93.1875 186.789062 93.109375 186.382812 C 92.882812 184.980469 92.765625 172.015625 92.75 147.484375 C 92.765625 118.191406 92.765625 98.457031 92.75 88.273438 " fill-opacity="1" fill-rule="evenodd"/></g><g clip-path="url(#598d48d306)"><path fill="#e0def2" d="M 131.105469 143.300781 L 131.105469 123.390625 C 130.519531 124.28125 129.511719 125.976562 128.082031 128.480469 C 126.167969 131.800781 124.152344 134.785156 122.03125 137.441406 L 122.03125 148.480469 Z M 144.222656 120.855469 C 143.363281 119.753906 142.410156 119.046875 141.355469 118.726562 L 141.355469 137.441406 L 150.429688 132.191406 L 150.429688 122.800781 C 147.976562 123.734375 145.910156 123.089844 144.222656 120.855469 Z M 133.160156 121.285156 C 132.632812 121.675781 132.136719 122.121094 131.671875 122.621094 L 131.671875 142.984375 L 140.769531 137.757812 L 140.769531 118.570312 C 138.664062 118.175781 136.125 119.082031 133.160156 121.285156 Z M 160.09375 112.980469 C 159.386719 114.171875 158.625 115.304688 157.8125 116.375 C 157.089844 117.339844 156.324219 118.277344 155.511719 119.179688 C 155.449219 119.242188 155.382812 119.316406 155.308594 119.40625 C 153.773438 120.898438 152.34375 121.957031 151.019531 122.574219 L 151.019531 131.875 L 160.09375 126.648438 Z M 142.640625 180.476562 C 139.8125 179.027344 137.71875 177.261719 136.367188 175.183594 L 202.675781 137.078125 C 204.011719 139.144531 206.097656 140.902344 208.925781 142.351562 Z M 150.429688 106.351562 C 150.429688 106.277344 150.460938 106.1875 150.519531 106.082031 C 150.582031 105.988281 150.65625 105.921875 150.75 105.875 C 150.808594 105.832031 150.867188 105.824219 150.925781 105.855469 C 150.988281 105.902344 151.019531 105.960938 151.019531 106.035156 L 151.019531 121.894531 C 152.34375 121.292969 153.773438 120.222656 155.308594 118.683594 C 155.339844 118.636719 155.375 118.59375 155.417969 118.546875 C 157.183594 116.632812 158.738281 114.535156 160.09375 112.257812 L 160.09375 100.808594 C 160.09375 100.734375 160.125 100.640625 160.183594 100.535156 C 160.246094 100.429688 160.3125 100.363281 160.386719 100.332031 C 160.476562 100.273438 160.546875 100.265625 160.589844 100.3125 C 160.667969 100.355469 160.703125 100.417969 160.703125 100.492188 L 160.703125 126.648438 C 160.703125 126.738281 160.667969 126.828125 160.589844 126.917969 C 160.546875 127.023438 160.476562 127.101562 160.386719 127.144531 L 121.714844 149.34375 C 121.640625 149.371094 121.570312 149.371094 121.511719 149.34375 C 121.449219 149.34375 121.421875 149.296875 121.421875 149.207031 L 121.421875 123.050781 C 121.421875 122.960938 121.449219 122.855469 121.511719 122.734375 C 121.570312 122.644531 121.640625 122.574219 121.714844 122.53125 C 121.804688 122.484375 121.878906 122.46875 121.941406 122.484375 C 122 122.515625 122.03125 122.574219 122.03125 122.667969 L 122.03125 136.695312 C 124 134.191406 125.875 131.375 127.652344 128.253906 C 129.429688 125.164062 130.578125 123.261719 131.105469 122.550781 L 131.105469 117.484375 C 131.105469 117.394531 131.136719 117.296875 131.195312 117.1875 C 131.257812 117.101562 131.324219 117.03125 131.398438 116.988281 C 131.476562 116.957031 131.542969 116.941406 131.601562 116.941406 C 131.648438 117 131.671875 117.078125 131.671875 117.167969 L 131.671875 121.894531 C 132.121094 121.445312 132.589844 121.027344 133.070312 120.652344 C 136.035156 118.449219 138.601562 117.492188 140.769531 117.777344 L 140.769531 111.941406 C 140.769531 111.851562 140.800781 111.753906 140.859375 111.644531 C 140.921875 111.527344 140.988281 111.449219 141.0625 111.421875 C 141.136719 111.359375 141.207031 111.351562 141.265625 111.398438 C 141.328125 111.445312 141.355469 111.511719 141.355469 111.601562 L 141.355469 117.914062 C 142.621094 118.199219 143.734375 118.976562 144.699219 120.246094 C 146.277344 122.28125 148.1875 122.90625 150.429688 122.121094 Z M 234.4375 11.707031 L 100.875 89.222656 L 94.417969 85.808594 L 226.128906 8.808594 C 226.746094 8.507812 227.21875 8.359375 227.550781 8.359375 C 227.730469 8.359375 228.027344 8.433594 228.429688 8.582031 L 228.996094 8.808594 L 234.4375 11.707031 " fill-opacity="1" fill-rule="evenodd"/></g><path fill="#5651ad" d="M 187.816406 132.847656 L 187.816406 125.585938 L 189.714844 124.476562 L 189.714844 132.234375 L 187.816406 133.324219 Z M 230.214844 72.863281 L 212.335938 83.203125 L 212.335938 80.851562 L 222.945312 74.699219 L 229.472656 70.917969 L 230.214844 70.488281 Z M 210.4375 74.199219 L 169.9375 97.640625 L 169.9375 133.570312 L 168.039062 134.660156 L 168.039062 96.375 L 190.617188 83.320312 L 210.4375 71.824219 Z M 135.667969 173.9375 C 135.878906 174.359375 136.109375 174.773438 136.367188 175.183594 C 137.71875 177.261719 139.8125 179.027344 142.640625 180.476562 L 142.640625 187.582031 L 129.527344 180.292969 C 129.511719 179.195312 129.617188 178.183594 129.84375 177.261719 C 131.753906 176.179688 133.695312 175.066406 135.667969 173.9375 " fill-opacity="1" fill-rule="evenodd"/><g clip-path="url(#214574b242)"><path fill="#5954ae" d="M 230.214844 72.863281 L 230.214844 70.488281 L 229.472656 70.917969 L 229.472656 20.757812 L 104.667969 92.957031 L 104.667969 181.132812 L 187.816406 133.027344 L 187.816406 133.324219 L 189.714844 132.234375 L 189.714844 134.589844 L 193.824219 132.214844 C 193.882812 132.257812 193.953125 132.289062 194.023438 132.304688 L 195.628906 133.253906 C 195.6875 133.300781 195.761719 133.332031 195.855469 133.34375 L 197.457031 134.296875 C 197.503906 134.339844 197.570312 134.371094 197.660156 134.386719 C 197.917969 134.492188 198.277344 134.402344 198.746094 134.113281 L 202.3125 132.054688 L 202.3125 132.078125 L 207.503906 129.070312 L 207.503906 129.046875 L 211.003906 127.03125 C 212.058594 126.414062 212.585938 125.496094 212.585938 124.273438 L 212.585938 121.351562 L 232.113281 110.039062 L 232.113281 79.3125 L 232.382812 79.15625 L 232.382812 71.644531 L 232.113281 71.800781 L 232.113281 71.757812 Z M 201.792969 135.402344 C 192.6875 140.804688 181.746094 147.230469 168.964844 154.683594 C 157.046875 161.636719 145.945312 168.054688 135.667969 173.9375 C 133.695312 175.066406 131.753906 176.179688 129.84375 177.261719 C 127.464844 178.605469 125.136719 179.925781 122.867188 181.222656 C 108.777344 189.203125 101.472656 193.191406 100.945312 193.191406 C 100.734375 193.191406 100.464844 193.148438 100.132812 193.054688 C 99.84375 192.949219 99.628906 192.851562 99.476562 192.761719 L 99.476562 91.960938 C 99.507812 91.480469 99.566406 91.117188 99.65625 90.875 C 99.777344 90.515625 100.183594 89.964844 100.875 89.222656 L 234.4375 11.707031 C 234.515625 11.78125 234.695312 12.0625 234.980469 12.542969 C 235.25 12.996094 235.410156 13.273438 235.453125 13.382812 L 235.453125 114 C 235.421875 114.933594 224.203125 122.070312 201.792969 135.402344 " fill-opacity="1" fill-rule="evenodd"/></g><g clip-path="url(#2e33cf4658)"><path fill="#d0cdeb" d="M 99.476562 91.960938 L 92.75 88.273438 C 92.75 87.59375 92.90625 87.015625 93.222656 86.53125 C 93.554688 86.046875 93.953125 85.808594 94.417969 85.808594 L 100.875 89.222656 C 100.183594 89.964844 99.777344 90.515625 99.65625 90.875 C 99.566406 91.117188 99.507812 91.480469 99.476562 91.960938 " fill-opacity="1" fill-rule="evenodd"/></g><path fill="#332f90" d="M 116.160156 163.414062 L 110.269531 166.832031 L 110.269531 173.753906 L 116.160156 170.339844 Z M 120.019531 168.144531 L 126.050781 164.660156 L 126.050781 157.691406 L 120.019531 161.175781 Z M 129.84375 162.464844 L 135.871094 158.980469 L 135.871094 152.011719 L 129.84375 155.496094 Z M 155.398438 147.667969 L 155.398438 140.699219 L 149.4375 144.160156 L 149.4375 151.128906 Z M 159.304688 138.433594 L 159.304688 145.359375 L 165.21875 141.941406 L 165.21875 135.019531 Z M 139.664062 149.816406 L 139.664062 156.875 L 145.714844 153.371094 L 145.714844 146.308594 Z M 168.039062 129.613281 L 168.039062 134.660156 L 169.9375 133.570312 L 169.9375 135.925781 L 184.316406 127.597656 L 184.316406 132.757812 C 184.316406 133.375 184.433594 133.796875 184.65625 134.023438 C 184.703125 134.070312 184.777344 134.105469 184.882812 134.136719 C 185.183594 134.257812 185.605469 134.152344 186.148438 133.820312 L 187.816406 132.847656 L 187.816406 133.027344 L 104.667969 181.132812 L 104.667969 92.957031 L 229.472656 20.757812 L 229.472656 70.917969 L 222.945312 74.699219 L 222.945312 36.707031 L 223.058594 36.640625 L 223.058594 29.128906 L 219.335938 31.300781 L 219.335938 27.792969 L 114.128906 88.660156 L 114.128906 160.792969 L 168.039062 129.613281 " fill-opacity="1" fill-rule="evenodd"/><path fill="#27296b" d="M 184.316406 127.597656 L 187.816406 125.585938 L 187.816406 132.847656 L 186.148438 133.820312 C 185.605469 134.152344 185.183594 134.257812 184.882812 134.136719 C 184.777344 134.105469 184.703125 134.070312 184.65625 134.023438 C 184.433594 133.796875 184.316406 133.375 184.316406 132.757812 Z M 117.785156 90.0625 L 117.742188 90.082031 L 117.742188 155 L 168.039062 125.902344 L 168.039062 129.613281 L 114.128906 160.792969 L 114.128906 88.660156 L 219.335938 27.792969 L 219.335938 31.300781 L 117.785156 90.039062 L 117.785156 90.0625 " fill-opacity="1" fill-rule="evenodd"/><path fill="#ffffff" d="M 123.183594 121.464844 L 123.183594 123.84375 L 128.667969 120.675781 L 128.667969 118.320312 Z M 142.507812 110.628906 L 142.507812 113.003906 L 147.992188 109.882812 L 147.992188 107.527344 Z M 132.730469 116.058594 L 132.730469 118.390625 L 138.21875 115.242188 L 138.21875 112.914062 Z M 201.410156 127.824219 L 203.304688 126.714844 C 203.515625 126.730469 203.742188 126.707031 203.980469 126.648438 C 204.417969 126.554688 204.960938 126.339844 205.609375 125.992188 C 205.9375 125.8125 206.230469 125.636719 206.488281 125.472656 L 207.910156 124.339844 L 208 124.339844 C 208.046875 124.339844 208.082031 124.347656 208.113281 124.363281 L 208.226562 125.246094 L 208.160156 125.515625 C 208.128906 125.546875 208.089844 125.59375 208.046875 125.652344 C 208.03125 125.652344 208.015625 125.667969 208 125.695312 C 207.972656 125.726562 207.941406 125.75 207.910156 125.765625 L 206.601562 126.761719 C 206.332031 126.925781 206 127.121094 205.609375 127.351562 C 204.796875 127.785156 204.089844 128.066406 203.484375 128.1875 C 202.867188 128.324219 202.351562 128.308594 201.925781 128.140625 C 201.730469 128.066406 201.558594 127.960938 201.410156 127.824219 Z M 179.058594 82.796875 L 182.941406 80.535156 L 182.941406 73.316406 L 179.058594 75.582031 Z M 176.664062 70.941406 L 172.738281 73.25 L 172.738281 86.464844 L 176.664062 84.179688 Z M 166.097656 72.210938 L 166.097656 90.265625 L 170.207031 87.886719 L 170.207031 69.832031 Z M 150.429688 106.351562 L 150.429688 122.121094 C 148.1875 122.90625 146.277344 122.28125 144.699219 120.246094 C 143.734375 118.976562 142.621094 118.199219 141.355469 117.914062 L 141.355469 111.601562 C 141.355469 111.511719 141.328125 111.445312 141.265625 111.398438 C 141.207031 111.351562 141.136719 111.359375 141.0625 111.421875 C 140.988281 111.449219 140.921875 111.527344 140.859375 111.644531 C 140.800781 111.753906 140.769531 111.851562 140.769531 111.941406 L 140.769531 117.777344 C 138.601562 117.492188 136.035156 118.449219 133.070312 120.652344 C 132.589844 121.027344 132.121094 121.445312 131.671875 121.894531 L 131.671875 117.167969 C 131.671875 117.078125 131.648438 117 131.601562 116.941406 C 131.542969 116.941406 131.476562 116.957031 131.398438 116.988281 C 131.324219 117.03125 131.257812 117.101562 131.195312 117.1875 C 131.136719 117.296875 131.105469 117.394531 131.105469 117.484375 L 131.105469 122.550781 C 130.578125 123.261719 129.429688 125.164062 127.652344 128.253906 C 125.875 131.375 124 134.191406 122.03125 136.695312 L 122.03125 122.667969 C 122.03125 122.574219 122 122.515625 121.941406 122.484375 C 121.878906 122.46875 121.804688 122.484375 121.714844 122.53125 C 121.640625 122.574219 121.570312 122.644531 121.511719 122.734375 C 121.449219 122.855469 121.421875 122.960938 121.421875 123.050781 L 121.421875 149.207031 C 121.421875 149.296875 121.449219 149.34375 121.511719 149.34375 C 121.570312 149.371094 121.640625 149.371094 121.714844 149.34375 L 160.386719 127.144531 C 160.476562 127.101562 160.546875 127.023438 160.589844 126.917969 C 160.667969 126.828125 160.703125 126.738281 160.703125 126.648438 L 160.703125 100.492188 C 160.703125 100.417969 160.667969 100.355469 160.589844 100.3125 C 160.546875 100.265625 160.476562 100.273438 160.386719 100.332031 C 160.3125 100.363281 160.246094 100.429688 160.183594 100.535156 C 160.125 100.640625 160.09375 100.734375 160.09375 100.808594 L 160.09375 112.257812 C 158.738281 114.535156 157.183594 116.632812 155.417969 118.546875 C 155.375 118.59375 155.339844 118.636719 155.308594 118.683594 C 153.773438 120.222656 152.34375 121.292969 151.019531 121.894531 L 151.019531 106.035156 C 151.019531 105.960938 150.988281 105.902344 150.925781 105.855469 C 150.867188 105.824219 150.808594 105.832031 150.75 105.875 C 150.65625 105.921875 150.582031 105.988281 150.519531 106.082031 C 150.460938 106.1875 150.429688 106.277344 150.429688 106.351562 Z M 121.984375 99.496094 C 121.683594 99.675781 121.421875 99.882812 121.195312 100.105469 C 120.96875 100.363281 120.855469 100.566406 120.855469 100.71875 L 120.855469 116.648438 C 120.855469 116.796875 120.96875 116.855469 121.195312 116.828125 C 121.421875 116.828125 121.683594 116.738281 121.984375 116.558594 L 153.253906 98.457031 C 153.554688 98.273438 153.816406 98.054688 154.042969 97.796875 C 154.253906 97.574219 154.359375 97.386719 154.359375 97.234375 L 154.359375 81.304688 C 154.359375 81.15625 154.253906 81.078125 154.042969 81.078125 C 153.816406 81.109375 153.554688 81.214844 153.253906 81.394531 Z M 190.617188 83.320312 L 168.039062 96.375 L 168.039062 125.902344 L 117.742188 155 L 117.742188 90.082031 L 117.785156 90.0625 L 117.785156 97.550781 L 222.945312 36.707031 L 222.945312 74.699219 L 212.335938 80.851562 L 212.335938 80.648438 L 212.605469 80.492188 L 212.605469 73.792969 C 212.621094 73.777344 212.628906 73.761719 212.628906 73.746094 C 215.351562 69.042969 216.714844 64.441406 216.714844 59.945312 C 216.714844 55.464844 215.351562 52.425781 212.628906 50.828125 C 210.882812 49.832031 208.898438 49.617188 206.679688 50.179688 L 206.285156 50.285156 C 203.742188 50.917969 201.175781 52.425781 198.585938 54.808594 C 195.710938 57.464844 193.355469 60.675781 191.519531 64.449219 L 191.589844 64.46875 C 190.1875 67.292969 189.269531 70.148438 188.832031 73.046875 C 188.1875 77.253906 188.683594 80.597656 190.324219 83.070312 L 190.390625 83.003906 C 190.46875 83.105469 190.542969 83.210938 190.617188 83.320312 " fill-opacity="1" fill-rule="evenodd"/><path fill="#9c90d0" d="M 120.019531 168.144531 L 120.019531 161.175781 L 126.050781 157.691406 L 126.050781 164.660156 Z M 139.664062 149.816406 L 145.714844 146.308594 L 145.714844 153.371094 L 139.664062 156.875 Z M 219.402344 84.699219 C 219.777344 84.050781 219.964844 83.417969 219.964844 82.796875 C 219.964844 82.179688 219.777344 81.757812 219.402344 81.53125 C 219.023438 81.320312 218.566406 81.363281 218.023438 81.667969 C 217.484375 81.984375 217.023438 82.464844 216.648438 83.113281 C 216.273438 83.777344 216.082031 84.417969 216.082031 85.039062 C 216.082031 85.65625 216.273438 86.070312 216.648438 86.28125 C 217.023438 86.507812 217.484375 86.464844 218.023438 86.148438 C 218.566406 85.84375 219.023438 85.363281 219.402344 84.699219 Z M 211.050781 77.59375 C 211.050781 77.1875 210.96875 76.863281 210.800781 76.621094 C 210.710938 76.5 210.605469 76.402344 210.484375 76.328125 C 210.109375 76.117188 209.648438 76.160156 209.109375 76.464844 C 208.566406 76.78125 208.105469 77.261719 207.730469 77.910156 C 207.351562 78.574219 207.164062 79.214844 207.164062 79.835938 C 207.164062 80.179688 207.226562 80.46875 207.34375 80.691406 C 207.4375 80.859375 207.566406 80.988281 207.730469 81.078125 C 208.105469 81.304688 208.566406 81.257812 209.109375 80.941406 C 209.648438 80.640625 210.109375 80.160156 210.484375 79.496094 C 210.859375 78.84375 211.050781 78.210938 211.050781 77.59375 Z M 225.070312 78.273438 C 224.691406 78.0625 224.234375 78.105469 223.691406 78.410156 C 223.421875 78.558594 223.171875 78.753906 222.945312 78.996094 C 222.722656 79.238281 222.507812 79.523438 222.3125 79.855469 C 221.9375 80.519531 221.75 81.160156 221.75 81.78125 C 221.75 82.398438 221.9375 82.8125 222.3125 83.023438 C 222.507812 83.144531 222.722656 83.191406 222.945312 83.160156 C 223.171875 83.128906 223.421875 83.039062 223.691406 82.886719 C 224.234375 82.585938 224.691406 82.105469 225.070312 81.441406 C 225.445312 80.792969 225.632812 80.160156 225.632812 79.539062 C 225.632812 78.921875 225.445312 78.5 225.070312 78.273438 Z M 230.261719 74.992188 C 230.035156 74.855469 229.773438 74.824219 229.472656 74.902344 C 229.289062 74.933594 229.09375 75.007812 228.882812 75.128906 C 228.34375 75.445312 227.882812 75.929688 227.507812 76.574219 C 227.128906 77.238281 226.941406 77.878906 226.941406 78.5 C 226.941406 79.117188 227.128906 79.53125 227.507812 79.742188 C 227.882812 79.96875 228.34375 79.925781 228.882812 79.609375 C 229.09375 79.488281 229.289062 79.34375 229.472656 79.175781 C 229.773438 78.90625 230.035156 78.566406 230.261719 78.160156 C 230.636719 77.511719 230.824219 76.875 230.824219 76.257812 C 230.824219 75.640625 230.636719 75.21875 230.261719 74.992188 Z M 232.113281 79.3125 L 212.335938 90.738281 L 212.335938 83.25 L 232.113281 71.800781 L 232.382812 71.644531 L 232.382812 79.15625 Z M 202.539062 84.359375 C 202.554688 84.375 202.566406 84.382812 202.582031 84.382812 C 202.960938 84.578125 203.402344 84.523438 203.914062 84.222656 C 204.457031 83.921875 204.917969 83.4375 205.292969 82.773438 C 205.367188 82.640625 205.441406 82.503906 205.515625 82.367188 C 205.742188 81.855469 205.855469 81.355469 205.855469 80.875 C 205.855469 80.257812 205.667969 79.835938 205.292969 79.609375 C 204.917969 79.394531 204.457031 79.441406 203.914062 79.742188 C 203.371094 80.058594 202.914062 80.542969 202.539062 81.191406 C 202.160156 81.855469 201.972656 82.496094 201.972656 83.113281 C 201.972656 83.734375 202.160156 84.148438 202.539062 84.359375 Z M 200.1875 84.132812 C 200.1875 83.515625 200 83.089844 199.625 82.867188 C 199.25 82.65625 198.789062 82.699219 198.246094 83.003906 C 197.707031 83.320312 197.246094 83.800781 196.871094 84.449219 C 196.523438 85.050781 196.335938 85.648438 196.308594 86.238281 C 196.308594 86.28125 196.308594 86.328125 196.308594 86.371094 C 196.308594 86.992188 196.496094 87.40625 196.871094 87.617188 C 197.246094 87.84375 197.707031 87.800781 198.246094 87.480469 C 198.789062 87.179688 199.25 86.699219 199.625 86.035156 C 199.699219 85.898438 199.773438 85.761719 199.851562 85.625 C 200.078125 85.113281 200.1875 84.613281 200.1875 84.132812 Z M 212.335938 80.648438 L 169.960938 105.152344 L 169.960938 97.640625 L 212.335938 73.136719 L 212.605469 72.976562 L 212.605469 80.492188 Z M 214.34375 40.394531 C 214.886719 40.09375 215.34375 39.613281 215.722656 38.949219 C 216.097656 38.300781 216.289062 37.667969 216.289062 37.046875 C 216.289062 36.429688 216.097656 36.007812 215.722656 35.78125 C 215.34375 35.570312 214.886719 35.613281 214.34375 35.917969 C 213.800781 36.234375 213.34375 36.714844 212.96875 37.363281 C 212.59375 38.027344 212.402344 38.667969 212.402344 39.289062 C 212.402344 39.90625 212.59375 40.320312 212.96875 40.53125 C 213.34375 40.757812 213.800781 40.710938 214.34375 40.394531 Z M 220.914062 32.5 C 220.539062 32.289062 220.082031 32.332031 219.539062 32.636719 C 218.996094 32.953125 218.535156 33.433594 218.160156 34.082031 C 217.785156 34.746094 217.59375 35.386719 217.59375 36.007812 C 217.59375 36.625 217.785156 37.039062 218.160156 37.25 C 218.535156 37.476562 218.996094 37.433594 219.539062 37.117188 C 220.082031 36.8125 220.539062 36.332031 220.914062 35.667969 C 221.292969 35.019531 221.480469 34.386719 221.480469 33.765625 C 221.480469 33.148438 221.292969 32.726562 220.914062 32.5 Z M 210.617188 40.304688 C 210.617188 39.6875 210.429688 39.265625 210.054688 39.039062 C 209.679688 38.828125 209.21875 38.871094 208.679688 39.175781 C 208.136719 39.492188 207.675781 39.976562 207.300781 40.621094 C 206.925781 41.285156 206.738281 41.925781 206.738281 42.546875 C 206.738281 43.164062 206.925781 43.578125 207.300781 43.789062 C 207.675781 44.015625 208.136719 43.972656 208.679688 43.65625 C 209.21875 43.351562 209.679688 42.871094 210.054688 42.207031 C 210.429688 41.558594 210.617188 40.925781 210.617188 40.304688 Z M 219.335938 31.300781 L 223.058594 29.128906 L 223.058594 36.640625 L 222.945312 36.707031 L 117.785156 97.550781 L 117.785156 90.039062 L 219.335938 31.300781 " fill-opacity="1" fill-rule="evenodd"/><path fill="#f13ea7" d="M 116.160156 163.414062 L 116.160156 170.339844 L 110.269531 173.753906 L 110.269531 166.832031 Z M 131.105469 143.300781 L 122.03125 148.480469 L 122.03125 137.441406 C 124.152344 134.785156 126.167969 131.800781 128.082031 128.480469 C 129.511719 125.976562 130.519531 124.28125 131.105469 123.390625 Z M 159.304688 138.433594 L 165.21875 135.019531 L 165.21875 141.941406 L 159.304688 145.359375 Z M 211.050781 77.59375 C 211.050781 78.210938 210.859375 78.84375 210.484375 79.496094 C 210.109375 80.160156 209.648438 80.640625 209.109375 80.941406 C 208.566406 81.257812 208.105469 81.304688 207.730469 81.078125 C 207.566406 80.988281 207.4375 80.859375 207.34375 80.691406 C 207.226562 80.46875 207.164062 80.179688 207.164062 79.835938 C 207.164062 79.214844 207.351562 78.574219 207.730469 77.910156 C 208.105469 77.261719 208.566406 76.78125 209.109375 76.464844 C 209.648438 76.160156 210.109375 76.117188 210.484375 76.328125 C 210.605469 76.402344 210.710938 76.5 210.800781 76.621094 C 210.96875 76.863281 211.050781 77.1875 211.050781 77.59375 Z M 230.261719 74.992188 C 230.636719 75.21875 230.824219 75.640625 230.824219 76.257812 C 230.824219 76.875 230.636719 77.511719 230.261719 78.160156 C 230.035156 78.566406 229.773438 78.90625 229.472656 79.175781 C 229.289062 79.34375 229.09375 79.488281 228.882812 79.609375 C 228.34375 79.925781 227.882812 79.96875 227.507812 79.742188 C 227.128906 79.53125 226.941406 79.117188 226.941406 78.5 C 226.941406 77.878906 227.128906 77.238281 227.507812 76.574219 C 227.882812 75.929688 228.34375 75.445312 228.882812 75.128906 C 229.09375 75.007812 229.289062 74.933594 229.472656 74.902344 C 229.773438 74.824219 230.035156 74.855469 230.261719 74.992188 Z M 220.914062 32.5 C 221.292969 32.726562 221.480469 33.148438 221.480469 33.765625 C 221.480469 34.386719 221.292969 35.019531 220.914062 35.667969 C 220.539062 36.332031 220.082031 36.8125 219.539062 37.117188 C 218.996094 37.433594 218.535156 37.476562 218.160156 37.25 C 217.785156 37.039062 217.59375 36.625 217.59375 36.007812 C 217.59375 35.386719 217.785156 34.746094 218.160156 34.082031 C 218.535156 33.433594 218.996094 32.953125 219.539062 32.636719 C 220.082031 32.332031 220.539062 32.289062 220.914062 32.5 Z M 123.113281 101.601562 L 123.113281 99.972656 L 152.125 83.160156 L 152.125 93.183594 C 151.402344 92.429688 150.792969 91.992188 150.296875 91.871094 C 150.21875 91.824219 150.097656 91.863281 149.933594 91.984375 C 149.8125 92.058594 149.679688 92.195312 149.527344 92.390625 C 149.363281 92.601562 148.578125 93.683594 147.179688 95.625 C 145.960938 97.300781 145.191406 98.289062 144.878906 98.589844 C 144.367188 98.984375 143.898438 99.089844 143.476562 98.90625 C 143.296875 98.789062 142.851562 98.386719 142.144531 97.710938 C 140.714844 96.335938 138.949219 96.511719 136.839844 98.230469 C 135.785156 99.089844 134.816406 99.617188 133.929688 99.8125 L 133.929688 99.789062 C 133.355469 99.910156 132.484375 99.910156 131.308594 99.789062 C 128.75 99.519531 126.019531 100.121094 123.113281 101.601562 " fill-opacity="1" fill-rule="evenodd"/><path fill="#fbda3c" d="M 155.398438 147.667969 L 149.4375 151.128906 L 149.4375 144.160156 L 155.398438 140.699219 Z M 144.222656 120.855469 C 145.910156 123.089844 147.976562 123.734375 150.429688 122.800781 L 150.429688 132.191406 L 141.355469 137.441406 L 141.355469 118.726562 C 142.410156 119.046875 143.363281 119.753906 144.222656 120.855469 Z M 225.070312 78.273438 C 225.445312 78.5 225.632812 78.921875 225.632812 79.539062 C 225.632812 80.160156 225.445312 80.792969 225.070312 81.441406 C 224.691406 82.105469 224.234375 82.585938 223.691406 82.886719 C 223.421875 83.039062 223.171875 83.128906 222.945312 83.160156 C 222.722656 83.191406 222.507812 83.144531 222.3125 83.023438 C 221.9375 82.8125 221.75 82.398438 221.75 81.78125 C 221.75 81.160156 221.9375 80.519531 222.3125 79.855469 C 222.507812 79.523438 222.722656 79.238281 222.945312 78.996094 C 223.171875 78.753906 223.421875 78.558594 223.691406 78.410156 C 224.234375 78.105469 224.691406 78.0625 225.070312 78.273438 Z M 202.539062 84.359375 C 202.160156 84.148438 201.972656 83.734375 201.972656 83.113281 C 201.972656 82.496094 202.160156 81.855469 202.539062 81.191406 C 202.914062 80.542969 203.371094 80.058594 203.914062 79.742188 C 204.457031 79.441406 204.917969 79.394531 205.292969 79.609375 C 205.667969 79.835938 205.855469 80.257812 205.855469 80.875 C 205.855469 81.355469 205.742188 81.855469 205.515625 82.367188 C 205.441406 82.503906 205.367188 82.640625 205.292969 82.773438 C 204.917969 83.4375 204.457031 83.921875 203.914062 84.222656 C 203.402344 84.523438 202.960938 84.578125 202.582031 84.382812 C 202.566406 84.382812 202.554688 84.375 202.539062 84.359375 Z M 190.390625 83.003906 L 190.324219 83.070312 C 188.683594 80.597656 188.1875 77.253906 188.832031 73.046875 C 189.269531 70.148438 190.1875 67.292969 191.589844 64.46875 L 202.582031 68 L 202.605469 67.910156 L 202.605469 68.089844 Z M 214.34375 40.394531 C 213.800781 40.710938 213.34375 40.757812 212.96875 40.53125 C 212.59375 40.320312 212.402344 39.90625 212.402344 39.289062 C 212.402344 38.667969 212.59375 38.027344 212.96875 37.363281 C 213.34375 36.714844 213.800781 36.234375 214.34375 35.917969 C 214.886719 35.613281 215.34375 35.570312 215.722656 35.78125 C 216.097656 36.007812 216.289062 36.429688 216.289062 37.046875 C 216.289062 37.667969 216.097656 38.300781 215.722656 38.949219 C 215.34375 39.613281 214.886719 40.09375 214.34375 40.394531 " fill-opacity="1" fill-rule="evenodd"/><path fill="#77d2e3" d="M 219.402344 84.699219 C 219.023438 85.363281 218.566406 85.84375 218.023438 86.148438 C 217.484375 86.464844 217.023438 86.507812 216.648438 86.28125 C 216.273438 86.070312 216.082031 85.65625 216.082031 85.039062 C 216.082031 84.417969 216.273438 83.777344 216.648438 83.113281 C 217.023438 82.464844 217.484375 81.984375 218.023438 81.667969 C 218.566406 81.363281 219.023438 81.320312 219.402344 81.53125 C 219.777344 81.757812 219.964844 82.179688 219.964844 82.796875 C 219.964844 83.417969 219.777344 84.050781 219.402344 84.699219 Z M 200.1875 84.132812 C 200.1875 84.613281 200.078125 85.113281 199.851562 85.625 C 199.773438 85.761719 199.699219 85.898438 199.625 86.035156 C 199.25 86.699219 198.789062 87.179688 198.246094 87.480469 C 197.707031 87.800781 197.246094 87.84375 196.871094 87.617188 C 196.496094 87.40625 196.308594 86.992188 196.308594 86.371094 C 196.308594 86.328125 196.308594 86.28125 196.308594 86.238281 C 196.335938 85.648438 196.523438 85.050781 196.871094 84.449219 C 197.246094 83.800781 197.707031 83.320312 198.246094 83.003906 C 198.789062 82.699219 199.25 82.65625 199.625 82.867188 C 200 83.089844 200.1875 83.515625 200.1875 84.132812 Z M 210.617188 40.304688 C 210.617188 40.925781 210.429688 41.558594 210.054688 42.207031 C 209.679688 42.871094 209.21875 43.351562 208.679688 43.65625 C 208.136719 43.972656 207.675781 44.015625 207.300781 43.789062 C 206.925781 43.578125 206.738281 43.164062 206.738281 42.546875 C 206.738281 41.925781 206.925781 41.285156 207.300781 40.621094 C 207.675781 39.976562 208.136719 39.492188 208.679688 39.175781 C 209.21875 38.871094 209.679688 38.828125 210.054688 39.039062 C 210.429688 39.265625 210.617188 39.6875 210.617188 40.304688 " fill-opacity="1" fill-rule="evenodd"/><path fill="#ee208d" d="M 212.335938 99.089844 L 212.335938 95.964844 L 229.671875 85.625 L 229.671875 88.792969 Z M 190.503906 101.644531 L 190.503906 98.523438 L 209.894531 86.960938 L 209.894531 90.128906 Z M 202.605469 67.910156 L 202.582031 68 L 191.589844 64.46875 L 191.519531 64.449219 C 193.355469 60.675781 195.710938 57.464844 198.585938 54.808594 C 201.175781 52.425781 203.742188 50.917969 206.285156 50.285156 L 206.679688 50.179688 C 206.816406 50.152344 206.949219 50.125 207.074219 50.101562 L 202.605469 67.910156 " fill-opacity="1" fill-rule="evenodd"/><path fill="#7fd4da" d="M 129.84375 162.464844 L 129.84375 155.496094 L 135.871094 152.011719 L 135.871094 158.980469 Z M 160.09375 112.980469 L 160.09375 126.648438 L 151.019531 131.875 L 151.019531 122.574219 C 152.34375 121.957031 153.773438 120.898438 155.308594 119.40625 C 155.382812 119.316406 155.449219 119.242188 155.511719 119.179688 C 156.324219 118.277344 157.089844 117.339844 157.8125 116.375 C 158.625 115.304688 159.386719 114.171875 160.09375 112.980469 Z M 197.457031 134.296875 C 197.261719 134.097656 197.164062 133.738281 197.164062 133.210938 L 197.164062 130.289062 L 201.410156 127.824219 C 201.558594 127.960938 201.730469 128.066406 201.925781 128.140625 C 202.351562 128.308594 202.867188 128.324219 203.484375 128.1875 C 204.089844 128.066406 204.796875 127.785156 205.609375 127.351562 C 206 127.121094 206.332031 126.925781 206.601562 126.761719 L 207.910156 125.765625 C 207.941406 125.75 207.972656 125.726562 208 125.695312 C 208.015625 125.667969 208.03125 125.652344 208.046875 125.652344 C 208.089844 125.59375 208.128906 125.546875 208.160156 125.515625 L 208.226562 125.246094 L 208.113281 124.363281 C 208.082031 124.347656 208.046875 124.339844 208 124.339844 L 207.910156 124.339844 L 206.488281 125.472656 C 206.230469 125.636719 205.9375 125.8125 205.609375 125.992188 C 204.960938 126.339844 204.417969 126.554688 203.980469 126.648438 C 203.742188 126.707031 203.515625 126.730469 203.304688 126.714844 L 212.585938 121.351562 L 212.585938 124.273438 C 212.585938 125.496094 212.058594 126.414062 211.003906 127.03125 L 207.503906 129.046875 L 207.503906 129.070312 L 202.3125 132.078125 L 202.3125 132.054688 L 198.746094 134.113281 C 198.277344 134.402344 197.917969 134.492188 197.660156 134.386719 C 197.570312 134.371094 197.503906 134.339844 197.457031 134.296875 Z M 176.664062 70.941406 L 176.664062 84.179688 L 172.738281 86.464844 L 172.738281 73.25 Z M 179.058594 82.796875 L 179.058594 75.582031 L 182.941406 73.316406 L 182.941406 80.535156 Z M 212.605469 73.792969 L 212.605469 73.769531 C 213.222656 72.683594 213.789062 71.546875 214.300781 70.351562 C 216.058594 66.265625 216.828125 62.464844 216.601562 58.949219 L 202.695312 68.089844 L 202.605469 68.046875 L 202.605469 67.910156 L 207.074219 50.101562 C 206.949219 50.125 206.816406 50.152344 206.679688 50.179688 C 208.898438 49.617188 210.882812 49.832031 212.628906 50.828125 C 215.351562 52.425781 216.714844 55.464844 216.714844 59.945312 C 216.714844 64.441406 215.351562 69.042969 212.628906 73.746094 C 212.628906 73.761719 212.621094 73.777344 212.605469 73.792969 " fill-opacity="1" fill-rule="evenodd"/><path fill="#4e4ba8" d="M 133.160156 121.285156 C 136.125 119.082031 138.664062 118.175781 140.769531 118.570312 L 140.769531 137.757812 L 131.671875 142.984375 L 131.671875 122.621094 C 132.136719 122.121094 132.632812 121.675781 133.160156 121.285156 Z M 212.605469 73.769531 L 212.605469 72.976562 L 212.335938 73.136719 L 212.335938 73.09375 L 210.4375 74.199219 L 210.4375 71.824219 L 190.617188 83.320312 C 190.542969 83.210938 190.46875 83.105469 190.390625 83.003906 L 202.605469 68.089844 L 202.605469 68.046875 L 202.695312 68.089844 L 216.601562 58.949219 C 216.828125 62.464844 216.058594 66.265625 214.300781 70.351562 C 213.789062 71.546875 213.222656 72.683594 212.605469 73.769531 Z M 166.097656 72.210938 L 170.207031 69.832031 L 170.207031 87.886719 L 166.097656 90.265625 L 166.097656 72.210938 " fill-opacity="1" fill-rule="evenodd"/><path fill="#349091" d="M 193.824219 132.214844 L 197.164062 130.289062 L 197.164062 133.210938 C 197.164062 133.738281 197.261719 134.097656 197.457031 134.296875 L 195.855469 133.34375 C 195.761719 133.332031 195.6875 133.300781 195.628906 133.253906 L 194.023438 132.304688 C 193.953125 132.289062 193.882812 132.257812 193.824219 132.214844 " fill-opacity="1" fill-rule="evenodd"/><path fill="#7bd3dd" d="M 133.226562 101.304688 C 132.640625 101.425781 131.707031 101.425781 130.429688 101.304688 C 128.125 101.050781 125.6875 101.546875 123.113281 102.800781 L 123.113281 114.746094 L 152.125 97.933594 L 152.125 95.921875 C 151.882812 95.589844 151.605469 95.234375 151.289062 94.859375 C 150.671875 94.148438 150.136719 93.695312 149.6875 93.5 C 149.308594 94.027344 148.691406 94.882812 147.835938 96.058594 C 146.300781 98.183594 145.3125 99.40625 144.878906 99.722656 C 143.988281 100.460938 143.191406 100.671875 142.484375 100.355469 L 142.460938 100.378906 C 142.25 100.273438 141.777344 99.851562 141.039062 99.113281 C 139.878906 97.996094 138.480469 98.078125 136.839844 99.359375 C 135.53125 100.445312 134.328125 101.09375 133.226562 101.304688 Z M 121.984375 99.496094 L 153.253906 81.394531 C 153.554688 81.214844 153.816406 81.109375 154.042969 81.078125 C 154.253906 81.078125 154.359375 81.15625 154.359375 81.304688 L 154.359375 97.234375 C 154.359375 97.386719 154.253906 97.574219 154.042969 97.796875 C 153.816406 98.054688 153.554688 98.273438 153.253906 98.457031 L 121.984375 116.558594 C 121.683594 116.738281 121.421875 116.828125 121.195312 116.828125 C 120.96875 116.855469 120.855469 116.796875 120.855469 116.648438 L 120.855469 100.71875 C 120.855469 100.566406 120.96875 100.363281 121.195312 100.105469 C 121.421875 99.882812 121.683594 99.675781 121.984375 99.496094 Z M 123.113281 101.601562 C 126.019531 100.121094 128.75 99.519531 131.308594 99.789062 C 132.484375 99.910156 133.355469 99.910156 133.929688 99.789062 L 133.929688 99.8125 C 134.816406 99.617188 135.785156 99.089844 136.839844 98.230469 C 138.949219 96.511719 140.714844 96.335938 142.144531 97.710938 C 142.851562 98.386719 143.296875 98.789062 143.476562 98.90625 C 143.898438 99.089844 144.367188 98.984375 144.878906 98.589844 C 145.191406 98.289062 145.960938 97.300781 147.179688 95.625 C 148.578125 93.683594 149.363281 92.601562 149.527344 92.390625 C 149.679688 92.195312 149.8125 92.058594 149.933594 91.984375 C 150.097656 91.863281 150.21875 91.824219 150.296875 91.871094 C 150.792969 91.992188 151.402344 92.429688 152.125 93.183594 L 152.125 83.160156 L 123.113281 99.972656 L 123.113281 101.601562 " fill-opacity="1" fill-rule="evenodd"/><path fill="#272b71" d="M 133.226562 101.304688 C 134.328125 101.09375 135.53125 100.445312 136.839844 99.359375 C 138.480469 98.078125 139.878906 97.996094 141.039062 99.113281 C 141.777344 99.851562 142.25 100.273438 142.460938 100.378906 L 142.484375 100.355469 C 143.191406 100.671875 143.988281 100.460938 144.878906 99.722656 C 145.3125 99.40625 146.300781 98.183594 147.835938 96.058594 C 148.691406 94.882812 149.308594 94.027344 149.6875 93.5 C 150.136719 93.695312 150.671875 94.148438 151.289062 94.859375 C 151.605469 95.234375 151.882812 95.589844 152.125 95.921875 L 152.125 97.933594 L 123.113281 114.746094 L 123.113281 102.800781 C 125.6875 101.546875 128.125 101.050781 130.429688 101.304688 C 131.707031 101.425781 132.640625 101.425781 133.226562 101.304688 " fill-opacity="1" fill-rule="evenodd"/><path fill="#f4f2fa" d="M 229.449219 102.167969 L 213.394531 111.714844 L 213.394531 114.859375 L 229.449219 105.332031 Z M 212.335938 99.089844 L 229.671875 88.792969 L 229.671875 85.625 L 212.335938 95.964844 Z M 213.625 103.273438 L 229.671875 93.75 L 229.671875 90.582031 L 213.625 100.128906 Z M 218.816406 105.109375 L 229.671875 98.636719 L 229.671875 95.515625 L 218.816406 101.9375 Z M 209.671875 103.5 L 193.617188 113.050781 L 193.617188 116.195312 L 209.671875 106.667969 Z M 199.039062 106.441406 L 209.894531 99.972656 L 209.894531 96.851562 L 199.039062 103.273438 Z M 193.847656 104.609375 L 209.894531 95.082031 L 209.894531 91.917969 L 193.847656 101.464844 Z M 190.503906 101.644531 L 209.894531 90.128906 L 209.894531 86.960938 L 190.503906 98.523438 Z M 187.816406 125.585938 L 184.316406 127.597656 L 169.9375 135.925781 L 169.9375 97.640625 L 210.4375 74.199219 L 212.335938 73.09375 L 212.335938 73.136719 L 169.960938 97.640625 L 169.960938 105.152344 L 212.335938 80.648438 L 212.335938 83.203125 L 230.214844 72.863281 L 232.113281 71.757812 L 232.113281 71.800781 L 212.335938 83.25 L 212.335938 90.738281 L 232.113281 79.3125 L 232.113281 110.039062 L 212.585938 121.351562 L 203.304688 126.714844 L 201.410156 127.824219 L 197.164062 130.289062 L 193.824219 132.214844 L 189.714844 134.589844 L 189.714844 124.476562 L 187.816406 125.585938 " fill-opacity="1" fill-rule="evenodd"/><path fill="#4ac2bd" d="M 218.816406 105.109375 L 218.816406 101.9375 L 229.671875 95.515625 L 229.671875 98.636719 Z M 199.039062 106.441406 L 199.039062 103.273438 L 209.894531 96.851562 L 209.894531 99.972656 L 199.039062 106.441406 " fill-opacity="1" fill-rule="evenodd"/></svg>