<svg xmlns="http://www.w3.org/2000/svg" xmlns:xlink="http://www.w3.org/1999/xlink" width="439" zoomAndPan="magnify" viewBox="0 0 329.25 201.749994" height="269" preserveAspectRatio="xMidYMid meet" version="1.0"><defs><clipPath id="12616827a8"><path d="M 39.089844 8.359375 L 289.769531 8.359375 L 289.769531 193.1875 L 39.089844 193.1875 Z M 39.089844 8.359375 " clip-rule="nonzero"/></clipPath><clipPath id="94d7515789"><path d="M 39.089844 8.359375 L 289.769531 8.359375 L 289.769531 193.1875 L 39.089844 193.1875 Z M 39.089844 8.359375 " clip-rule="nonzero"/></clipPath></defs><g clip-path="url(#12616827a8)"><path fill="#9fcdff" d="M 289.636719 176.707031 C 289.636719 185.800781 282.257812 193.171875 273.152344 193.171875 C 267.121094 193.171875 261.863281 189.925781 258.988281 185.097656 L 139.65625 185.097656 L 139.65625 163.25 L 80.734375 163.25 C 79.074219 163.25 77.726562 161.90625 77.726562 160.246094 L 77.726562 103.535156 L 54.113281 103.535156 L 54.113281 52.394531 L 48.039062 57.78125 L 46.785156 56.371094 L 54.113281 49.867188 L 54.113281 38.109375 L 40.464844 50.214844 L 39.210938 48.804688 L 54.113281 35.585938 L 54.113281 24.449219 L 66.667969 24.449219 L 84.8125 8.359375 L 86.066406 9.769531 L 69.515625 24.449219 L 82.773438 24.449219 L 92.386719 15.925781 L 93.640625 17.335938 L 85.617188 24.449219 L 133.292969 24.449219 L 133.292969 46.660156 L 245.996094 46.660156 C 247.660156 46.660156 249.007812 48.007812 249.007812 49.664062 L 249.007812 91.316406 L 274.929688 91.316406 C 276.3125 91.316406 277.433594 92.4375 277.433594 93.816406 L 277.433594 160.824219 C 284.457031 162.710938 289.636719 169.097656 289.636719 176.707031 Z M 60.410156 144.722656 L 42.367188 144.722656 L 42.367188 162.742188 L 60.410156 162.742188 Z M 274.402344 44.527344 L 256.363281 44.527344 L 256.363281 62.546875 L 274.402344 62.546875 Z M 60.410156 179.777344 L 73.847656 179.777344 L 73.847656 166.355469 L 60.410156 166.355469 Z M 253.28125 27.113281 L 239.84375 27.113281 L 239.84375 40.539062 L 253.28125 40.539062 Z M 253.28125 27.113281 " fill-opacity="1" fill-rule="nonzero"/></g><path fill="#88cec7" d="M 89.816406 121.445312 L 109.550781 121.445312 L 109.550781 130.867188 L 89.816406 130.867188 Z M 89.816406 119.558594 L 109.550781 119.558594 L 109.550781 110.144531 L 89.816406 110.144531 Z M 111.441406 130.867188 L 131.601562 130.867188 L 131.601562 121.445312 L 111.441406 121.445312 Z M 111.441406 119.558594 L 131.601562 119.558594 L 131.601562 110.144531 L 111.441406 110.144531 Z M 133.492188 96.945312 L 153.226562 96.945312 L 153.226562 98.832031 L 133.492188 98.832031 L 133.492188 108.253906 L 153.226562 108.253906 L 153.226562 110.144531 L 133.492188 110.144531 L 133.492188 119.558594 L 153.226562 119.558594 L 153.226562 121.445312 L 133.492188 121.445312 L 133.492188 130.867188 L 153.226562 130.867188 L 153.226562 132.757812 L 133.492188 132.757812 L 133.492188 141.050781 L 153.226562 141.050781 L 153.226562 89.339844 L 133.492188 89.339844 Z M 111.441406 141.050781 L 131.601562 141.050781 L 131.601562 132.757812 L 111.441406 132.757812 Z M 89.816406 96.945312 L 109.550781 96.945312 L 109.550781 89.339844 L 89.816406 89.339844 Z M 89.816406 103.535156 L 89.816406 108.253906 L 109.550781 108.253906 L 109.550781 98.832031 L 89.816406 98.832031 Z M 111.441406 103.535156 L 111.441406 108.253906 L 131.601562 108.253906 L 131.601562 98.832031 L 111.441406 98.832031 Z M 111.441406 96.945312 L 131.601562 96.945312 L 131.601562 89.339844 L 111.441406 89.339844 Z M 236.582031 80.757812 L 236.582031 141.050781 L 170.332031 141.050781 L 170.332031 80.757812 Z M 183.820312 89.339844 L 223.09375 89.339844 L 223.09375 85.046875 L 183.820312 85.046875 Z M 227.402344 102.742188 C 227.011719 102.398438 226.410156 102.441406 226.070312 102.832031 L 218.492188 111.523438 L 213.101562 105.890625 C 212.90625 105.691406 212.636719 105.585938 212.359375 105.601562 C 212.082031 105.621094 211.828125 105.757812 211.660156 105.980469 L 200.644531 120.699219 L 194.09375 113.191406 C 193.921875 112.996094 193.679688 112.878906 193.417969 112.871094 C 193.160156 112.851562 192.902344 112.957031 192.71875 113.140625 L 186.578125 119.222656 L 181.078125 114.570312 L 181.078125 95.402344 L 179.1875 95.402344 L 179.1875 134.613281 L 226.78125 134.613281 L 226.78125 132.726562 L 181.078125 132.726562 L 181.078125 117.046875 L 186.015625 121.222656 C 186.390625 121.539062 186.945312 121.515625 187.292969 121.171875 L 193.332031 115.191406 L 199.988281 122.820312 C 200.167969 123.023438 200.429688 123.144531 200.699219 123.144531 C 200.710938 123.144531 200.722656 123.144531 200.734375 123.140625 C 201.023438 123.132812 201.285156 122.992188 201.457031 122.765625 L 212.507812 108.003906 L 217.84375 113.574219 C 218.023438 113.765625 218.296875 113.878906 218.546875 113.867188 C 218.8125 113.859375 219.0625 113.742188 219.238281 113.542969 L 227.492188 104.074219 C 227.835938 103.679688 227.796875 103.082031 227.402344 102.742188 Z M 227.402344 102.742188 " fill-opacity="1" fill-rule="nonzero"/><path fill="#5285ff" d="M 245.996094 46.660156 L 80.734375 46.660156 C 79.074219 46.660156 77.726562 48.007812 77.726562 49.664062 L 77.726562 56.386719 L 249.007812 56.386719 L 249.007812 49.664062 C 249.007812 48.007812 247.660156 46.660156 245.996094 46.660156 Z M 83.421875 53.535156 C 82.308594 53.535156 81.410156 52.636719 81.410156 51.523438 C 81.410156 50.410156 82.308594 49.511719 83.421875 49.511719 C 84.535156 49.511719 85.4375 50.410156 85.4375 51.523438 C 85.4375 52.636719 84.535156 53.535156 83.421875 53.535156 Z M 90.710938 53.535156 C 89.597656 53.535156 88.695312 52.636719 88.695312 51.523438 C 88.695312 50.410156 89.597656 49.511719 90.710938 49.511719 C 91.824219 49.511719 92.726562 50.410156 92.726562 51.523438 C 92.726562 52.636719 91.824219 53.535156 90.710938 53.535156 Z M 98.125 53.535156 C 97.011719 53.535156 96.109375 52.636719 96.109375 51.523438 C 96.109375 50.410156 97.011719 49.511719 98.125 49.511719 C 99.234375 49.511719 100.136719 50.410156 100.136719 51.523438 C 100.136719 52.636719 99.234375 53.535156 98.125 53.535156 Z M 89.816406 80.757812 L 89.816406 89.339844 L 109.550781 89.339844 L 109.550781 96.945312 L 89.816406 96.945312 L 89.816406 98.832031 L 109.550781 98.832031 L 109.550781 108.253906 L 89.816406 108.253906 L 89.816406 110.144531 L 109.550781 110.144531 L 109.550781 119.558594 L 89.816406 119.558594 L 89.816406 121.445312 L 109.550781 121.445312 L 109.550781 130.867188 L 89.816406 130.867188 L 89.816406 132.757812 L 109.570312 132.757812 L 109.570312 141.050781 L 109.550781 141.050781 L 111.441406 141.050781 L 111.441406 132.757812 L 131.601562 132.757812 L 131.601562 141.050781 L 133.492188 141.050781 L 133.492188 132.757812 L 153.226562 132.757812 L 153.226562 130.867188 L 133.492188 130.867188 L 133.492188 121.445312 L 153.226562 121.445312 L 153.226562 119.558594 L 133.492188 119.558594 L 133.492188 110.144531 L 153.226562 110.144531 L 153.226562 108.253906 L 133.492188 108.253906 L 133.492188 98.832031 L 153.226562 98.832031 L 153.226562 96.945312 L 133.492188 96.945312 L 133.492188 89.339844 L 153.226562 89.339844 L 153.226562 80.757812 Z M 131.601562 130.867188 L 111.441406 130.867188 L 111.441406 121.445312 L 131.601562 121.445312 Z M 131.601562 119.558594 L 111.441406 119.558594 L 111.441406 110.144531 L 131.601562 110.144531 Z M 131.601562 103.535156 L 131.601562 108.253906 L 111.441406 108.253906 L 111.441406 98.832031 L 131.601562 98.832031 Z M 131.601562 96.945312 L 111.441406 96.945312 L 111.441406 89.339844 L 131.601562 89.339844 Z M 181.078125 132.726562 L 226.78125 132.726562 L 226.78125 134.613281 L 179.1875 134.613281 L 179.1875 95.402344 L 181.078125 95.402344 L 181.078125 114.570312 L 180.746094 114.289062 C 180.34375 113.953125 179.75 114 179.410156 114.398438 C 179.074219 114.796875 179.125 115.394531 179.523438 115.730469 L 181.078125 117.046875 Z M 181.078125 132.726562 " fill-opacity="1" fill-rule="nonzero"/><g clip-path="url(#94d7515789)"><path fill="#1ddd92" d="M 83.421875 49.511719 C 84.535156 49.511719 85.4375 50.410156 85.4375 51.523438 C 85.4375 52.636719 84.535156 53.535156 83.421875 53.535156 C 82.308594 53.535156 81.410156 52.636719 81.410156 51.523438 C 81.410156 50.410156 82.308594 49.511719 83.421875 49.511719 Z M 88.695312 51.523438 C 88.695312 52.636719 89.597656 53.535156 90.710938 53.535156 C 91.824219 53.535156 92.726562 52.636719 92.726562 51.523438 C 92.726562 50.410156 91.824219 49.511719 90.710938 49.511719 C 89.597656 49.511719 88.695312 50.410156 88.695312 51.523438 Z M 98.125 53.535156 C 99.234375 53.535156 100.136719 52.636719 100.136719 51.523438 C 100.136719 50.410156 99.234375 49.511719 98.125 49.511719 C 97.011719 49.511719 96.109375 50.410156 96.109375 51.523438 C 96.109375 52.636719 97.011719 53.535156 98.125 53.535156 Z M 133.292969 56.386719 L 249.007812 56.386719 L 249.007812 67.703125 L 77.726562 67.703125 L 77.726562 56.386719 Z M 198.335938 58.984375 L 128.394531 58.984375 L 128.394531 63.992188 L 198.335938 63.992188 Z M 69.515625 24.449219 L 86.066406 9.769531 L 84.8125 8.359375 L 66.667969 24.449219 L 54.113281 35.585938 L 39.210938 48.804688 L 40.464844 50.214844 L 54.113281 38.109375 Z M 93.640625 17.335938 L 92.386719 15.925781 L 82.773438 24.449219 L 54.113281 49.867188 L 46.785156 56.371094 L 48.039062 57.78125 L 54.113281 52.394531 L 85.617188 24.449219 Z M 277.433594 160.824219 C 276.066406 160.460938 274.636719 160.246094 273.152344 160.246094 C 264.050781 160.246094 256.671875 167.617188 256.671875 176.707031 C 256.671875 179.777344 257.527344 182.640625 258.988281 185.097656 C 261.863281 189.925781 267.121094 193.171875 273.152344 193.171875 C 282.257812 193.171875 289.636719 185.800781 289.636719 176.707031 C 289.636719 169.097656 284.457031 162.710938 277.433594 160.824219 Z M 277.433594 160.824219 " fill-opacity="1" fill-rule="nonzero"/></g><path fill="#984fff" d="M 133.292969 46.660156 L 80.734375 46.660156 C 79.074219 46.660156 77.726562 48.007812 77.726562 49.664062 L 77.726562 103.535156 L 54.113281 103.535156 L 54.113281 52.394531 L 85.617188 24.449219 L 133.292969 24.449219 Z M 54.113281 24.449219 L 54.113281 35.585938 L 66.667969 24.449219 Z M 69.515625 24.449219 L 54.113281 38.109375 L 54.113281 49.867188 L 82.773438 24.449219 Z M 274.929688 91.316406 L 249.007812 91.316406 L 249.007812 160.246094 C 249.007812 161.90625 247.660156 163.25 245.996094 163.25 L 139.65625 163.25 L 139.65625 185.097656 L 258.988281 185.097656 C 257.527344 182.640625 256.671875 179.777344 256.671875 176.707031 C 256.671875 167.617188 264.050781 160.246094 273.152344 160.246094 C 274.636719 160.246094 276.066406 160.460938 277.433594 160.824219 L 277.433594 93.816406 C 277.433594 92.4375 276.3125 91.316406 274.929688 91.316406 Z M 89.816406 132.757812 L 89.816406 141.050781 L 109.570312 141.050781 L 109.570312 132.757812 Z M 183.820312 89.339844 L 223.09375 89.339844 L 223.09375 85.046875 L 183.820312 85.046875 Z M 213.101562 105.890625 C 212.90625 105.691406 212.636719 105.585938 212.359375 105.601562 C 212.082031 105.621094 211.828125 105.757812 211.660156 105.980469 L 200.644531 120.699219 L 194.09375 113.191406 C 193.921875 112.996094 193.679688 112.878906 193.417969 112.871094 C 193.160156 112.851562 192.902344 112.957031 192.71875 113.140625 L 186.578125 119.222656 L 181.078125 114.570312 L 180.746094 114.289062 C 180.34375 113.953125 179.75 114 179.410156 114.398438 C 179.074219 114.796875 179.125 115.394531 179.523438 115.730469 L 181.078125 117.046875 L 186.015625 121.222656 C 186.390625 121.539062 186.945312 121.515625 187.292969 121.171875 L 193.332031 115.191406 L 199.988281 122.820312 C 200.167969 123.023438 200.429688 123.144531 200.699219 123.144531 C 200.710938 123.144531 200.722656 123.144531 200.734375 123.140625 C 201.023438 123.132812 201.285156 122.992188 201.457031 122.765625 L 212.507812 108.003906 L 217.84375 113.574219 C 218.023438 113.765625 218.296875 113.878906 218.546875 113.867188 C 218.8125 113.859375 219.0625 113.742188 219.238281 113.542969 L 227.492188 104.074219 C 227.835938 103.679688 227.796875 103.082031 227.402344 102.742188 C 227.011719 102.398438 226.410156 102.441406 226.070312 102.832031 L 218.492188 111.523438 Z M 60.410156 144.722656 L 42.367188 144.722656 L 42.367188 162.742188 L 60.410156 162.742188 Z M 274.402344 44.527344 L 256.363281 44.527344 L 256.363281 62.546875 L 274.402344 62.546875 Z M 60.410156 179.777344 L 73.847656 179.777344 L 73.847656 166.355469 L 60.410156 166.355469 Z M 253.28125 27.113281 L 239.84375 27.113281 L 239.84375 40.539062 L 253.28125 40.539062 Z M 198.335938 58.984375 L 128.394531 58.984375 L 128.394531 63.992188 L 198.335938 63.992188 Z M 198.335938 58.984375 " fill-opacity="1" fill-rule="nonzero"/></svg>