<svg xmlns="http://www.w3.org/2000/svg" xmlns:xlink="http://www.w3.org/1999/xlink" width="439" zoomAndPan="magnify" viewBox="0 0 329.25 201.749994" height="269" preserveAspectRatio="xMidYMid meet" version="1.0"><defs><clipPath id="6f63066bd0"><path d="M 59.074219 8.792969 L 269.34375 8.792969 L 269.34375 192.875 L 59.074219 192.875 Z M 59.074219 8.792969 " clip-rule="nonzero"/></clipPath><clipPath id="16db6d4da4"><path d="M 59.074219 8.792969 L 269.34375 8.792969 L 269.34375 185 L 59.074219 185 Z M 59.074219 8.792969 " clip-rule="nonzero"/></clipPath></defs><g clip-path="url(#6f63066bd0)"><path fill="#9fcdff" d="M 203.203125 29.621094 L 203.203125 9.761719 C 203.203125 9.304688 203.578125 8.933594 204.035156 8.933594 L 223.910156 8.933594 C 224.371094 8.933594 224.742188 9.304688 224.742188 9.761719 L 224.742188 29.621094 C 224.742188 30.078125 224.371094 30.449219 223.910156 30.449219 L 204.035156 30.449219 C 203.578125 30.449219 203.203125 30.078125 203.203125 29.621094 Z M 268.140625 86.015625 L 249.328125 86.015625 L 249.328125 58.992188 L 265.613281 58.992188 C 266.070312 58.992188 266.441406 58.621094 266.441406 58.164062 L 266.441406 23.957031 C 266.441406 23.5 266.070312 23.128906 265.613281 23.128906 L 231.375 23.128906 C 230.914062 23.128906 230.539062 23.503906 230.539062 23.960938 L 230.539062 41.894531 L 85.570312 41.894531 C 84.097656 41.894531 82.902344 43.085938 82.902344 44.5625 L 82.902344 62.785156 L 70.945312 62.785156 C 70.410156 62.785156 69.96875 63.226562 69.96875 63.761719 L 69.96875 130.769531 C 69.96875 131.199219 70.316406 131.546875 70.746094 131.546875 L 82.902344 131.546875 L 82.902344 147.359375 L 59.90625 147.359375 C 59.445312 147.359375 59.074219 147.730469 59.074219 148.191406 L 59.074219 183.636719 C 59.074219 184.09375 59.445312 184.46875 59.90625 184.46875 L 82.703125 184.46875 L 82.703125 191.914062 C 82.703125 192.371094 83.074219 192.742188 83.53125 192.742188 L 102.582031 192.742188 C 103.039062 192.742188 103.410156 192.371094 103.410156 191.914062 L 103.410156 184.46875 L 115.214844 184.46875 C 115.671875 184.46875 116.046875 184.09375 116.046875 183.636719 L 116.046875 159.78125 L 179.445312 159.78125 L 179.445312 173.417969 C 179.445312 173.613281 179.601562 173.765625 179.789062 173.765625 L 269 173.765625 C 269.1875 173.765625 269.34375 173.613281 269.34375 173.417969 L 269.34375 87.214844 C 269.34375 86.550781 268.804688 86.015625 268.140625 86.015625 Z M 268.140625 86.015625 " fill-opacity="1" fill-rule="nonzero"/></g><path fill="#91cec8" d="M 213.972656 46.523438 L 213.972656 46.035156 C 213.972656 45.484375 214.417969 45.039062 214.96875 45.039062 L 243.5 45.039062 C 244.050781 45.039062 244.5 45.484375 244.5 46.035156 L 244.5 46.523438 C 244.5 47.074219 244.050781 47.519531 243.5 47.519531 L 214.96875 47.519531 C 214.417969 47.519531 213.972656 47.074219 213.972656 46.523438 Z M 82.902344 50.527344 L 82.902344 62.785156 L 170.246094 62.785156 C 170.976562 62.785156 171.5625 63.375 171.5625 64.101562 L 171.5625 131.546875 L 82.902344 131.546875 L 82.902344 153.957031 L 179.445312 153.957031 L 179.445312 87.007812 C 179.445312 86.460938 179.890625 86.015625 180.441406 86.015625 L 249.328125 86.015625 L 249.328125 50.527344 Z M 82.902344 50.527344 " fill-opacity="1" fill-rule="nonzero"/><path fill="#1ddd92" d="M 89.746094 46.210938 C 89.746094 47.199219 88.945312 48 87.957031 48 C 86.96875 48 86.167969 47.199219 86.167969 46.210938 C 86.167969 45.222656 86.96875 44.425781 87.957031 44.425781 C 88.945312 44.425781 89.746094 45.222656 89.746094 46.210938 Z M 94.429688 44.425781 C 93.441406 44.425781 92.640625 45.222656 92.640625 46.210938 C 92.640625 47.199219 93.441406 48 94.429688 48 C 95.414062 48 96.214844 47.199219 96.214844 46.210938 C 96.214844 45.222656 95.414062 44.425781 94.429688 44.425781 Z M 101.007812 44.425781 C 100.019531 44.425781 99.21875 45.222656 99.21875 46.210938 C 99.21875 47.199219 100.019531 48 101.007812 48 C 101.996094 48 102.796875 47.199219 102.796875 46.210938 C 102.796875 45.222656 101.996094 44.425781 101.007812 44.425781 Z M 73.628906 64.609375 C 72.917969 64.609375 72.347656 65.183594 72.347656 65.890625 C 72.347656 66.597656 72.917969 67.171875 73.628906 67.171875 C 74.335938 67.171875 74.910156 66.597656 74.910156 65.890625 C 74.910156 65.183594 74.335938 64.609375 73.628906 64.609375 Z M 78.261719 64.609375 C 77.554688 64.609375 76.980469 65.183594 76.980469 65.890625 C 76.980469 66.597656 77.554688 67.171875 78.261719 67.171875 C 78.96875 67.171875 79.542969 66.597656 79.542969 65.890625 C 79.542969 65.183594 78.96875 64.609375 78.261719 64.609375 Z M 82.976562 64.609375 C 82.949219 64.609375 82.925781 64.617188 82.902344 64.617188 C 82.230469 64.65625 81.695312 65.207031 81.695312 65.890625 C 81.695312 66.574219 82.230469 67.125 82.902344 67.164062 C 82.925781 67.164062 82.949219 67.171875 82.976562 67.171875 C 83.683594 67.171875 84.257812 66.597656 84.257812 65.890625 C 84.257812 65.183594 83.683594 64.609375 82.976562 64.609375 Z M 183.640625 88.105469 C 182.828125 88.105469 182.167969 88.761719 182.167969 89.574219 C 182.167969 90.386719 182.828125 91.042969 183.640625 91.042969 C 184.449219 91.042969 185.109375 90.386719 185.109375 89.574219 C 185.109375 88.761719 184.449219 88.105469 183.640625 88.105469 Z M 188.957031 88.105469 C 188.144531 88.105469 187.484375 88.761719 187.484375 89.574219 C 187.484375 90.386719 188.144531 91.042969 188.957031 91.042969 C 189.769531 91.042969 190.425781 90.386719 190.425781 89.574219 C 190.425781 88.761719 189.769531 88.105469 188.957031 88.105469 Z M 194.363281 88.105469 C 193.550781 88.105469 192.894531 88.761719 192.894531 89.574219 C 192.894531 90.386719 193.550781 91.042969 194.363281 91.042969 C 195.175781 91.042969 195.832031 90.386719 195.832031 89.574219 C 195.832031 88.761719 195.175781 88.105469 194.363281 88.105469 Z M 196.136719 110.601562 L 205.964844 110.601562 L 205.964844 109.878906 L 196.136719 109.878906 Z M 196.136719 113.644531 L 205.964844 113.644531 L 205.964844 112.925781 L 196.136719 112.925781 Z M 196.136719 116.691406 L 205.964844 116.691406 L 205.964844 115.972656 L 196.136719 115.972656 Z M 196.136719 119.738281 L 205.964844 119.738281 L 205.964844 119.015625 L 196.136719 119.015625 Z M 219.4375 110.601562 L 229.265625 110.601562 L 229.265625 109.878906 L 219.4375 109.878906 Z M 219.4375 113.644531 L 229.265625 113.644531 L 229.265625 112.925781 L 219.4375 112.925781 Z M 219.4375 116.691406 L 229.265625 116.691406 L 229.265625 115.972656 L 219.4375 115.972656 Z M 219.4375 119.738281 L 229.265625 119.738281 L 229.265625 119.015625 L 219.4375 119.015625 Z M 249.328125 109.878906 L 242.660156 109.878906 L 242.660156 110.601562 L 252.488281 110.601562 L 252.488281 109.878906 Z M 242.660156 112.925781 L 242.660156 113.644531 L 252.488281 113.644531 L 252.488281 112.925781 Z M 242.660156 115.972656 L 242.660156 116.691406 L 252.488281 116.691406 L 252.488281 115.972656 Z M 242.660156 119.015625 L 242.660156 119.738281 L 252.488281 119.738281 L 252.488281 119.015625 Z M 196.136719 141.992188 L 205.964844 141.992188 L 205.964844 141.269531 L 196.136719 141.269531 Z M 196.136719 145.035156 L 205.964844 145.035156 L 205.964844 144.316406 L 196.136719 144.316406 Z M 196.136719 148.082031 L 205.964844 148.082031 L 205.964844 147.363281 L 196.136719 147.363281 Z M 196.136719 151.128906 L 205.964844 151.128906 L 205.964844 150.40625 L 196.136719 150.40625 Z M 219.4375 141.992188 L 229.265625 141.992188 L 229.265625 141.269531 L 219.4375 141.269531 Z M 219.4375 145.035156 L 229.265625 145.035156 L 229.265625 144.316406 L 219.4375 144.316406 Z M 219.4375 148.082031 L 229.265625 148.082031 L 229.265625 147.363281 L 219.4375 147.363281 Z M 219.4375 151.128906 L 229.265625 151.128906 L 229.265625 150.40625 L 219.4375 150.40625 Z M 219.4375 151.128906 " fill-opacity="1" fill-rule="nonzero"/><path fill="#5285ff" d="M 230.542969 50.527344 L 249.324219 50.527344 L 249.324219 44.5625 C 249.324219 44.449219 249.304688 44.34375 249.292969 44.234375 C 249.128906 42.917969 248.019531 41.894531 246.65625 41.894531 L 85.570312 41.894531 C 84.097656 41.894531 82.902344 43.089844 82.902344 44.5625 L 82.902344 50.527344 Z M 87.957031 48 C 86.96875 48 86.167969 47.199219 86.167969 46.210938 C 86.167969 45.222656 86.96875 44.425781 87.957031 44.425781 C 88.945312 44.425781 89.746094 45.222656 89.746094 46.210938 C 89.746094 47.199219 88.945312 48 87.957031 48 Z M 94.429688 48 C 93.441406 48 92.640625 47.199219 92.640625 46.210938 C 92.640625 45.222656 93.441406 44.425781 94.429688 44.425781 C 95.414062 44.425781 96.214844 45.222656 96.214844 46.210938 C 96.214844 47.199219 95.414062 48 94.429688 48 Z M 101.007812 48 C 100.019531 48 99.21875 47.199219 99.21875 46.210938 C 99.21875 45.222656 100.019531 44.425781 101.007812 44.425781 C 101.996094 44.425781 102.796875 45.222656 102.796875 46.210938 C 102.796875 47.199219 101.996094 48 101.007812 48 Z M 244.5 46.523438 C 244.5 47.074219 244.050781 47.519531 243.5 47.519531 L 214.96875 47.519531 C 214.417969 47.519531 213.972656 47.074219 213.972656 46.523438 L 213.972656 46.035156 C 213.972656 45.484375 214.417969 45.039062 214.96875 45.039062 L 243.5 45.039062 C 244.050781 45.039062 244.5 45.484375 244.5 46.035156 Z M 116.046875 153.957031 L 179.445312 153.957031 L 179.445312 159.78125 L 85.578125 159.78125 C 84.101562 159.78125 82.902344 158.582031 82.902344 157.109375 L 82.902344 153.957031 Z M 99.171875 80.121094 L 86.070312 80.121094 C 85.894531 80.121094 85.742188 80.242188 85.703125 80.410156 L 83.738281 89.179688 L 83.722656 89.179688 C 83.605469 89.179688 83.511719 89.085938 83.511719 88.964844 L 83.511719 77.988281 C 83.511719 77.871094 83.605469 77.777344 83.722656 77.777344 L 88.757812 77.777344 C 88.875 77.777344 88.972656 77.871094 88.972656 77.988281 L 88.972656 78.8125 C 88.972656 78.929688 89.066406 79.027344 89.183594 79.027344 L 98.960938 79.027344 C 99.078125 79.027344 99.171875 79.121094 99.171875 79.238281 Z M 88.972656 101.746094 L 88.972656 102.566406 C 88.972656 102.6875 89.066406 102.78125 89.183594 102.78125 L 98.960938 102.78125 C 99.078125 102.78125 99.171875 102.875 99.171875 102.996094 L 99.171875 103.875 L 86.070312 103.875 C 85.894531 103.875 85.742188 103.996094 85.703125 104.164062 L 83.738281 112.933594 L 83.722656 112.933594 C 83.605469 112.933594 83.511719 112.839844 83.511719 112.71875 L 83.511719 101.746094 C 83.511719 101.625 83.605469 101.53125 83.722656 101.53125 L 88.757812 101.53125 C 88.875 101.53125 88.972656 101.625 88.972656 101.746094 Z M 127.316406 80.121094 L 114.210938 80.121094 C 114.035156 80.121094 113.886719 80.242188 113.847656 80.410156 L 111.882812 89.179688 L 111.867188 89.179688 C 111.75 89.179688 111.652344 89.085938 111.652344 88.964844 L 111.652344 77.988281 C 111.652344 77.871094 111.75 77.777344 111.867188 77.777344 L 116.902344 77.777344 C 117.019531 77.777344 117.113281 77.871094 117.113281 77.988281 L 117.113281 78.8125 C 117.113281 78.929688 117.210938 79.027344 117.328125 79.027344 L 127.101562 79.027344 C 127.222656 79.027344 127.316406 79.121094 127.316406 79.238281 Z M 117.113281 101.746094 L 117.113281 102.566406 C 117.113281 102.6875 117.210938 102.78125 117.328125 102.78125 L 127.101562 102.78125 C 127.222656 102.78125 127.316406 102.875 127.316406 102.996094 L 127.316406 103.875 L 114.210938 103.875 C 114.035156 103.875 113.886719 103.996094 113.847656 104.164062 L 111.882812 112.933594 L 111.867188 112.933594 C 111.75 112.933594 111.652344 112.839844 111.652344 112.71875 L 111.652344 101.746094 C 111.652344 101.625 111.75 101.53125 111.867188 101.53125 L 116.902344 101.53125 C 117.019531 101.53125 117.113281 101.625 117.113281 101.746094 Z M 145.257812 77.988281 L 145.257812 78.8125 C 145.257812 78.929688 145.351562 79.027344 145.472656 79.027344 L 155.246094 79.027344 C 155.363281 79.027344 155.460938 79.121094 155.460938 79.238281 L 155.460938 80.121094 L 142.355469 80.121094 C 142.179688 80.121094 142.027344 80.242188 141.988281 80.410156 L 140.023438 89.179688 L 140.011719 89.179688 C 139.890625 89.179688 139.796875 89.085938 139.796875 88.964844 L 139.796875 77.988281 C 139.796875 77.871094 139.890625 77.777344 140.011719 77.777344 L 145.042969 77.777344 C 145.164062 77.777344 145.257812 77.871094 145.257812 77.988281 Z M 205.964844 107.359375 L 205.964844 104.742188 L 194.304688 104.742188 C 193.863281 104.742188 193.507812 105.097656 193.507812 105.539062 L 193.507812 122.707031 C 193.507812 123.148438 193.863281 123.503906 194.304688 123.503906 L 207.964844 123.503906 C 208.402344 123.503906 208.757812 123.148438 208.757812 122.707031 L 208.757812 107.710938 L 206.316406 107.710938 C 206.125 107.710938 205.964844 107.550781 205.964844 107.359375 Z M 205.964844 119.738281 L 196.136719 119.738281 L 196.136719 119.015625 L 205.964844 119.015625 Z M 205.964844 116.691406 L 196.136719 116.691406 L 196.136719 115.972656 L 205.964844 115.972656 Z M 205.964844 113.644531 L 196.136719 113.644531 L 196.136719 112.925781 L 205.964844 112.925781 Z M 205.964844 110.601562 L 196.136719 110.601562 L 196.136719 109.878906 L 205.964844 109.878906 Z M 229.265625 107.359375 L 229.265625 104.742188 L 217.605469 104.742188 C 217.167969 104.742188 216.808594 105.097656 216.808594 105.539062 L 216.808594 122.707031 C 216.808594 123.148438 217.167969 123.503906 217.605469 123.503906 L 231.265625 123.503906 C 231.703125 123.503906 232.058594 123.148438 232.058594 122.707031 L 232.058594 107.710938 L 229.621094 107.710938 C 229.425781 107.710938 229.265625 107.550781 229.265625 107.359375 Z M 229.265625 119.738281 L 219.4375 119.738281 L 219.4375 119.015625 L 229.265625 119.015625 Z M 229.265625 116.691406 L 219.4375 116.691406 L 219.4375 115.972656 L 229.265625 115.972656 Z M 229.265625 113.644531 L 219.4375 113.644531 L 219.4375 112.925781 L 229.265625 112.925781 Z M 229.265625 110.601562 L 219.4375 110.601562 L 219.4375 109.878906 L 229.265625 109.878906 Z M 252.839844 107.710938 C 252.644531 107.710938 252.488281 107.550781 252.488281 107.359375 L 252.488281 104.742188 L 240.828125 104.742188 C 240.386719 104.742188 240.03125 105.097656 240.03125 105.539062 L 240.03125 122.707031 C 240.03125 123.148438 240.386719 123.503906 240.828125 123.503906 L 254.484375 123.503906 C 254.925781 123.503906 255.28125 123.148438 255.28125 122.707031 L 255.28125 107.710938 Z M 252.488281 119.738281 L 242.660156 119.738281 L 242.660156 119.015625 L 252.488281 119.015625 Z M 252.488281 116.691406 L 242.660156 116.691406 L 242.660156 115.972656 L 252.488281 115.972656 Z M 252.488281 113.644531 L 242.660156 113.644531 L 242.660156 112.925781 L 252.488281 112.925781 Z M 252.488281 110.601562 L 242.660156 110.601562 L 242.660156 109.878906 L 252.488281 109.878906 Z M 205.964844 138.75 L 205.964844 136.132812 L 194.304688 136.132812 C 193.863281 136.132812 193.507812 136.488281 193.507812 136.929688 L 193.507812 154.097656 C 193.507812 154.539062 193.863281 154.894531 194.304688 154.894531 L 207.964844 154.894531 C 208.402344 154.894531 208.757812 154.539062 208.757812 154.097656 L 208.757812 139.101562 L 206.316406 139.101562 C 206.125 139.101562 205.964844 138.941406 205.964844 138.75 Z M 196.136719 141.269531 L 205.964844 141.269531 L 205.964844 141.992188 L 196.136719 141.992188 Z M 196.136719 144.316406 L 205.964844 144.316406 L 205.964844 145.035156 L 196.136719 145.035156 Z M 196.136719 147.363281 L 205.964844 147.363281 L 205.964844 148.082031 L 196.136719 148.082031 Z M 196.136719 150.40625 L 205.964844 150.40625 L 205.964844 151.128906 L 196.136719 151.128906 Z M 229.265625 138.75 L 229.265625 136.132812 L 217.605469 136.132812 C 217.167969 136.132812 216.808594 136.488281 216.808594 136.929688 L 216.808594 154.097656 C 216.808594 154.539062 217.167969 154.894531 217.605469 154.894531 L 231.265625 154.894531 C 231.703125 154.894531 232.058594 154.539062 232.058594 154.097656 L 232.058594 139.101562 L 229.621094 139.101562 C 229.425781 139.101562 229.265625 138.941406 229.265625 138.75 Z M 219.4375 141.269531 L 229.265625 141.269531 L 229.265625 141.992188 L 219.4375 141.992188 Z M 219.4375 144.316406 L 229.265625 144.316406 L 229.265625 145.035156 L 219.4375 145.035156 Z M 219.4375 147.363281 L 229.265625 147.363281 L 229.265625 148.082031 L 219.4375 148.082031 Z M 219.4375 150.40625 L 229.265625 150.40625 L 229.265625 151.128906 L 219.4375 151.128906 Z M 166.449219 90.125 C 166.421875 90.144531 166.417969 90.183594 166.441406 90.210938 L 168.074219 92.144531 C 168.09375 92.171875 168.089844 92.210938 168.066406 92.230469 L 166.542969 93.511719 C 166.519531 93.535156 166.480469 93.53125 166.457031 93.507812 L 164.824219 91.570312 C 164.804688 91.542969 164.765625 91.542969 164.738281 91.5625 L 163.507812 92.597656 C 163.472656 92.628906 163.414062 92.605469 163.410156 92.558594 L 162.984375 87.828125 C 162.980469 87.785156 163.019531 87.753906 163.058594 87.761719 L 167.65625 88.984375 C 167.703125 88.996094 167.714844 89.058594 167.679688 89.089844 Z M 166.449219 90.125 " fill-opacity="1" fill-rule="nonzero"/><g clip-path="url(#16db6d4da4)"><path fill="#984fff" d="M 85.574219 159.78125 C 84.105469 159.78125 82.902344 158.582031 82.902344 157.109375 L 82.902344 147.359375 L 59.90625 147.359375 C 59.445312 147.359375 59.074219 147.734375 59.074219 148.191406 L 59.074219 183.636719 C 59.074219 184.09375 59.445312 184.46875 59.90625 184.46875 L 82.703125 184.46875 L 82.703125 172.886719 C 82.703125 172.429688 83.078125 172.054688 83.535156 172.054688 L 102.582031 172.054688 C 103.039062 172.054688 103.410156 172.429688 103.410156 172.886719 L 103.410156 184.46875 L 115.214844 184.46875 C 115.675781 184.46875 116.046875 184.09375 116.046875 183.636719 L 116.046875 159.78125 Z M 170.246094 62.785156 L 70.945312 62.785156 C 70.410156 62.785156 69.96875 63.226562 69.96875 63.761719 L 69.96875 68.996094 L 171.5625 68.996094 L 171.5625 64.101562 C 171.5625 63.375 170.976562 62.785156 170.246094 62.785156 Z M 73.628906 67.171875 C 72.917969 67.171875 72.34375 66.597656 72.34375 65.890625 C 72.34375 65.183594 72.917969 64.609375 73.628906 64.609375 C 74.335938 64.609375 74.910156 65.183594 74.910156 65.890625 C 74.910156 66.597656 74.335938 67.171875 73.628906 67.171875 Z M 78.261719 67.171875 C 77.554688 67.171875 76.980469 66.597656 76.980469 65.890625 C 76.980469 65.183594 77.554688 64.609375 78.261719 64.609375 C 78.96875 64.609375 79.546875 65.183594 79.546875 65.890625 C 79.546875 66.597656 78.96875 67.171875 78.261719 67.171875 Z M 82.976562 67.171875 C 82.953125 67.171875 82.925781 67.167969 82.902344 67.164062 C 82.226562 67.125 81.695312 66.574219 81.695312 65.890625 C 81.695312 65.210938 82.226562 64.65625 82.902344 64.617188 C 82.925781 64.617188 82.953125 64.609375 82.976562 64.609375 C 83.683594 64.609375 84.253906 65.183594 84.253906 65.890625 C 84.253906 66.597656 83.683594 67.171875 82.976562 67.171875 Z M 101.363281 80.121094 L 86.066406 80.121094 C 85.894531 80.121094 85.742188 80.242188 85.703125 80.410156 L 83.738281 89.175781 L 99.503906 89.175781 C 99.675781 89.175781 99.828125 89.058594 99.867188 88.886719 L 101.730469 80.574219 C 101.785156 80.34375 101.601562 80.121094 101.363281 80.121094 Z M 83.773438 91.382812 L 83.773438 92.804688 L 99.976562 92.804688 L 99.976562 91.382812 Z M 101.363281 103.875 L 86.066406 103.875 C 85.894531 103.875 85.742188 103.996094 85.703125 104.167969 L 83.738281 112.933594 L 99.503906 112.933594 C 99.675781 112.933594 99.828125 112.8125 99.867188 112.640625 L 101.730469 104.328125 C 101.785156 104.097656 101.601562 103.875 101.363281 103.875 Z M 83.773438 115.136719 L 83.773438 116.558594 L 99.976562 116.558594 L 99.976562 115.136719 Z M 129.511719 80.121094 L 114.210938 80.121094 C 114.039062 80.121094 113.886719 80.242188 113.847656 80.410156 L 111.878906 89.175781 L 127.648438 89.175781 C 127.820312 89.175781 127.972656 89.058594 128.007812 88.886719 L 129.871094 80.574219 C 129.925781 80.34375 129.75 80.121094 129.511719 80.121094 Z M 111.914062 91.382812 L 111.914062 92.804688 L 128.117188 92.804688 L 128.117188 91.382812 Z M 129.511719 103.875 L 114.210938 103.875 C 114.039062 103.875 113.886719 103.996094 113.847656 104.167969 L 111.878906 112.933594 L 127.648438 112.933594 C 127.820312 112.933594 127.972656 112.8125 128.007812 112.640625 L 129.871094 104.328125 C 129.925781 104.097656 129.75 103.875 129.511719 103.875 Z M 111.914062 115.136719 L 111.914062 116.558594 L 128.117188 116.558594 L 128.117188 115.136719 Z M 157.652344 80.121094 L 142.351562 80.121094 C 142.179688 80.121094 142.03125 80.242188 141.992188 80.410156 L 140.023438 89.175781 L 155.789062 89.175781 C 155.960938 89.175781 156.113281 89.058594 156.15625 88.886719 L 158.015625 80.574219 C 158.070312 80.34375 157.890625 80.121094 157.652344 80.121094 Z M 140.0625 91.382812 L 140.0625 92.804688 L 156.261719 92.804688 L 156.261719 91.382812 Z M 183.636719 91.042969 C 182.828125 91.042969 182.171875 90.386719 182.171875 89.574219 C 182.171875 88.761719 182.828125 88.105469 183.636719 88.105469 C 184.449219 88.105469 185.109375 88.761719 185.109375 89.574219 C 185.109375 90.386719 184.449219 91.042969 183.636719 91.042969 Z M 188.957031 91.042969 C 188.140625 91.042969 187.484375 90.386719 187.484375 89.574219 C 187.484375 88.761719 188.140625 88.105469 188.957031 88.105469 C 189.769531 88.105469 190.425781 88.761719 190.425781 89.574219 C 190.425781 90.386719 189.769531 91.042969 188.957031 91.042969 Z M 194.363281 91.042969 C 193.550781 91.042969 192.894531 90.386719 192.894531 89.574219 C 192.894531 88.761719 193.550781 88.105469 194.363281 88.105469 C 195.171875 88.105469 195.832031 88.761719 195.832031 89.574219 C 195.832031 90.386719 195.171875 91.042969 194.363281 91.042969 Z M 205.964844 104.742188 L 205.964844 107.355469 C 205.964844 107.554688 206.125 107.707031 206.316406 107.707031 L 208.757812 107.707031 Z M 229.265625 104.742188 L 229.265625 107.355469 C 229.265625 107.554688 229.425781 107.707031 229.621094 107.707031 L 232.058594 107.707031 Z M 252.488281 104.742188 L 252.488281 107.355469 C 252.488281 107.554688 252.644531 107.707031 252.84375 107.707031 L 255.28125 107.707031 Z M 193.507812 127 L 193.507812 128.96875 L 208.757812 128.96875 L 208.757812 127 Z M 216.726562 127 L 216.726562 128.96875 L 231.980469 128.96875 L 231.980469 127 Z M 240.03125 127 L 240.03125 128.96875 L 255.28125 128.96875 L 255.28125 127 Z M 205.964844 136.132812 L 205.964844 138.746094 C 205.964844 138.945312 206.125 139.101562 206.316406 139.101562 L 208.757812 139.101562 Z M 229.265625 136.132812 L 229.265625 138.746094 C 229.265625 138.945312 229.425781 139.101562 229.621094 139.101562 L 232.058594 139.101562 Z M 193.507812 158.390625 L 193.507812 160.359375 L 208.757812 160.359375 L 208.757812 158.390625 Z M 216.726562 158.390625 L 216.726562 160.359375 L 231.980469 160.359375 L 231.980469 158.390625 Z M 223.914062 8.933594 L 204.035156 8.933594 C 203.574219 8.933594 203.207031 9.304688 203.207031 9.761719 L 203.207031 29.621094 C 203.207031 30.078125 203.574219 30.449219 204.035156 30.449219 L 223.914062 30.449219 C 224.371094 30.449219 224.742188 30.078125 224.742188 29.621094 L 224.742188 9.761719 C 224.742188 9.304688 224.371094 8.933594 223.914062 8.933594 Z M 268.136719 86.015625 L 180.441406 86.015625 C 179.890625 86.015625 179.445312 86.460938 179.445312 87.007812 L 179.445312 93.136719 L 269.34375 93.136719 L 269.34375 87.214844 C 269.34375 86.550781 268.804688 86.015625 268.136719 86.015625 Z M 268.136719 86.015625 " fill-opacity="1" fill-rule="nonzero"/></g></svg>