<svg xmlns="http://www.w3.org/2000/svg" xmlns:xlink="http://www.w3.org/1999/xlink" width="439" zoomAndPan="magnify" viewBox="0 0 329.25 201.749994" height="269" preserveAspectRatio="xMidYMid meet" version="1.0"><defs><clipPath id="9a4e71a548"><path d="M 31.226562 8.359375 L 297.621094 8.359375 L 297.621094 193.1875 L 31.226562 193.1875 Z M 31.226562 8.359375 " clip-rule="nonzero"/></clipPath><clipPath id="9b4f21c73e"><path d="M 78 8.359375 L 297.621094 8.359375 L 297.621094 133 L 78 133 Z M 78 8.359375 " clip-rule="nonzero"/></clipPath><clipPath id="33ddbbea06"><path d="M 31.226562 13 L 275 13 L 275 193.1875 L 31.226562 193.1875 Z M 31.226562 13 " clip-rule="nonzero"/></clipPath></defs><g clip-path="url(#9a4e71a548)"><path fill="#9fcdff" d="M 238.078125 30.4375 L 235.730469 32.777344 L 238.1875 35.234375 L 240.535156 32.890625 C 242.070312 34.03125 243.882812 34.804688 245.855469 35.09375 L 245.855469 38.40625 L 249.332031 38.40625 L 249.332031 35.097656 C 251.304688 34.804688 253.117188 34.03125 254.648438 32.890625 L 257 35.234375 L 259.453125 32.777344 L 257.109375 30.4375 C 258.25 28.90625 259.027344 27.09375 259.316406 25.117188 L 262.632812 25.117188 L 262.632812 21.648438 L 259.316406 21.648438 C 259.023438 19.675781 258.25 17.863281 257.109375 16.332031 L 259.453125 13.988281 L 256.996094 11.535156 L 254.648438 13.878906 C 253.117188 12.738281 251.304688 11.964844 249.332031 11.671875 L 249.332031 8.359375 L 245.855469 8.359375 L 245.855469 11.671875 C 243.882812 11.964844 242.070312 12.738281 240.535156 13.878906 L 238.1875 11.535156 L 235.730469 13.988281 L 238.078125 16.332031 C 236.9375 17.863281 236.164062 19.675781 235.871094 21.648438 L 232.554688 21.648438 L 232.554688 25.117188 L 235.871094 25.117188 C 236.160156 27.089844 236.9375 28.902344 238.078125 30.4375 Z M 247.59375 15.003906 C 252.21875 15.003906 255.984375 18.761719 255.984375 23.386719 C 255.984375 28.007812 252.21875 31.765625 247.59375 31.765625 C 242.96875 31.765625 239.203125 28.007812 239.203125 23.386719 C 239.203125 18.761719 242.96875 15.003906 247.59375 15.003906 Z M 293.222656 54.953125 C 293.75 52.292969 293.585938 49.617188 292.824219 47.128906 L 296.90625 45.199219 L 294.878906 40.929688 L 290.796875 42.863281 C 289.351562 40.699219 287.382812 38.878906 284.984375 37.605469 L 286.503906 33.355469 L 282.046875 31.765625 L 280.53125 36.015625 C 277.867188 35.488281 275.1875 35.652344 272.699219 36.414062 L 270.765625 32.332031 L 266.492188 34.355469 L 268.425781 38.4375 C 266.261719 39.878906 264.4375 41.847656 263.160156 44.238281 L 258.910156 42.722656 L 257.320312 47.175781 L 261.570312 48.691406 C 261.042969 51.351562 261.207031 54.03125 261.96875 56.515625 L 257.886719 58.445312 L 259.910156 62.714844 L 263.996094 60.785156 C 265.4375 62.949219 267.40625 64.769531 269.804688 66.042969 L 268.289062 70.289062 L 272.742188 71.875 L 274.257812 67.632812 C 276.921875 68.160156 279.601562 67.996094 282.089844 67.238281 L 284.027344 71.3125 L 288.300781 69.285156 L 286.363281 65.214844 C 288.527344 63.769531 290.355469 61.800781 291.632812 59.40625 L 295.882812 60.917969 L 297.472656 56.46875 Z M 288.152344 55.660156 C 286.035156 61.585938 279.488281 64.683594 273.558594 62.570312 C 267.625 60.457031 264.523438 53.914062 266.640625 47.992188 C 268.753906 42.066406 275.304688 38.964844 281.234375 41.078125 C 287.167969 43.191406 290.269531 49.734375 288.152344 55.660156 Z M 84.65625 35.960938 L 51.984375 35.960938 L 51.984375 13.71875 L 84.0625 13.71875 C 84.390625 13.71875 84.65625 13.984375 84.65625 14.3125 Z M 51.984375 152.511719 L 68.320312 152.511719 L 68.320312 168.832031 L 51.984375 168.832031 Z M 64.070312 64.597656 L 31.398438 64.597656 L 31.398438 42.359375 L 63.476562 42.359375 C 63.804688 42.359375 64.070312 42.621094 64.070312 42.949219 Z M 274.6875 137.953125 L 274.6875 193.160156 L 191.371094 193.160156 L 191.371094 167.125 L 81.710938 167.125 C 80.046875 167.125 78.699219 165.777344 78.699219 164.117188 L 78.699219 53.4375 C 78.699219 51.777344 80.046875 50.429688 81.710938 50.429688 L 247.101562 50.429688 C 248.765625 50.429688 250.113281 51.777344 250.113281 53.4375 L 250.113281 136.445312 L 273.175781 136.445312 C 274.011719 136.445312 274.6875 137.121094 274.6875 137.953125 Z M 51.984375 176.84375 L 68.320312 176.84375 L 68.320312 193.160156 L 51.984375 193.160156 Z M 51.984375 176.84375 " fill-opacity="1" fill-rule="nonzero"/></g><path fill="#5285ff" d="M 247.101562 50.429688 L 81.710938 50.429688 C 80.046875 50.429688 78.699219 51.777344 78.699219 53.4375 L 78.699219 60.164062 L 250.113281 60.164062 L 250.113281 53.4375 C 250.113281 51.777344 248.765625 50.429688 247.101562 50.429688 Z M 84.402344 57.3125 C 83.289062 57.3125 82.386719 56.410156 82.386719 55.296875 C 82.386719 54.183594 83.289062 53.28125 84.402344 53.28125 C 85.515625 53.28125 86.417969 54.183594 86.417969 55.296875 C 86.417969 56.410156 85.515625 57.3125 84.402344 57.3125 Z M 91.695312 57.3125 C 90.582031 57.3125 89.679688 56.410156 89.679688 55.296875 C 89.679688 54.183594 90.582031 53.28125 91.695312 53.28125 C 92.808594 53.28125 93.710938 54.183594 93.710938 55.296875 C 93.710938 56.410156 92.808594 57.3125 91.695312 57.3125 Z M 99.113281 57.3125 C 98 57.3125 97.097656 56.410156 97.097656 55.296875 C 97.097656 54.183594 98 53.28125 99.113281 53.28125 C 100.226562 53.28125 101.128906 54.183594 101.128906 55.296875 C 101.128906 56.410156 100.226562 57.3125 99.113281 57.3125 Z M 112.339844 71.488281 L 111.394531 71.488281 L 111.394531 98.808594 L 78.699219 98.808594 L 78.699219 105.945312 L 111.394531 105.945312 L 111.394531 159.988281 L 78.699219 159.988281 L 78.699219 164.117188 C 78.699219 165.777344 80.046875 167.125 81.710938 167.125 L 247.101562 167.125 C 248.765625 167.125 250.113281 165.777344 250.113281 164.117188 L 250.113281 159.988281 L 224.6875 159.988281 L 224.6875 140.011719 L 250.113281 140.011719 L 250.113281 132.875 L 224.6875 132.875 L 224.6875 105.945312 L 250.113281 105.945312 L 250.113281 98.808594 L 224.6875 98.808594 L 224.6875 78.625 L 250.113281 78.625 L 250.113281 71.488281 Z M 196.835938 78.625 L 222.792969 78.625 L 222.792969 98.808594 L 196.835938 98.808594 Z M 196.835938 105.945312 L 222.792969 105.945312 L 222.792969 132.875 L 196.835938 132.875 Z M 196.835938 140.011719 L 222.792969 140.011719 L 222.792969 159.988281 L 196.835938 159.988281 Z M 168.988281 78.625 L 194.945312 78.625 L 194.945312 98.808594 L 168.988281 98.808594 Z M 168.988281 105.945312 L 194.945312 105.945312 L 194.945312 132.875 L 168.988281 132.875 Z M 168.988281 140.011719 L 194.945312 140.011719 L 194.945312 159.988281 L 168.988281 159.988281 Z M 141.136719 78.625 L 167.09375 78.625 L 167.09375 98.808594 L 141.136719 98.808594 Z M 141.136719 105.945312 L 167.09375 105.945312 L 167.09375 132.875 L 141.136719 132.875 Z M 141.136719 140.011719 L 167.09375 140.011719 L 167.09375 159.988281 L 141.136719 159.988281 Z M 113.289062 78.625 L 139.246094 78.625 L 139.246094 98.808594 L 113.289062 98.808594 Z M 113.289062 105.945312 L 139.246094 105.945312 L 139.246094 132.875 L 113.289062 132.875 Z M 113.289062 140.011719 L 139.246094 140.011719 L 139.246094 159.988281 L 113.289062 159.988281 Z M 113.289062 140.011719 " fill-opacity="1" fill-rule="nonzero"/><g clip-path="url(#9b4f21c73e)"><path fill="#1ddd92" d="M 82.386719 55.296875 C 82.386719 54.183594 83.289062 53.28125 84.402344 53.28125 C 85.515625 53.28125 86.417969 54.183594 86.417969 55.296875 C 86.417969 56.410156 85.515625 57.3125 84.402344 57.3125 C 83.289062 57.3125 82.386719 56.410156 82.386719 55.296875 Z M 91.695312 57.3125 C 92.808594 57.3125 93.710938 56.410156 93.710938 55.296875 C 93.710938 54.183594 92.808594 53.28125 91.695312 53.28125 C 90.582031 53.28125 89.679688 54.183594 89.679688 55.296875 C 89.679688 56.410156 90.582031 57.3125 91.695312 57.3125 Z M 99.113281 57.3125 C 100.226562 57.3125 101.128906 56.410156 101.128906 55.296875 C 101.128906 54.183594 100.226562 53.28125 99.113281 53.28125 C 98 53.28125 97.097656 54.183594 97.097656 55.296875 C 97.097656 56.410156 98 57.3125 99.113281 57.3125 Z M 78.699219 60.164062 L 250.113281 60.164062 L 250.113281 71.488281 L 111.394531 71.488281 L 111.394531 71.492188 L 78.699219 71.492188 Z M 129.410156 67.660156 L 199.402344 67.660156 L 199.402344 62.648438 L 129.410156 62.648438 Z M 113.289062 132.875 L 139.246094 132.875 L 139.246094 105.945312 L 113.289062 105.945312 Z M 168.988281 132.875 L 194.945312 132.875 L 194.945312 105.945312 L 168.988281 105.945312 Z M 141.136719 132.875 L 167.09375 132.875 L 167.09375 105.945312 L 141.136719 105.945312 Z M 224.6875 132.875 L 250.113281 132.875 L 250.113281 105.945312 L 224.6875 105.945312 Z M 196.835938 132.875 L 222.792969 132.875 L 222.792969 105.945312 L 196.835938 105.945312 Z M 78.699219 132.875 L 111.394531 132.875 L 111.394531 105.945312 L 78.699219 105.945312 Z M 297.472656 56.46875 L 295.882812 60.917969 L 291.632812 59.40625 C 290.355469 61.800781 288.527344 63.769531 286.363281 65.214844 L 288.300781 69.285156 L 284.027344 71.3125 L 282.089844 67.238281 C 279.601562 67.996094 276.921875 68.160156 274.257812 67.632812 L 272.742188 71.875 L 268.289062 70.289062 L 269.804688 66.042969 C 267.40625 64.769531 265.4375 62.949219 263.996094 60.785156 L 259.910156 62.714844 L 257.886719 58.445312 L 261.96875 56.515625 C 261.207031 54.03125 261.042969 51.351562 261.570312 48.691406 L 257.320312 47.175781 L 258.910156 42.722656 L 263.160156 44.238281 C 264.4375 41.847656 266.261719 39.878906 268.425781 38.4375 L 266.492188 34.355469 L 270.765625 32.332031 L 272.699219 36.414062 C 275.1875 35.652344 277.867188 35.488281 280.53125 36.015625 L 282.046875 31.765625 L 286.503906 33.355469 L 284.984375 37.605469 C 287.382812 38.878906 289.351562 40.699219 290.796875 42.863281 L 294.878906 40.929688 L 296.90625 45.199219 L 292.824219 47.128906 C 293.585938 49.617188 293.75 52.292969 293.222656 54.953125 Z M 281.234375 41.078125 C 275.304688 38.964844 268.753906 42.066406 266.640625 47.992188 C 264.523438 53.914062 267.625 60.457031 273.558594 62.570312 C 279.488281 64.683594 286.035156 61.585938 288.152344 55.660156 C 290.269531 49.734375 287.167969 43.191406 281.234375 41.078125 Z M 259.453125 32.777344 L 257 35.234375 L 254.648438 32.890625 C 253.117188 34.03125 251.304688 34.804688 249.332031 35.097656 L 249.332031 38.40625 L 245.855469 38.40625 L 245.855469 35.09375 C 243.882812 34.804688 242.070312 34.03125 240.535156 32.890625 L 238.1875 35.234375 L 235.730469 32.777344 L 238.078125 30.4375 C 236.9375 28.902344 236.160156 27.089844 235.871094 25.117188 L 232.554688 25.117188 L 232.554688 21.648438 L 235.871094 21.648438 C 236.164062 19.675781 236.9375 17.863281 238.078125 16.332031 L 235.730469 13.988281 L 238.1875 11.535156 L 240.535156 13.878906 C 242.070312 12.738281 243.882812 11.964844 245.855469 11.671875 L 245.855469 8.359375 L 249.332031 8.359375 L 249.332031 11.671875 C 251.304688 11.964844 253.117188 12.738281 254.648438 13.878906 L 256.996094 11.535156 L 259.453125 13.988281 L 257.109375 16.332031 C 258.25 17.863281 259.023438 19.675781 259.316406 21.648438 L 262.632812 21.648438 L 262.632812 25.117188 L 259.316406 25.117188 C 259.027344 27.09375 258.25 28.90625 257.109375 30.4375 Z M 255.984375 23.386719 C 255.984375 18.761719 252.21875 15.003906 247.59375 15.003906 C 242.96875 15.003906 239.203125 18.761719 239.203125 23.386719 C 239.203125 28.007812 242.96875 31.765625 247.59375 31.765625 C 252.21875 31.765625 255.984375 28.007812 255.984375 23.386719 Z M 255.984375 23.386719 " fill-opacity="1" fill-rule="nonzero"/></g><g clip-path="url(#33ddbbea06)"><path fill="#984fff" d="M 274.6875 137.953125 L 274.6875 193.160156 L 191.371094 193.160156 L 191.371094 167.125 L 247.101562 167.125 C 248.765625 167.125 250.113281 165.777344 250.113281 164.117188 L 250.113281 136.445312 L 273.175781 136.445312 C 274.011719 136.445312 274.6875 137.121094 274.6875 137.953125 Z M 64.070312 42.949219 C 64.070312 42.621094 63.804688 42.359375 63.476562 42.359375 L 31.398438 42.359375 L 31.398438 64.597656 L 64.070312 64.597656 Z M 84.65625 14.3125 C 84.65625 13.984375 84.390625 13.71875 84.0625 13.71875 L 51.984375 13.71875 L 51.984375 35.960938 L 84.65625 35.960938 Z M 78.699219 98.808594 L 111.394531 98.808594 L 111.394531 71.492188 L 78.699219 71.492188 Z M 78.699219 159.988281 L 111.394531 159.988281 L 111.394531 132.875 L 78.699219 132.875 Z M 199.402344 62.648438 L 129.410156 62.648438 L 129.410156 67.660156 L 199.402344 67.660156 Z M 51.984375 168.832031 L 68.320312 168.832031 L 68.320312 152.511719 L 51.984375 152.511719 Z M 51.984375 193.160156 L 68.320312 193.160156 L 68.320312 176.84375 L 51.984375 176.84375 Z M 51.984375 193.160156 " fill-opacity="1" fill-rule="nonzero"/></g></svg>